DemiBold.ufo
<glyph name="quotedbl" format="1">
  <advance width="314"/>
  <unicode hex="0022"/>
  <outline>
    <contour>
      <point x="172" y="615" type="line" smooth="yes"/>
      <point x="172" y="640.297"/>
      <point x="187.078" y="658.529"/>
      <point x="208" y="658.529" type="curve" smooth="yes"/>
      <point x="228.922" y="658.529"/>
      <point x="244" y="640.297"/>
      <point x="244" y="615" type="curve" smooth="yes"/>
      <point x="244" y="466" type="line" smooth="yes"/>
      <point x="244" y="437.662"/>
      <point x="231.725" y="423"/>
      <point x="208" y="423" type="curve" smooth="yes"/>
      <point x="184.275" y="423"/>
      <point x="172" y="437.662"/>
      <point x="172" y="466" type="curve" smooth="yes"/>
    </contour>
    <contour>
      <point x="71" y="615" type="line" smooth="yes"/>
      <point x="71" y="641.586"/>
      <point x="85.1747" y="658"/>
      <point x="108.133" y="658" type="curve" smooth="yes"/>
      <point x="130.291" y="658"/>
      <point x="142" y="643.133"/>
      <point x="142" y="615" type="curve" smooth="yes"/>
      <point x="142" y="466" type="line" smooth="yes"/>
      <point x="142" y="439.414"/>
      <point x="127.825" y="423"/>
      <point x="104.867" y="423" type="curve" smooth="yes"/>
      <point x="82.7089" y="423"/>
      <point x="71" y="437.867"/>
      <point x="71" y="466" type="curve" smooth="yes"/>
    </contour>
  </outline>
</glyph>
<glyph name="numbersign" format="1">
  <advance width="622"/>
  <unicode hex="0023"/>
  <outline>
    <contour>
      <point x="306" y="446" type="curve"/>
      <point x="409" y="446" type="line"/>
      <point x="468" y="610" type="line" smooth="yes"/>
      <point x="474.864" y="629.08"/>
      <point x="489.104" y="640"/>
      <point x="507.121" y="640" type="curve" smooth="yes"/>
      <point x="526.964" y="640"/>
      <point x="540.183" y="626.603"/>
      <point x="540.183" y="606.492" type="curve" smooth="yes"/>
      <point x="540.183" y="571.594"/>
      <point x="498.306" y="478.658"/>
      <point x="486" y="446" type="curve"/>
      <point x="513.145" y="446"/>
      <point x="578.529" y="455.946"/>
      <point x="578.529" y="411.666" type="curve" smooth="yes"/>
      <point x="578.529" y="389.498"/>
      <point x="560.619" y="374"/>
      <point x="535" y="374" type="curve" smooth="yes"/>
      <point x="460" y="374" type="line"/>
      <point x="419" y="262" type="line"/>
      <point x="504" y="262" type="line" smooth="yes"/>
      <point x="532.338" y="262"/>
      <point x="547" y="249.725"/>
      <point x="547" y="226" type="curve" smooth="yes"/>
      <point x="547" y="202.275"/>
      <point x="532.338" y="190"/>
      <point x="504" y="190" type="curve" smooth="yes"/>
      <point x="393" y="190" type="line"/>
      <point x="334" y="26" type="line" smooth="yes"/>
      <point x="327.743" y="8.6087"/>
      <point x="310.72" y="-4.32302"/>
      <point x="294.083" y="-4.32302" type="curve" smooth="yes"/>
      <point x="275.632" y="-4.32302"/>
      <point x="260.89" y="10.8727"/>
      <point x="260.89" y="29.893" type="curve" smooth="yes"/>
      <point x="260.89" y="62.2395"/>
      <point x="304.505" y="157.466"/>
      <point x="317" y="190" type="curve"/>
      <point x="214" y="190" type="line"/>
      <point x="155" y="26" type="line" smooth="yes"/>
      <point x="148.737" y="8.59033"/>
      <point x="132.112" y="-4.34462"/>
      <point x="116" y="-4.34462" type="curve" smooth="yes"/>
      <point x="97.7808" y="-4.34462"/>
      <point x="82.8776" y="10.9047"/>
      <point x="82.8776" y="29.5471" type="curve" smooth="yes"/>
      <point x="82.8776" y="61.1692"/>
      <point x="125.838" y="157.49"/>
      <point x="138" y="190" type="curve"/>
      <point x="110.921" y="190"/>
      <point x="42.4706" y="179.254"/>
      <point x="42.4706" y="224.416" type="curve" smooth="yes"/>
      <point x="42.4706" y="246.523"/>
      <point x="60.396" y="262"/>
      <point x="86" y="262" type="curve" smooth="yes"/>
      <point x="164" y="262" type="line"/>
      <point x="205" y="374" type="line"/>
      <point x="116" y="374" type="line" smooth="yes"/>
      <point x="88.5507" y="374"/>
      <point x="74" y="386.233"/>
      <point x="74" y="409.311" type="curve" smooth="yes"/>
      <point x="74" y="432.625"/>
      <point x="89.3111" y="446"/>
      <point x="116" y="446" type="curve" smooth="yes"/>
      <point x="231" y="446" type="line"/>
      <point x="290" y="610" type="line" smooth="yes"/>
      <point x="297.348" y="630.425"/>
      <point x="308.893" y="640"/>
      <point x="326.17" y="640" type="curve" smooth="yes"/>
      <point x="346.428" y="640"/>
      <point x="361.874" y="625.605"/>
      <point x="361.874" y="606.727" type="curve" smooth="yes"/>
      <point x="361.874" y="576.058"/>
      <point x="316.957" y="474.736"/>
    </contour>
    <contour>
      <point x="281" y="374" type="line"/>
      <point x="240" y="262" type="line"/>
      <point x="342" y="262" type="line"/>
      <point x="383" y="374" type="line"/>
    </contour>
  </outline>
</glyph>
<glyph name="dollar" format="1">
  <advance width="628"/>
  <unicode hex="0024"/>
  <outline>
    <contour>
      <point x="61" y="189.206" type="curve" smooth="yes"/>
      <point x="61" y="230.269"/>
      <point x="71.9945" y="246"/>
      <point x="100.693" y="246" type="curve" smooth="yes"/>
      <point x="168.253" y="246"/>
      <point x="92.9135" y="156"/>
      <point x="178" y="156" type="curve" smooth="yes"/>
      <point x="284" y="156" type="line"/>
      <point x="284" y="291" type="line"/>
      <point x="171.954" y="291"/>
      <point x="61" y="281.61"/>
      <point x="61" y="424.287" type="curve" smooth="yes"/>
      <point x="61" y="570.585"/>
      <point x="177.656" y="557"/>
      <point x="284" y="557" type="curve"/>
      <point x="284" y="586.341"/>
      <point x="273.412" y="643"/>
      <point x="321.183" y="643" type="curve" smooth="yes"/>
      <point x="367.089" y="643"/>
      <point x="356" y="590.677"/>
      <point x="356" y="557" type="curve"/>
      <point x="457.212" y="557"/>
      <point x="567" y="581.619"/>
      <point x="567" y="454.47" type="curve" smooth="yes"/>
      <point x="567" y="415.435"/>
      <point x="555.749" y="397.787"/>
      <point x="531" y="398" type="curve"/>
      <point x="530" y="397" type="line"/>
      <point x="461.073" y="396.303"/>
      <point x="535.304" y="485"/>
      <point x="450" y="485" type="curve" smooth="yes"/>
      <point x="356" y="485" type="line"/>
      <point x="356" y="363" type="line"/>
      <point x="468.615" y="363"/>
      <point x="567" y="371.041"/>
      <point x="567" y="224.426" type="curve" smooth="yes"/>
      <point x="567" y="78.9408"/>
      <point x="470.125" y="84"/>
      <point x="356" y="84" type="curve"/>
      <point x="356" y="49.0899"/>
      <point x="368.171" y="-7"/>
      <point x="321.159" y="-7" type="curve" smooth="yes"/>
      <point x="271.79" y="-7"/>
      <point x="284" y="54.8559"/>
      <point x="284" y="84" type="curve"/>
      <point x="169.827" y="84"/>
      <point x="61" y="56.4517"/>
    </contour>
    <contour>
      <point x="446" y="291" type="curve" smooth="yes"/>
      <point x="356" y="291" type="line"/>
      <point x="356" y="156" type="line"/>
      <point x="446" y="156" type="line" smooth="yes"/>
      <point x="479.747" y="156"/>
      <point x="495" y="172.41"/>
      <point x="495" y="208.715" type="curve" smooth="yes"/>
      <point x="495" y="256.871"/>
      <point x="474.677" y="291"/>
    </contour>
    <contour>
      <point x="182" y="363" type="curve" smooth="yes"/>
      <point x="284" y="363" type="line"/>
      <point x="284" y="485" type="line"/>
      <point x="182" y="485" type="line" smooth="yes"/>
      <point x="145.9" y="485"/>
      <point x="133" y="472.645"/>
      <point x="133" y="438.069" type="curve" smooth="yes"/>
      <point x="133" y="392.383"/>
      <point x="152.179" y="363"/>
    </contour>
  </outline>
</glyph>
<glyph name="percent" format="1">
  <advance width="597"/>
  <unicode hex="0025"/>
  <outline>
    <contour>
      <point x="445" y="184.923" type="curve" smooth="yes"/>
      <point x="445" y="196.048"/>
      <point x="438.048" y="203"/>
      <point x="426.923" y="203" type="curve" smooth="yes"/>
      <point x="414.7" y="203"/>
      <point x="405.281" y="194.269"/>
      <point x="405.281" y="182.94" type="curve" smooth="yes"/>
      <point x="405.281" y="172.161"/>
      <point x="414.161" y="163.281"/>
      <point x="424.94" y="163.281" type="curve" smooth="yes"/>
      <point x="436.269" y="163.281"/>
      <point x="445" y="172.7"/>
    </contour>
    <contour>
      <point x="322" y="183" type="curve" smooth="yes"/>
      <point x="322" y="232.224"/>
      <point x="369.304" y="275"/>
      <point x="423.738" y="275" type="curve" smooth="yes"/>
      <point x="475.543" y="275"/>
      <point x="517" y="234.104"/>
      <point x="517" y="183" type="curve" smooth="yes"/>
      <point x="517" y="131.896"/>
      <point x="475.543" y="91"/>
      <point x="423.738" y="91" type="curve" smooth="yes"/>
      <point x="369.304" y="91"/>
      <point x="322" y="133.776"/>
    </contour>
    <contour>
      <point x="171.297" y="476" type="curve" smooth="yes"/>
      <point x="160.542" y="476"/>
      <point x="153.01" y="468.957"/>
      <point x="153.01" y="458.9" type="curve" smooth="yes"/>
      <point x="153.01" y="448.566"/>
      <point x="160.908" y="441"/>
      <point x="171.697" y="441" type="curve" smooth="yes"/>
      <point x="182.624" y="441"/>
      <point x="190.721" y="448.48"/>
      <point x="190.721" y="458.574" type="curve" smooth="yes"/>
      <point x="190.721" y="468.652"/>
      <point x="182.53" y="476"/>
    </contour>
    <contour>
      <point x="172.682" y="369" type="curve" smooth="yes"/>
      <point x="120.872" y="369"/>
      <point x="79" y="409.677"/>
      <point x="79" y="460.01" type="curve" smooth="yes"/>
      <point x="79" y="509.421"/>
      <point x="120.056" y="548"/>
      <point x="172.639" y="548" type="curve" smooth="yes"/>
      <point x="227.68" y="548"/>
      <point x="274" y="507.773"/>
      <point x="274" y="459.971" type="curve" smooth="yes"/>
      <point x="274" y="411.339"/>
      <point x="226.845" y="369"/>
    </contour>
    <contour>
      <point x="494.009" y="526.214" type="curve" smooth="yes"/>
      <point x="513.467" y="526.214"/>
      <point x="529.169" y="511.658"/>
      <point x="529.169" y="493.623" type="curve" smooth="yes"/>
      <point x="529.169" y="482.63"/>
      <point x="523.364" y="470.528"/>
      <point x="514" y="462" type="curve" smooth="yes"/>
      <point x="133" y="115" type="line" smooth="yes"/>
      <point x="123.859" y="106.674"/>
      <point x="113.292" y="102.201"/>
      <point x="102.767" y="102.201" type="curve" smooth="yes"/>
      <point x="83.1106" y="102.201"/>
      <point x="67.1236" y="116.946"/>
      <point x="67.1236" y="135.075" type="curve" smooth="yes"/>
      <point x="67.1236" y="146.349"/>
      <point x="73.3283" y="159.217"/>
      <point x="83" y="168" type="curve" smooth="yes"/>
      <point x="464" y="514" type="line" smooth="yes"/>
      <point x="472.527" y="521.743"/>
      <point x="483.51" y="526.214"/>
    </contour>
  </outline>
</glyph>
<glyph name="parenleft" format="1">
  <advance width="271"/>
  <unicode hex="0028"/>
  <outline>
    <contour>
      <point x="223" y="15" type="curve"/>
      <point x="223" y="-57" type="line"/>
      <point x="166.438" y="-57.016"/>
      <point x="125.075" y="-44.4371"/>
      <point x="104.05" y="-20.8263" type="curve" smooth="yes"/>
      <point x="81.331" y="4.68677"/>
      <point x="73" y="45.9598"/>
      <point x="73" y="133" type="curve" smooth="yes"/>
      <point x="73" y="503" type="line" smooth="yes"/>
      <point x="73" y="610.063"/>
      <point x="98.3724" y="671.519"/>
      <point x="148.919" y="686.887" type="curve" smooth="yes"/>
      <point x="170.369" y="693.409"/>
      <point x="197.777" y="693"/>
      <point x="223" y="693" type="curve"/>
      <point x="223" y="621" type="line"/>
      <point x="207.521" y="621.022"/>
      <point x="182.992" y="622.235"/>
      <point x="170.686" y="617.138" type="curve" smooth="yes"/>
      <point x="138.456" y="603.788"/>
      <point x="145" y="528.48"/>
      <point x="145" y="503" type="curve" smooth="yes"/>
      <point x="145" y="133" type="line" smooth="yes"/>
      <point x="145" y="105.91"/>
      <point x="139.716" y="32.7722"/>
      <point x="172.2" y="19.072" type="curve" smooth="yes"/>
      <point x="184.445" y="13.9077"/>
      <point x="207.247" y="15"/>
    </contour>
  </outline>
</glyph>
<glyph name="period" format="1">
  <advance width="250"/>
  <unicode hex="002E"/>
  <outline>
    <contour>
      <point x="186" y="28.9998" type="curve" smooth="yes"/>
      <point x="186" y="0.196151"/>
      <point x="160.307" y="-20.7647"/>
      <point x="125" y="-20.7647" type="curve" smooth="yes"/>
      <point x="89.6932" y="-20.7647"/>
      <point x="64" y="0.196206"/>
      <point x="64" y="29" type="curve" smooth="yes"/>
      <point x="64" y="57.8039"/>
      <point x="89.6932" y="78.7647"/>
      <point x="125" y="78.7647" type="curve" smooth="yes"/>
      <point x="160.307" y="78.7647"/>
      <point x="186" y="57.8037"/>
    </contour>
  </outline>
</glyph>
<glyph name="slash" format="1">
  <advance width="375"/>
  <unicode hex="002F"/>
  <outline>
    <contour>
      <point x="74.2421" y="-23" type="curve" smooth="yes"/>
      <point x="54.5016" y="-23"/>
      <point x="42" y="-9.79643"/>
      <point x="42" y="11.0524" type="curve" smooth="yes"/>
      <point x="42" y="25.8595"/>
      <point x="48.6351" y="43.7384"/>
      <point x="52" y="53" type="curve" smooth="yes"/>
      <point x="262" y="631" type="line" smooth="yes"/>
      <point x="268.46" y="648.781"/>
      <point x="283.494" y="660"/>
      <point x="300.86" y="660" type="curve" smooth="yes"/>
      <point x="320.648" y="660"/>
      <point x="332.731" y="646.856"/>
      <point x="332.731" y="625.33" type="curve" smooth="yes"/>
      <point x="332.731" y="615.617"/>
      <point x="330.35" y="604.738"/>
      <point x="325" y="590" type="curve" smooth="yes"/>
      <point x="113" y="6" type="line" smooth="yes"/>
      <point x="106.339" y="-12.3494"/>
      <point x="92.1046" y="-23"/>
    </contour>
  </outline>
</glyph>
<glyph name="zero" format="1">
  <advance width="592"/>
  <unicode hex="0030"/>
  <outline>
    <contour>
      <point x="116" y="491" type="curve" smooth="yes"/>
      <point x="116" y="144" type="line" smooth="yes"/>
      <point x="116" y="104.393"/>
      <point x="169.905" y="67"/>
      <point x="227" y="67" type="curve" smooth="yes"/>
      <point x="365" y="67" type="line" smooth="yes"/>
      <point x="422.095" y="67"/>
      <point x="476" y="104.393"/>
      <point x="476" y="144" type="curve" smooth="yes"/>
      <point x="476" y="491" type="line" smooth="yes"/>
      <point x="476" y="530.607"/>
      <point x="422.095" y="568"/>
      <point x="365" y="568" type="curve" smooth="yes"/>
      <point x="227" y="568" type="line" smooth="yes"/>
      <point x="169.905" y="568"/>
      <point x="116" y="530.607"/>
    </contour>
    <contour>
      <point x="548" y="158" type="line" smooth="yes"/>
      <point x="548" y="62.8168"/>
      <point x="467.285" y="-5"/>
      <point x="354" y="-5" type="curve" smooth="yes"/>
      <point x="238" y="-5" type="line" smooth="yes"/>
      <point x="124.715" y="-5"/>
      <point x="44" y="62.8168"/>
      <point x="44" y="158" type="curve" smooth="yes"/>
      <point x="44" y="478" type="line" smooth="yes"/>
      <point x="44" y="573.183"/>
      <point x="124.715" y="641"/>
      <point x="238" y="641" type="curve" smooth="yes"/>
      <point x="354" y="641" type="line" smooth="yes"/>
      <point x="467.285" y="641"/>
      <point x="548" y="573.183"/>
      <point x="548" y="478" type="curve" smooth="yes"/>
    </contour>
  </outline>
</glyph>
<glyph name="one" format="1">
  <advance width="592"/>
  <unicode hex="0031"/>
  <outline>
    <contour>
      <point x="269" y="569" type="line"/>
      <point x="255.566" y="557.326"/>
      <point x="243.425" y="545.253"/>
      <point x="225.341" y="545.253" type="curve" smooth="yes"/>
      <point x="205.959" y="545.253"/>
      <point x="191.444" y="558.824"/>
      <point x="191.444" y="576.946" type="curve" smooth="yes"/>
      <point x="191.444" y="588.04"/>
      <point x="196.662" y="597.864"/>
      <point x="209" y="610" type="curve" smooth="yes"/>
      <point x="270" y="670" type="line" smooth="yes"/>
      <point x="278.351" y="678.214"/>
      <point x="294.037" y="684.26"/>
      <point x="306.996" y="684.26" type="curve" smooth="yes"/>
      <point x="327.208" y="684.26"/>
      <point x="341" y="669.147"/>
      <point x="341" y="647" type="curve" smooth="yes"/>
      <point x="341" y="33" type="line" smooth="yes"/>
      <point x="341" y="6.57983"/>
      <point x="328.778" y="-7"/>
      <point x="305" y="-7" type="curve" smooth="yes"/>
      <point x="281.222" y="-7"/>
      <point x="269" y="6.57983"/>
      <point x="269" y="33" type="curve" smooth="yes"/>
    </contour>
  </outline>
</glyph>
<glyph name="two" format="1">
  <advance width="592"/>
  <unicode hex="0032"/>
  <outline>
    <contour>
      <point x="548" y="506.56" type="curve" smooth="yes"/>
      <point x="548" y="277.244"/>
      <point x="135.369" y="260.255"/>
      <point x="117" y="67" type="curve"/>
      <point x="503" y="67" type="line" smooth="yes"/>
      <point x="532.61" y="67"/>
      <point x="548" y="54.6882"/>
      <point x="548" y="31" type="curve" smooth="yes"/>
      <point x="548" y="7.31175"/>
      <point x="532.61" y="-5"/>
      <point x="503" y="-5" type="curve" smooth="yes"/>
      <point x="45" y="-5" type="line"/>
      <point x="45" y="52" type="line" smooth="yes"/>
      <point x="45" y="303.566"/>
      <point x="476" y="316.442"/>
      <point x="476" y="500.782" type="curve" smooth="yes"/>
      <point x="476" y="570.702"/>
      <point x="413.992" y="569"/>
      <point x="314" y="569" type="curve" smooth="yes"/>
      <point x="161" y="569" type="line" smooth="yes"/>
      <point x="78.4919" y="569"/>
      <point x="150.734" y="474"/>
      <point x="84.1521" y="474" type="curve" smooth="yes"/>
      <point x="56.0299" y="474"/>
      <point x="45" y="490.34"/>
      <point x="45" y="532" type="curve" smooth="yes"/>
      <point x="45" y="606.765"/>
      <point x="79.2353" y="641"/>
      <point x="154" y="641" type="curve" smooth="yes"/>
      <point x="314" y="641" type="line" smooth="yes"/>
      <point x="479.248" y="641"/>
      <point x="548" y="601.5"/>
    </contour>
  </outline>
</glyph>
<glyph name="three" format="1">
  <advance width="592"/>
  <unicode hex="0033"/>
  <outline>
    <contour>
      <point x="342" y="569" type="curve" smooth="yes"/>
      <point x="250" y="569" type="line" smooth="yes"/>
      <point x="183.471" y="569"/>
      <point x="116" y="537.712"/>
      <point x="116" y="506.861" type="curve" smooth="yes"/>
      <point x="116" y="487.475"/>
      <point x="101.539" y="474"/>
      <point x="80.7358" y="474" type="curve" smooth="yes"/>
      <point x="57.071" y="474"/>
      <point x="44" y="490.197"/>
      <point x="44" y="519.523" type="curve" smooth="yes"/>
      <point x="44" y="587.458"/>
      <point x="131.71" y="641"/>
      <point x="243" y="641" type="curve" smooth="yes"/>
      <point x="329" y="641" type="line" smooth="yes"/>
      <point x="479.546" y="641"/>
      <point x="548" y="596.162"/>
      <point x="548" y="497.553" type="curve" smooth="yes"/>
      <point x="548" y="426.124"/>
      <point x="504.351" y="359.857"/>
      <point x="435" y="326" type="curve"/>
      <point x="501.247" y="291.123"/>
      <point x="548" y="214.063"/>
      <point x="548" y="139.75" type="curve" smooth="yes"/>
      <point x="548" y="40.0606"/>
      <point x="479.825" y="-5"/>
      <point x="329" y="-5" type="curve" smooth="yes"/>
      <point x="243" y="-5" type="line" smooth="yes"/>
      <point x="131.279" y="-5"/>
      <point x="44" y="48.2469"/>
      <point x="44" y="116.406" type="curve" smooth="yes"/>
      <point x="44" y="145.796"/>
      <point x="57.0562" y="162"/>
      <point x="80.7358" y="162" type="curve" smooth="yes"/>
      <point x="101.568" y="162"/>
      <point x="116" y="148.513"/>
      <point x="116" y="129.043" type="curve" smooth="yes"/>
      <point x="116" y="98.0216"/>
      <point x="183" y="67"/>
      <point x="250" y="67" type="curve" smooth="yes"/>
      <point x="342" y="67" type="line" smooth="yes"/>
      <point x="433.604" y="67"/>
      <point x="477" y="93.5967"/>
      <point x="477" y="149.739" type="curve" smooth="yes"/>
      <point x="477" y="220.374"/>
      <point x="390.182" y="284.528"/>
      <point x="288.172" y="289.271" type="curve" smooth="yes"/>
      <point x="255.767" y="290.778"/>
      <point x="238" y="303.476"/>
      <point x="238" y="325.129" type="curve" smooth="yes"/>
      <point x="238" y="348.58"/>
      <point x="258.883" y="362"/>
      <point x="295.373" y="362" type="curve" smooth="yes"/>
      <point x="392.912" y="362"/>
      <point x="477" y="420.518"/>
      <point x="477" y="488.396" type="curve" smooth="yes"/>
      <point x="477" y="543.588"/>
      <point x="434.438" y="569"/>
    </contour>
  </outline>
</glyph>
<glyph name="five" format="1">
  <advance width="592"/>
  <unicode hex="0035"/>
  <outline>
    <contour>
      <point x="306.488" y="63" type="curve" smooth="yes"/>
      <point x="407.686" y="63"/>
      <point x="471" y="123.681"/>
      <point x="471" y="220.67" type="curve" smooth="yes"/>
      <point x="471" y="315.508"/>
      <point x="411.211" y="377"/>
      <point x="319" y="377" type="curve" smooth="yes"/>
      <point x="55" y="377" type="line"/>
      <point x="64" y="508" type="line" smooth="yes"/>
      <point x="70.6776" y="605.196"/>
      <point x="104.825" y="641"/>
      <point x="190" y="641" type="curve" smooth="yes"/>
      <point x="459" y="641" type="line" smooth="yes"/>
      <point x="486.457" y="641"/>
      <point x="501" y="628.774"/>
      <point x="501" y="605.692" type="curve" smooth="yes"/>
      <point x="501" y="582.371"/>
      <point x="485.695" y="569"/>
      <point x="459" y="569" type="curve" smooth="yes"/>
      <point x="182" y="569" type="line" smooth="yes"/>
      <point x="151.599" y="569"/>
      <point x="141.172" y="555.77"/>
      <point x="136.915" y="511.789" type="curve" smooth="yes"/>
      <point x="135.617" y="498.381"/>
      <point x="133.999" y="473.653"/>
      <point x="132" y="449" type="curve"/>
      <point x="310" y="449" type="line" smooth="yes"/>
      <point x="446.851" y="449"/>
      <point x="543" y="355.184"/>
      <point x="543" y="221.653" type="curve" smooth="yes"/>
      <point x="543" y="90.0048"/>
      <point x="445.893" y="-9"/>
      <point x="316.769" y="-9" type="curve" smooth="yes"/>
      <point x="194.325" y="-9"/>
      <point x="49" y="51.1687"/>
      <point x="49" y="101.864" type="curve" smooth="yes"/>
      <point x="49" y="119.316"/>
      <point x="62.9543" y="141"/>
      <point x="74.1851" y="141" type="curve" smooth="yes"/>
      <point x="94.2737" y="141"/>
      <point x="193.414" y="63"/>
    </contour>
  </outline>
</glyph>
<glyph name="seven" format="1">
  <advance width="592"/>
  <unicode hex="0037"/>
  <outline>
    <contour>
      <point x="265.454" y="-10" type="curve" smooth="yes"/>
      <point x="245.65" y="-10"/>
      <point x="225.733" y="0.898856"/>
      <point x="225.733" y="11.7354" type="curve" smooth="yes"/>
      <point x="225.733" y="47.3405"/>
      <point x="429.914" y="518.948"/>
      <point x="453" y="574" type="curve"/>
      <point x="171" y="574" type="line" smooth="yes"/>
      <point x="85.6952" y="574"/>
      <point x="159.013" y="479"/>
      <point x="92.2567" y="479" type="curve" smooth="yes"/>
      <point x="64.1662" y="479"/>
      <point x="53" y="495.257"/>
      <point x="53" y="536.154" type="curve" smooth="yes"/>
      <point x="53" y="610.727"/>
      <point x="88.3221" y="646"/>
      <point x="163" y="646" type="curve" smooth="yes"/>
      <point x="503" y="646" type="line" smooth="yes"/>
      <point x="526.947" y="646"/>
      <point x="539" y="634.609"/>
      <point x="539" y="611.979" type="curve" smooth="yes"/>
      <point x="539" y="604.197"/>
      <point x="537.591" y="596.454"/>
      <point x="535" y="590" type="curve" smooth="yes"/>
      <point x="307" y="22" type="line" smooth="yes"/>
      <point x="298.523" y="0.882187"/>
      <point x="284.395" y="-10"/>
    </contour>
  </outline>
</glyph>
<glyph name="eight" format="1">
  <advance width="592"/>
  <unicode hex="0038"/>
  <outline>
    <contour>
      <point x="314" y="67" type="line" smooth="yes"/>
      <point x="412.393" y="67"/>
      <point x="476" y="63.7071"/>
      <point x="476" y="179.5" type="curve" smooth="yes"/>
      <point x="476" y="295.293"/>
      <point x="412.393" y="292"/>
      <point x="314" y="292" type="curve" smooth="yes"/>
      <point x="279" y="292" type="line" smooth="yes"/>
      <point x="180.967" y="292"/>
      <point x="116" y="295.327"/>
      <point x="116" y="178.98" type="curve" smooth="yes"/>
      <point x="116" y="63.2209"/>
      <point x="180.311" y="67"/>
      <point x="279" y="67" type="curve" smooth="yes"/>
    </contour>
    <contour>
      <point x="371.871" y="-5" type="curve" smooth="yes"/>
      <point x="113.738" y="-5"/>
      <point x="44" y="33.5375"/>
      <point x="44" y="176.183" type="curve" smooth="yes"/>
      <point x="44" y="244.813"/>
      <point x="63.3359" y="296.542"/>
      <point x="100" y="326" type="curve"/>
      <point x="63.1485" y="352.311"/>
      <point x="44" y="401.13"/>
      <point x="44" y="468.773" type="curve" smooth="yes"/>
      <point x="44" y="648.797"/>
      <point x="172.453" y="641"/>
      <point x="290.882" y="641" type="curve" smooth="yes"/>
      <point x="491.809" y="641"/>
      <point x="548" y="602.92"/>
      <point x="548" y="466.755" type="curve" smooth="yes"/>
      <point x="548" y="397.635"/>
      <point x="529.985" y="351.532"/>
      <point x="493" y="326" type="curve"/>
      <point x="528.894" y="295.98"/>
      <point x="548" y="243.65"/>
      <point x="548" y="175.36" type="curve" smooth="yes"/>
      <point x="548" y="-5.96007"/>
      <point x="419.266" y="-5"/>
    </contour>
    <contour>
      <point x="314" y="569" type="curve" smooth="yes"/>
      <point x="277" y="569" type="line" smooth="yes"/>
      <point x="183.176" y="569"/>
      <point x="116" y="582.91"/>
      <point x="116" y="456.499" type="curve" smooth="yes"/>
      <point x="116" y="394.916"/>
      <point x="137.207" y="372.607"/>
      <point x="201.931" y="366.103" type="curve" smooth="yes"/>
      <point x="233.006" y="362.98"/>
      <point x="273.865" y="364"/>
      <point x="298.963" y="364" type="curve" smooth="yes"/>
      <point x="360.345" y="364"/>
      <point x="410.436" y="357.897"/>
      <point x="440.95" y="377.157" type="curve" smooth="yes"/>
      <point x="463.942" y="391.669"/>
      <point x="476.001" y="423.492"/>
      <point x="476.001" y="469.655" type="curve" smooth="yes"/>
      <point x="476.001" y="485.117"/>
      <point x="475.326" y="497.359"/>
      <point x="474.012" y="505.735" type="curve" smooth="yes"/>
      <point x="462.299" y="580.39"/>
      <point x="368.129" y="569"/>
    </contour>
  </outline>
</glyph>
<glyph name="colon" format="1">
  <advance width="268"/>
  <unicode hex="003A"/>
  <outline>
    <contour>
      <point x="195" y="79.9998" type="curve" smooth="yes"/>
      <point x="195" y="51.1962"/>
      <point x="169.307" y="30.2353"/>
      <point x="134" y="30.2353" type="curve" smooth="yes"/>
      <point x="98.6932" y="30.2353"/>
      <point x="73" y="51.1962"/>
      <point x="73" y="79.9998" type="curve" smooth="yes"/>
      <point x="73" y="108.804"/>
      <point x="98.6931" y="129.765"/>
      <point x="134" y="129.765" type="curve" smooth="yes"/>
      <point x="169.307" y="129.765"/>
      <point x="195" y="108.804"/>
    </contour>
    <contour>
      <point x="195" y="433" type="curve" smooth="yes"/>
      <point x="195" y="404.196"/>
      <point x="169.307" y="383.235"/>
      <point x="134" y="383.235" type="curve" smooth="yes"/>
      <point x="98.6931" y="383.235"/>
      <point x="73" y="404.196"/>
      <point x="73" y="433" type="curve" smooth="yes"/>
      <point x="73" y="461.804"/>
      <point x="98.6933" y="482.765"/>
      <point x="134" y="482.765" type="curve" smooth="yes"/>
      <point x="169.307" y="482.765"/>
      <point x="195" y="461.804"/>
    </contour>
  </outline>
</glyph>
<glyph name="semicolon" format="1">
  <advance width="271"/>
  <unicode hex="003B"/>
  <outline>
    <contour>
      <point x="108.959" y="-44" type="curve" smooth="yes"/>
      <point x="90.5433" y="-44"/>
      <point x="80" y="-31.8498"/>
      <point x="80" y="-10.6279" type="curve" smooth="yes"/>
      <point x="80" y="18.0201"/>
      <point x="99.4724" y="68.7124"/>
      <point x="105.194" y="89.4528" type="curve" smooth="yes"/>
      <point x="112.477" y="115.854"/>
      <point x="124.947" y="127"/>
      <point x="147.2" y="127" type="curve" smooth="yes"/>
      <point x="173.341" y="127"/>
      <point x="191.783" y="113.673"/>
      <point x="191.783" y="94.7836" type="curve" smooth="yes"/>
      <point x="191.783" y="66.3246"/>
      <point x="156.734" y="8.27288"/>
      <point x="144.625" y="-16.8538" type="curve" smooth="yes"/>
      <point x="135.75" y="-35.2692"/>
      <point x="124.279" y="-44"/>
    </contour>
    <contour>
      <point x="195" y="433" type="curve" smooth="yes"/>
      <point x="195" y="404.196"/>
      <point x="169.307" y="383.235"/>
      <point x="134" y="383.235" type="curve" smooth="yes"/>
      <point x="98.6931" y="383.235"/>
      <point x="73" y="404.196"/>
      <point x="73" y="433" type="curve" smooth="yes"/>
      <point x="73" y="461.804"/>
      <point x="98.6933" y="482.765"/>
      <point x="134" y="482.765" type="curve" smooth="yes"/>
      <point x="169.307" y="482.765"/>
      <point x="195" y="461.804"/>
    </contour>
  </outline>
</glyph>
<glyph name="equal" format="1">
  <advance width="488"/>
  <unicode hex="003D"/>
  <outline>
    <contour>
      <point x="365" y="420" type="line" smooth="yes"/>
      <point x="393.458" y="420"/>
      <point x="409" y="407.769"/>
      <point x="409" y="385.375" type="curve" smooth="yes"/>
      <point x="409" y="362.424"/>
      <point x="391.315" y="347"/>
      <point x="365" y="347" type="curve" smooth="yes"/>
      <point x="120" y="347" type="line" smooth="yes"/>
      <point x="93.3145" y="347"/>
      <point x="79" y="359.102"/>
      <point x="79" y="381.664" type="curve" smooth="yes"/>
      <point x="79" y="405.04"/>
      <point x="94.9999" y="420"/>
      <point x="120" y="420" type="curve" smooth="yes"/>
    </contour>
    <contour>
      <point x="365" y="317" type="line" smooth="yes"/>
      <point x="393.458" y="317"/>
      <point x="409" y="304.769"/>
      <point x="409" y="282.375" type="curve" smooth="yes"/>
      <point x="409" y="259.424"/>
      <point x="391.315" y="244"/>
      <point x="365" y="244" type="curve" smooth="yes"/>
      <point x="120" y="244" type="line" smooth="yes"/>
      <point x="93.3145" y="244"/>
      <point x="79" y="256.102"/>
      <point x="79" y="278.664" type="curve" smooth="yes"/>
      <point x="79" y="302.04"/>
      <point x="94.9999" y="317"/>
      <point x="120" y="317" type="curve" smooth="yes"/>
    </contour>
  </outline>
</glyph>
<glyph name="A" format="1">
  <advance width="610"/>
  <unicode hex="0041"/>
  <outline>
    <contour>
      <point x="346" y="636" type="line"/>
      <point x="385.939" y="538.592"/>
      <point x="585.459" y="86.3409"/>
      <point x="585.459" y="20.4683" type="curve" smooth="yes"/>
      <point x="585.459" y="0.979002"/>
      <point x="568.972" y="-16"/>
      <point x="550.049" y="-16" type="curve" smooth="yes"/>
      <point x="534.534" y="-16"/>
      <point x="519.48" y="-4.62272"/>
      <point x="513" y="12" type="curve" smooth="yes"/>
      <point x="444" y="189" type="line"/>
      <point x="166" y="189" type="line"/>
      <point x="97" y="12" type="line" smooth="yes"/>
      <point x="90.5235" y="-4.61369"/>
      <point x="75.4536" y="-16"/>
      <point x="59.9418" y="-16" type="curve" smooth="yes"/>
      <point x="41.0253" y="-16"/>
      <point x="24.5415" y="0.981147"/>
      <point x="24.5415" y="20.4683" type="curve" smooth="yes"/>
      <point x="24.5415" y="86.3409"/>
      <point x="224.061" y="538.593"/>
      <point x="264" y="636" type="curve"/>
    </contour>
    <contour>
      <point x="195" y="261" type="line"/>
      <point x="415" y="261" type="line"/>
      <point x="304" y="532" type="line"/>
    </contour>
  </outline>
</glyph>
<glyph name="E" format="1">
  <advance width="636"/>
  <unicode hex="0045"/>
  <outline>
    <contour>
      <point x="156" y="322" type="line"/>
      <point x="156" y="72" type="line"/>
      <point x="544" y="72" type="line" smooth="yes"/>
      <point x="570.395" y="72"/>
      <point x="588" y="57.2591"/>
      <point x="588" y="35.1578" type="curve" smooth="yes"/>
      <point x="588" y="13.7476"/>
      <point x="570.795" y="-0"/>
      <point x="544" y="0" type="curve" smooth="yes"/>
      <point x="118" y="0" type="line" smooth="yes"/>
      <point x="97.4495" y="0"/>
      <point x="84" y="17.4052"/>
      <point x="84" y="44" type="curve" smooth="yes"/>
      <point x="84" y="592" type="line" smooth="yes"/>
      <point x="84" y="618.595"/>
      <point x="97.4495" y="636"/>
      <point x="118" y="636" type="curve" smooth="yes"/>
      <point x="544" y="636" type="line" smooth="yes"/>
      <point x="570.395" y="636"/>
      <point x="588" y="621.259"/>
      <point x="588" y="599.158" type="curve" smooth="yes"/>
      <point x="588" y="577.747"/>
      <point x="570.795" y="564"/>
      <point x="544" y="564" type="curve" smooth="yes"/>
      <point x="156" y="564" type="line"/>
      <point x="156" y="394" type="line"/>
      <point x="421" y="394" type="line" smooth="yes"/>
      <point x="451.377" y="394"/>
      <point x="471" y="379.748"/>
      <point x="471" y="357.685" type="curve" smooth="yes"/>
      <point x="471" y="336.072"/>
      <point x="451.282" y="322"/>
      <point x="421" y="322" type="curve" smooth="yes"/>
    </contour>
  </outline>
</glyph>
<glyph name="H" format="1">
  <advance width="672"/>
  <unicode hex="0048"/>
  <outline>
    <contour>
      <point x="120" y="-7" type="curve" smooth="yes"/>
      <point x="96.8711" y="-7"/>
      <point x="84" y="8.0163"/>
      <point x="84" y="35" type="curve" smooth="yes"/>
      <point x="84" y="600" type="line" smooth="yes"/>
      <point x="84" y="627.821"/>
      <point x="96.4524" y="643"/>
      <point x="119.276" y="643" type="curve" smooth="yes"/>
      <point x="142.679" y="643"/>
      <point x="156" y="627.403"/>
      <point x="156" y="600" type="curve" smooth="yes"/>
      <point x="156" y="379" type="line"/>
      <point x="516" y="379" type="line"/>
      <point x="516" y="600" type="line" smooth="yes"/>
      <point x="516" y="627.629"/>
      <point x="528.869" y="643"/>
      <point x="552" y="643" type="curve" smooth="yes"/>
      <point x="575.131" y="643"/>
      <point x="588" y="627.629"/>
      <point x="588" y="600" type="curve" smooth="yes"/>
      <point x="588" y="35" type="line" smooth="yes"/>
      <point x="588" y="8.0163"/>
      <point x="575.129" y="-7"/>
      <point x="552" y="-7" type="curve" smooth="yes"/>
      <point x="528.871" y="-7"/>
      <point x="516" y="8.0163"/>
      <point x="516" y="35" type="curve" smooth="yes"/>
      <point x="516" y="307" type="line"/>
      <point x="156" y="307" type="line"/>
      <point x="156" y="35" type="line" smooth="yes"/>
      <point x="156" y="8.0163"/>
      <point x="143.129" y="-7"/>
    </contour>
  </outline>
</glyph>
<glyph name="I" format="1">
  <advance width="240"/>
  <unicode hex="0049"/>
  <outline>
    <contour>
      <point x="156" y="33" type="line" smooth="yes"/>
      <point x="156" y="8.66091"/>
      <point x="141.905" y="-7"/>
      <point x="120" y="-7" type="curve" smooth="yes"/>
      <point x="98.0948" y="-7"/>
      <point x="84" y="8.66091"/>
      <point x="84" y="33" type="curve" smooth="yes"/>
      <point x="84" y="602" type="line" smooth="yes"/>
      <point x="84" y="626.985"/>
      <point x="98.0621" y="643"/>
      <point x="120" y="643" type="curve" smooth="yes"/>
      <point x="141.938" y="643"/>
      <point x="156" y="626.985"/>
      <point x="156" y="602" type="curve" smooth="yes"/>
    </contour>
  </outline>
</glyph>
<glyph name="K" format="1">
  <advance width="560"/>
  <unicode hex="004B"/>
  <outline>
    <contour>
      <point x="552.138" y="27.818" type="curve" smooth="yes"/>
      <point x="552.138" y="8.97918"/>
      <point x="537.005" y="-6.97156"/>
      <point x="519.133" y="-6.97156" type="curve" smooth="yes"/>
      <point x="508.065" y="-6.97156"/>
      <point x="497.13" y="-0.893495"/>
      <point x="485" y="12" type="curve" smooth="yes"/>
      <point x="199" y="316" type="line"/>
      <point x="156" y="264" type="line"/>
      <point x="156" y="35" type="line" smooth="yes"/>
      <point x="156" y="7.63355"/>
      <point x="143.364" y="-7"/>
      <point x="119.733" y="-7" type="curve" smooth="yes"/>
      <point x="96.5104" y="-7"/>
      <point x="84" y="7.00439"/>
      <point x="84" y="33" type="curve" smooth="yes"/>
      <point x="84" y="602" type="line" smooth="yes"/>
      <point x="84" y="628.413"/>
      <point x="96.2373" y="643"/>
      <point x="118.396" y="643" type="curve" smooth="yes"/>
      <point x="141.523" y="643"/>
      <point x="156" y="626.446"/>
      <point x="156" y="600" type="curve" smooth="yes"/>
      <point x="156" y="346" type="line"/>
      <point x="419" y="624" type="line" smooth="yes"/>
      <point x="431.054" y="636.741"/>
      <point x="442.683" y="643.081"/>
      <point x="453.999" y="643.081" type="curve" smooth="yes"/>
      <point x="471.619" y="643.081"/>
      <point x="485.85" y="627.559"/>
      <point x="485.85" y="608.339" type="curve" smooth="yes"/>
      <point x="485.85" y="598.17"/>
      <point x="481.75" y="587.841"/>
      <point x="475" y="581" type="curve" smooth="yes"/>
      <point x="251" y="354" type="line"/>
      <point x="541" y="55" type="line" smooth="yes"/>
      <point x="547.953" y="47.8308"/>
      <point x="552.138" y="37.6187"/>
    </contour>
  </outline>
</glyph>
<glyph name="L" format="1">
  <advance width="554"/>
  <unicode hex="004C"/>
  <outline>
    <contour>
      <point x="118" y="0" type="line" smooth="yes"/>
      <point x="96.0342" y="0"/>
      <point x="84" y="15.2197"/>
      <point x="84" y="43" type="curve" smooth="yes"/>
      <point x="84" y="603" type="line" smooth="yes"/>
      <point x="84" y="625.97"/>
      <point x="99.5077" y="643.353"/>
      <point x="120" y="643.353" type="curve" smooth="yes"/>
      <point x="140.492" y="643.353"/>
      <point x="156" y="625.97"/>
      <point x="156" y="603" type="curve" smooth="yes"/>
      <point x="156" y="72" type="line"/>
      <point x="489" y="72" type="line" smooth="yes"/>
      <point x="516.793" y="72"/>
      <point x="532" y="59.2688"/>
      <point x="532" y="36" type="curve" smooth="yes"/>
      <point x="532" y="12.7312"/>
      <point x="516.793" y="-0"/>
      <point x="489" y="0" type="curve" smooth="yes"/>
    </contour>
  </outline>
</glyph>
<glyph name="N" format="1">
  <advance width="672"/>
  <unicode hex="004E"/>
  <outline>
    <contour>
      <point x="544.15" y="-7.00301" type="curve" smooth="yes"/>
      <point x="541.934" y="-7.00301"/>
      <point x="530.048" y="-7.07249"/>
      <point x="525" y="0" type="curve" smooth="yes"/>
      <point x="156" y="517" type="line"/>
      <point x="156" y="32" type="line" smooth="yes"/>
      <point x="156" y="7.17076"/>
      <point x="143.041" y="-7"/>
      <point x="120.334" y="-7" type="curve" smooth="yes"/>
      <point x="97.0816" y="-7"/>
      <point x="84" y="8.12151"/>
      <point x="84" y="35" type="curve" smooth="yes"/>
      <point x="84" y="600" type="line" smooth="yes"/>
      <point x="84" y="627.233"/>
      <point x="95.8733" y="643"/>
      <point x="116.381" y="643" type="curve" smooth="yes"/>
      <point x="131.261" y="643"/>
      <point x="145.387" y="634.799"/>
      <point x="156" y="620" type="curve" smooth="yes"/>
      <point x="516" y="118" type="line"/>
      <point x="516" y="597" type="line" smooth="yes"/>
      <point x="516" y="626.465"/>
      <point x="529.053" y="643"/>
      <point x="552.313" y="643" type="curve" smooth="yes"/>
      <point x="575.07" y="643"/>
      <point x="588" y="627.42"/>
      <point x="588" y="600" type="curve" smooth="yes"/>
      <point x="588" y="35" type="line" smooth="yes"/>
      <point x="588" y="5.89349"/>
      <point x="574.536" y="-7.00301"/>
    </contour>
  </outline>
</glyph>
<glyph name="O" format="1">
  <advance width="632"/>
  <unicode hex="004F"/>
  <outline>
    <contour>
      <point x="64" y="230" type="curve" smooth="yes"/>
      <point x="64" y="406" type="line" smooth="yes"/>
      <point x="64" y="549.258"/>
      <point x="164.554" y="645"/>
      <point x="315.012" y="645" type="curve" smooth="yes"/>
      <point x="466.038" y="645"/>
      <point x="568" y="548.676"/>
      <point x="568" y="406" type="curve" smooth="yes"/>
      <point x="568" y="230" type="line" smooth="yes"/>
      <point x="568" y="87.3244"/>
      <point x="466.038" y="-9"/>
      <point x="315.012" y="-9" type="curve" smooth="yes"/>
      <point x="164.554" y="-9"/>
      <point x="64" y="86.7419"/>
    </contour>
    <contour>
      <point x="136" y="403" type="curve" smooth="yes"/>
      <point x="136" y="233" type="line" smooth="yes"/>
      <point x="136" y="126.348"/>
      <point x="203.074" y="63"/>
      <point x="316" y="63" type="curve" smooth="yes"/>
      <point x="428.926" y="63"/>
      <point x="496" y="126.348"/>
      <point x="496" y="233" type="curve" smooth="yes"/>
      <point x="496" y="403" type="line" smooth="yes"/>
      <point x="496" y="509.629"/>
      <point x="428.902" y="573"/>
      <point x="316" y="573" type="curve" smooth="yes"/>
      <point x="203.098" y="573"/>
      <point x="136" y="509.629"/>
    </contour>
  </outline>
</glyph>
<glyph name="P" format="1">
  <advance width="580"/>
  <unicode hex="0050"/>
  <outline>
    <contour>
      <point x="120" y="-7" type="curve" smooth="yes"/>
      <point x="96.7126" y="-7"/>
      <point x="84" y="7.1251"/>
      <point x="84" y="33" type="curve" smooth="yes"/>
      <point x="84" y="597" type="line" smooth="yes"/>
      <point x="84" y="625.427"/>
      <point x="96.0338" y="641"/>
      <point x="118" y="641" type="curve" smooth="yes"/>
      <point x="309" y="641" type="line" smooth="yes"/>
      <point x="471.645" y="641"/>
      <point x="546" y="591.624"/>
      <point x="546" y="483.617" type="curve" smooth="yes"/>
      <point x="546" y="380.144"/>
      <point x="478.005" y="322"/>
      <point x="357" y="322" type="curve" smooth="yes"/>
      <point x="156" y="322" type="line"/>
      <point x="156" y="33" type="line" smooth="yes"/>
      <point x="156" y="7.1251"/>
      <point x="143.287" y="-7"/>
    </contour>
    <contour>
      <point x="338.598" y="393.868" type="line"/>
      <point x="434.114" y="393.868"/>
      <point x="474" y="419.827"/>
      <point x="474" y="481.989" type="curve" smooth="yes"/>
      <point x="474" y="543.482"/>
      <point x="435.008" y="569.178"/>
      <point x="341.695" y="569.178" type="curve"/>
      <point x="156" y="569" type="line"/>
      <point x="156" y="394" type="line"/>
    </contour>
  </outline>
</glyph>
<glyph name="Q" format="1">
  <advance width="632"/>
  <unicode hex="0051"/>
  <outline>
    <contour>
      <point x="136" y="403" type="curve" smooth="yes"/>
      <point x="136" y="233" type="line" smooth="yes"/>
      <point x="136" y="122.824"/>
      <point x="199.852" y="63"/>
      <point x="317.448" y="63" type="curve" smooth="yes"/>
      <point x="356.242" y="63"/>
      <point x="389.448" y="69.7387"/>
      <point x="416" y="83" type="curve"/>
      <point x="399.352" y="96.93"/>
      <point x="348.947" y="129.31"/>
      <point x="348.947" y="156.514" type="curve" smooth="yes"/>
      <point x="348.947" y="173.007"/>
      <point x="367.085" y="189.041"/>
      <point x="385.743" y="189.041" type="curve" smooth="yes"/>
      <point x="415.781" y="189.041"/>
      <point x="450.171" y="148.342"/>
      <point x="470" y="130" type="curve"/>
      <point x="487.153" y="157.718"/>
      <point x="496" y="192.764"/>
      <point x="496" y="233" type="curve" smooth="yes"/>
      <point x="496" y="403" type="line" smooth="yes"/>
      <point x="496" y="512.889"/>
      <point x="432.353" y="573"/>
      <point x="316" y="573" type="curve" smooth="yes"/>
      <point x="199.647" y="573"/>
      <point x="136" y="512.889"/>
    </contour>
    <contour>
      <point x="319.207" y="-9" type="curve" smooth="yes"/>
      <point x="162.003" y="-9"/>
      <point x="64" y="82.7788"/>
      <point x="64" y="230" type="curve" smooth="yes"/>
      <point x="64" y="406" type="line" smooth="yes"/>
      <point x="64" y="552.479"/>
      <point x="161.309" y="645"/>
      <point x="315.368" y="645" type="curve" smooth="yes"/>
      <point x="469.758" y="645"/>
      <point x="568" y="552.059"/>
      <point x="568" y="406" type="curve" smooth="yes"/>
      <point x="568" y="230" type="line" smooth="yes"/>
      <point x="568" y="169.618"/>
      <point x="552.535" y="117.725"/>
      <point x="523" y="79" type="curve"/>
      <point x="538.911" y="65.4744"/>
      <point x="564.043" y="46.1649"/>
      <point x="564.043" y="22.8878" type="curve" smooth="yes"/>
      <point x="564.043" y="3.99169"/>
      <point x="547.104" y="-12.6901"/>
      <point x="527.916" y="-12.6901" type="curve" smooth="yes"/>
      <point x="504.471" y="-12.6901"/>
      <point x="484.208" y="12.7925"/>
      <point x="470" y="28" type="curve"/>
      <point x="429.404" y="3.78692"/>
      <point x="377.291" y="-9"/>
    </contour>
  </outline>
</glyph>
<glyph name="R" format="1">
  <advance width="609"/>
  <unicode hex="0052"/>
  <outline>
    <contour>
      <point x="438" y="336" type="curve"/>
      <point x="483.192" y="279.474"/>
      <point x="554.016" y="98.0661"/>
      <point x="554.016" y="38.8386" type="curve" smooth="yes"/>
      <point x="554.016" y="11.8284"/>
      <point x="538.678" y="-7.51171"/>
      <point x="517.257" y="-7.51171" type="curve" smooth="yes"/>
      <point x="508.651" y="-7.51171"/>
      <point x="499.434" y="-3.73907"/>
      <point x="494.836" y="1.66571" type="curve" smooth="yes"/>
      <point x="482.922" y="15.6714"/>
      <point x="472.002" y="81.8941"/>
      <point x="464.832" y="110.731" type="curve" smooth="yes"/>
      <point x="444.81" y="191.258"/>
      <point x="387.493" y="289.842"/>
      <point x="342" y="322" type="curve"/>
      <point x="156" y="322" type="line"/>
      <point x="156" y="33" type="line" smooth="yes"/>
      <point x="156" y="7.12757"/>
      <point x="143.285" y="-7"/>
      <point x="120" y="-7" type="curve" smooth="yes"/>
      <point x="96.7148" y="-7"/>
      <point x="84" y="7.12757"/>
      <point x="84" y="33" type="curve" smooth="yes"/>
      <point x="84" y="602" type="line" smooth="yes"/>
      <point x="84" y="630.424"/>
      <point x="96.0358" y="646"/>
      <point x="118" y="646" type="curve" smooth="yes"/>
      <point x="306" y="646" type="line" smooth="yes"/>
      <point x="474.437" y="646"/>
      <point x="546" y="598.672"/>
      <point x="546" y="487.277" type="curve" smooth="yes"/>
      <point x="546" y="407.742"/>
      <point x="509.232" y="356.241"/>
    </contour>
    <contour>
      <point x="156" y="569" type="line"/>
      <point x="156" y="394" type="line"/>
      <point x="338.298" y="393.832" type="line"/>
      <point x="433.71" y="393.832"/>
      <point x="474" y="419.786"/>
      <point x="474" y="481.247" type="curve" smooth="yes"/>
      <point x="474" y="542.844"/>
      <point x="433.249" y="569.166"/>
      <point x="337.889" y="569.166" type="curve"/>
    </contour>
  </outline>
</glyph>
<glyph name="T" format="1">
  <advance width="520"/>
  <unicode hex="0054"/>
  <outline>
    <contour>
      <point x="450" y="636" type="line" smooth="yes"/>
      <point x="477.471" y="636"/>
      <point x="493" y="622.999"/>
      <point x="493" y="600" type="curve" smooth="yes"/>
      <point x="493" y="577.001"/>
      <point x="477.471" y="564"/>
      <point x="450" y="564" type="curve" smooth="yes"/>
      <point x="302" y="564" type="line"/>
      <point x="302" y="33" type="line" smooth="yes"/>
      <point x="302" y="10.4256"/>
      <point x="283.381" y="-7.53214"/>
      <point x="259.974" y="-7.53214" type="curve" smooth="yes"/>
      <point x="236.899" y="-7.53214"/>
      <point x="219" y="10.1738"/>
      <point x="219" y="33" type="curve" smooth="yes"/>
      <point x="219" y="564" type="line"/>
      <point x="69" y="564" type="line" smooth="yes"/>
      <point x="44.431" y="564"/>
      <point x="25.4706" y="579.681"/>
      <point x="25.4706" y="600" type="curve" smooth="yes"/>
      <point x="25.4706" y="620.319"/>
      <point x="44.431" y="636"/>
      <point x="69" y="636" type="curve" smooth="yes"/>
    </contour>
  </outline>
</glyph>
<glyph name="V" format="1">
  <advance width="610"/>
  <unicode hex="0056"/>
  <outline>
    <contour>
      <point x="550.598" y="652" type="curve" smooth="yes"/>
      <point x="567.767" y="652"/>
      <point x="585.459" y="639.009"/>
      <point x="585.459" y="626.401" type="curve" smooth="yes"/>
      <point x="585.459" y="588.713"/>
      <point x="370.034" y="60.7449"/>
      <point x="346" y="0" type="curve"/>
      <point x="264" y="0" type="line"/>
      <point x="239.966" y="60.7447"/>
      <point x="24.5415" y="588.713"/>
      <point x="24.5415" y="626.401" type="curve" smooth="yes"/>
      <point x="24.5415" y="639.098"/>
      <point x="42.441" y="652"/>
      <point x="60.0561" y="652" type="curve" smooth="yes"/>
      <point x="76.9939" y="652"/>
      <point x="89.5802" y="642.461"/>
      <point x="97" y="624" type="curve" smooth="yes"/>
      <point x="306" y="104" type="line"/>
      <point x="513" y="624" type="line" smooth="yes"/>
      <point x="520.098" y="641.832"/>
      <point x="533.752" y="652"/>
    </contour>
  </outline>
</glyph>
<glyph name="W" format="1">
  <advance width="955"/>
  <unicode hex="0057"/>
  <outline>
    <contour>
      <point x="694" y="96" type="line"/>
      <point x="856" y="621" type="line" smooth="yes"/>
      <point x="861.546" y="638.974"/>
      <point x="875.805" y="649"/>
      <point x="895.82" y="649" type="curve" smooth="yes"/>
      <point x="916.057" y="649"/>
      <point x="928" y="638.654"/>
      <point x="928" y="621.124" type="curve" smooth="yes"/>
      <point x="928" y="555.919"/>
      <point x="762.594" y="99.6568"/>
      <point x="730" y="0" type="curve"/>
      <point x="656" y="0" type="line"/>
      <point x="477" y="531" type="line"/>
      <point x="299" y="0" type="line"/>
      <point x="226" y="0" type="line"/>
      <point x="195.132" y="94.8797"/>
      <point x="27" y="570.067"/>
      <point x="27" y="627.998" type="curve" smooth="yes"/>
      <point x="27" y="643.351"/>
      <point x="38.9061" y="653"/>
      <point x="57.8497" y="653" type="curve" smooth="yes"/>
      <point x="77.932" y="653"/>
      <point x="93.6312" y="642.318"/>
      <point x="99" y="625" type="curve" smooth="yes"/>
      <point x="263" y="96" type="line"/>
      <point x="436" y="620" type="line" smooth="yes"/>
      <point x="442.138" y="638.592"/>
      <point x="459.647" y="652.001"/>
      <point x="477.785" y="652.001" type="curve" smooth="yes"/>
      <point x="496.027" y="652.001"/>
      <point x="513.588" y="638.273"/>
      <point x="520" y="619" type="curve" smooth="yes"/>
    </contour>
  </outline>
</glyph>
<glyph name="asciicircum" format="1">
  <advance width="443"/>
  <unicode hex="005E"/>
  <outline>
    <contour>
      <point x="103.664" y="350" type="curve" smooth="yes"/>
      <point x="86.2843" y="350"/>
      <point x="70.4379" y="363.089"/>
      <point x="70.4379" y="377.444" type="curve" smooth="yes"/>
      <point x="70.4379" y="408.338"/>
      <point x="170.98" y="617.799"/>
      <point x="186" y="651" type="curve"/>
      <point x="258" y="651" type="line"/>
      <point x="274.972" y="613.151"/>
      <point x="373.147" y="410.375"/>
      <point x="373.147" y="376.365" type="curve" smooth="yes"/>
      <point x="373.147" y="362.28"/>
      <point x="358.377" y="349.709"/>
      <point x="341.826" y="349.709" type="curve" smooth="yes"/>
      <point x="325.271" y="349.709"/>
      <point x="307.874" y="361.339"/>
      <point x="301" y="377" type="curve" smooth="yes"/>
      <point x="222" y="557" type="line"/>
      <point x="141" y="377" type="line" smooth="yes"/>
      <point x="133.059" y="359.354"/>
      <point x="120.125" y="350"/>
    </contour>
  </outline>
</glyph>
<glyph name="g" format="1">
  <advance width="670"/>
  <unicode hex="0067"/>
  <outline>
    <contour>
      <point x="595" y="-77" type="line" smooth="yes"/>
      <point x="595" y="-170.542"/>
      <point x="567.811" y="-205"/>
      <point x="494" y="-205" type="curve" smooth="yes"/>
      <point x="171" y="-205" type="line" smooth="yes"/>
      <point x="98.4222" y="-205"/>
      <point x="61" y="-167.673"/>
      <point x="61" y="-95.2806" type="curve" smooth="yes"/>
      <point x="61" y="-55.9058"/>
      <point x="73.7697" y="-38"/>
      <point x="101.85" y="-38" type="curve" smooth="yes"/>
      <point x="166.567" y="-38"/>
      <point x="95.1961" y="-133"/>
      <point x="178" y="-133" type="curve" smooth="yes"/>
      <point x="487" y="-133" type="line" smooth="yes"/>
      <point x="516.393" y="-133"/>
      <point x="523" y="-125.659"/>
      <point x="523" y="-93" type="curve" smooth="yes"/>
      <point x="523" y="0" type="line"/>
      <point x="311" y="0" type="line" smooth="yes"/>
      <point x="128.738" y="0"/>
      <point x="61" y="48.2291"/>
      <point x="61" y="178" type="curve" smooth="yes"/>
      <point x="61" y="283" type="line" smooth="yes"/>
      <point x="61" y="401.775"/>
      <point x="129.015" y="461.001"/>
      <point x="265.415" y="461.001" type="curve" smooth="yes"/>
      <point x="415.654" y="461.001"/>
      <point x="474.991" y="449.483"/>
      <point x="523" y="411" type="curve"/>
      <point x="522.945" y="416.706" type="line"/>
      <point x="522.945" y="451.743"/>
      <point x="534.298" y="468"/>
      <point x="558.765" y="468" type="curve" smooth="yes"/>
      <point x="582.095" y="468"/>
      <point x="595" y="453.043"/>
      <point x="595" y="426" type="curve" smooth="yes"/>
    </contour>
    <contour>
      <point x="523" y="72" type="line"/>
      <point x="523" y="233" type="line" smooth="yes"/>
      <point x="523" y="348.243"/>
      <point x="462.228" y="389.31"/>
      <point x="291.688" y="389.31" type="curve" smooth="yes"/>
      <point x="166.416" y="389.31"/>
      <point x="133" y="366.292"/>
      <point x="133" y="280" type="curve" smooth="yes"/>
      <point x="133" y="181" type="line" smooth="yes"/>
      <point x="133" y="98.8655"/>
      <point x="166.576" y="71.7599"/>
      <point x="268.316" y="71.7599" type="curve"/>
    </contour>
  </outline>
</glyph>
<glyph name="i" format="1">
  <advance width="218"/>
  <unicode hex="0069"/>
  <outline>
    <contour>
      <point x="73" y="440" type="line" smooth="yes"/>
      <point x="73" y="464.963"/>
      <point x="88.3552" y="483.529"/>
      <point x="109" y="483.529" type="curve" smooth="yes"/>
      <point x="129.645" y="483.529"/>
      <point x="145" y="464.963"/>
      <point x="145" y="440" type="curve" smooth="yes"/>
      <point x="145" y="20" type="line" smooth="yes"/>
      <point x="145" y="-7.0734"/>
      <point x="132.404" y="-22"/>
      <point x="109.557" y="-22" type="curve" smooth="yes"/>
      <point x="86.5737" y="-22"/>
      <point x="73" y="-6.40525"/>
      <point x="73" y="20" type="curve" smooth="yes"/>
    </contour>
    <contour>
      <point x="110.583" y="548.972" type="curve" smooth="yes"/>
      <point x="79.9442" y="548.972"/>
      <point x="47.8192" y="576.233"/>
      <point x="47.8192" y="602.232" type="curve" smooth="yes"/>
      <point x="47.8192" y="627.684"/>
      <point x="76.8172" y="653.028"/>
      <point x="105.939" y="653.028" type="curve" smooth="yes"/>
      <point x="137.255" y="653.028"/>
      <point x="170.271" y="626.132"/>
      <point x="170.271" y="600.621" type="curve" smooth="yes"/>
      <point x="170.271" y="575.375"/>
      <point x="139.759" y="548.972"/>
    </contour>
  </outline>
</glyph>
<glyph name="j" format="1">
  <advance width="222"/>
  <unicode hex="006A"/>
  <outline>
    <contour>
      <point x="112.641" y="548.972" type="curve" smooth="yes"/>
      <point x="82.1486" y="548.972"/>
      <point x="49.8192" y="576.353"/>
      <point x="49.8192" y="602.178" type="curve" smooth="yes"/>
      <point x="49.8192" y="627.469"/>
      <point x="79.0468" y="653.028"/>
      <point x="107.969" y="653.028" type="curve" smooth="yes"/>
      <point x="139.073" y="653.028"/>
      <point x="172.271" y="625.939"/>
      <point x="172.271" y="600.558" type="curve" smooth="yes"/>
      <point x="172.271" y="575.452"/>
      <point x="141.662" y="548.972"/>
    </contour>
    <contour>
      <point x="147" y="0" type="line" smooth="yes"/>
      <point x="147" y="-121.791"/>
      <point x="89.7186" y="-175"/>
      <point x="-41.3938" y="-175" type="curve" smooth="yes"/>
      <point x="-102.248" y="-175"/>
      <point x="-122" y="-166.136"/>
      <point x="-122" y="-138.827" type="curve" smooth="yes"/>
      <point x="-122" y="-92.1777"/>
      <point x="-62.5138" y="-102.321"/>
      <point x="-22.0674" y="-102.321" type="curve" smooth="yes"/>
      <point x="46.358" y="-102.321"/>
      <point x="75" y="-72.1285"/>
      <point x="75" y="0" type="curve" smooth="yes"/>
      <point x="75" y="422" type="line" smooth="yes"/>
      <point x="75" y="452.037"/>
      <point x="87.4926" y="468"/>
      <point x="111" y="468" type="curve" smooth="yes"/>
      <point x="134.507" y="468"/>
      <point x="147" y="452.037"/>
      <point x="147" y="422" type="curve" smooth="yes"/>
    </contour>
  </outline>
</glyph>
<glyph name="l" format="1">
  <advance width="294"/>
  <unicode hex="006C"/>
  <outline>
    <contour>
      <point x="200.768" y="-0" type="curve" smooth="yes"/>
      <point x="120.684" y="-0"/>
      <point x="91" y="35.9662"/>
      <point x="91" y="133" type="curve" smooth="yes"/>
      <point x="91" y="598" type="line" smooth="yes"/>
      <point x="91" y="627.076"/>
      <point x="103.739" y="643"/>
      <point x="127" y="643" type="curve" smooth="yes"/>
      <point x="150.261" y="643"/>
      <point x="163" y="627.076"/>
      <point x="163" y="598" type="curve" smooth="yes"/>
      <point x="163" y="118" type="line" smooth="yes"/>
      <point x="163" y="33.1264"/>
      <point x="253" y="104.617"/>
      <point x="253" y="39.2922" type="curve" smooth="yes"/>
      <point x="253" y="11.8785"/>
      <point x="237.21" y="-0"/>
    </contour>
  </outline>
</glyph>
<glyph name="m" format="1">
  <advance width="869"/>
  <unicode hex="006D"/>
  <outline>
    <contour>
      <point x="110" y="-7" type="curve" smooth="yes"/>
      <point x="86.4219" y="-7"/>
      <point x="74" y="7.49226"/>
      <point x="74" y="35" type="curve" smooth="yes"/>
      <point x="74" y="425" type="line" smooth="yes"/>
      <point x="74" y="453.324"/>
      <point x="86.195" y="468"/>
      <point x="109.73" y="468" type="curve" smooth="yes"/>
      <point x="135.23" y="468"/>
      <point x="146.427" y="451.329"/>
      <point x="146" y="414" type="curve"/>
      <point x="178.892" y="446.924"/>
      <point x="222.132" y="461"/>
      <point x="290.377" y="461" type="curve" smooth="yes"/>
      <point x="366.673" y="461"/>
      <point x="424.681" y="435.198"/>
      <point x="450" y="390" type="curve"/>
      <point x="489.127" y="438.785"/>
      <point x="543.772" y="461"/>
      <point x="624.652" y="461" type="curve" smooth="yes"/>
      <point x="746.535" y="461"/>
      <point x="799" y="407.436"/>
      <point x="799" y="283" type="curve" smooth="yes"/>
      <point x="799" y="35" type="line" smooth="yes"/>
      <point x="799" y="7.49226"/>
      <point x="786.578" y="-7"/>
      <point x="763" y="-7" type="curve" smooth="yes"/>
      <point x="739.422" y="-7"/>
      <point x="727" y="7.49226"/>
      <point x="727" y="35" type="curve" smooth="yes"/>
      <point x="727" y="280" type="line" smooth="yes"/>
      <point x="727" y="365.285"/>
      <point x="708.253" y="389"/>
      <point x="640.832" y="389" type="curve" smooth="yes"/>
      <point x="526.589" y="389"/>
      <point x="473" y="337.911"/>
      <point x="473" y="229" type="curve" smooth="yes"/>
      <point x="473" y="35" type="line" smooth="yes"/>
      <point x="473" y="7.47385"/>
      <point x="460.249" y="-7"/>
      <point x="436" y="-7" type="curve" smooth="yes"/>
      <point x="411.751" y="-7"/>
      <point x="399" y="7.47385"/>
      <point x="399" y="35" type="curve" smooth="yes"/>
      <point x="399" y="280" type="line" smooth="yes"/>
      <point x="399" y="363.826"/>
      <point x="378.527" y="389"/>
      <point x="310.356" y="389" type="curve" smooth="yes"/>
      <point x="196.738" y="389"/>
      <point x="146" y="339.607"/>
      <point x="146" y="229" type="curve" smooth="yes"/>
      <point x="146" y="35" type="line" smooth="yes"/>
      <point x="146" y="7.49226"/>
      <point x="133.578" y="-7"/>
    </contour>
  </outline>
</glyph>
<glyph name="n" format="1">
  <advance width="678"/>
  <unicode hex="006E"/>
  <outline>
    <contour>
      <point x="110" y="-7" type="curve" smooth="yes"/>
      <point x="86.8634" y="-7"/>
      <point x="74" y="8.0073"/>
      <point x="74" y="35" type="curve" smooth="yes"/>
      <point x="74" y="425" type="line" smooth="yes"/>
      <point x="74" y="452.829"/>
      <point x="86.4531" y="468"/>
      <point x="109.296" y="468" type="curve" smooth="yes"/>
      <point x="135.242" y="468"/>
      <point x="148.061" y="448.093"/>
      <point x="146" y="411" type="curve"/>
      <point x="189.85" y="446.229"/>
      <point x="249.845" y="461"/>
      <point x="349.09" y="461" type="curve" smooth="yes"/>
      <point x="539.939" y="461"/>
      <point x="608" y="414.208"/>
      <point x="608" y="283" type="curve" smooth="yes"/>
      <point x="608" y="35" type="line" smooth="yes"/>
      <point x="608" y="8.0073"/>
      <point x="595.137" y="-7"/>
      <point x="572" y="-7" type="curve" smooth="yes"/>
      <point x="548.863" y="-7"/>
      <point x="536" y="8.0073"/>
      <point x="536" y="35" type="curve" smooth="yes"/>
      <point x="536" y="280" type="line" smooth="yes"/>
      <point x="536" y="373.734"/>
      <point x="499.668" y="389.307"/>
      <point x="280.977" y="389.307" type="curve" smooth="yes"/>
      <point x="205.809" y="389.307"/>
      <point x="146" y="318.274"/>
      <point x="146" y="229" type="curve" smooth="yes"/>
      <point x="146" y="35" type="line" smooth="yes"/>
      <point x="146" y="8.0073"/>
      <point x="133.137" y="-7"/>
    </contour>
  </outline>
</glyph>
<glyph name="q" format="1">
  <advance width="670"/>
  <unicode hex="0071"/>
  <outline>
    <contour>
      <point x="133" y="280" type="curve" smooth="yes"/>
      <point x="133" y="181" type="line" smooth="yes"/>
      <point x="133" y="61.4163"/>
      <point x="213.382" y="72"/>
      <point x="311" y="72" type="curve" smooth="yes"/>
      <point x="523" y="72" type="line"/>
      <point x="523" y="232" type="line" smooth="yes"/>
      <point x="523" y="344.407"/>
      <point x="462.119" y="389"/>
      <point x="308.654" y="389" type="curve" smooth="yes"/>
      <point x="242.79" y="389"/>
      <point x="185.694" y="381.152"/>
      <point x="165.488" y="369.322" type="curve" smooth="yes"/>
      <point x="143.875" y="356.668"/>
      <point x="133" y="326.769"/>
    </contour>
    <contour>
      <point x="61" y="178" type="curve" smooth="yes"/>
      <point x="61" y="283" type="line" smooth="yes"/>
      <point x="61" y="463.579"/>
      <point x="200.06" y="461"/>
      <point x="270.859" y="461" type="curve" smooth="yes"/>
      <point x="416.101" y="461"/>
      <point x="477.607" y="448.803"/>
      <point x="523" y="411" type="curve"/>
      <point x="523" y="452.431"/>
      <point x="532.763" y="468"/>
      <point x="558.743" y="468" type="curve" smooth="yes"/>
      <point x="582.693" y="468"/>
      <point x="595" y="453.744"/>
      <point x="595" y="426" type="curve" smooth="yes"/>
      <point x="595" y="-137" type="line" smooth="yes"/>
      <point x="595" y="-166.505"/>
      <point x="583.3" y="-182"/>
      <point x="561.021" y="-182" type="curve" smooth="yes"/>
      <point x="537.592" y="-182"/>
      <point x="523" y="-164.729"/>
      <point x="523" y="-137" type="curve" smooth="yes"/>
      <point x="523" y="0" type="line"/>
      <point x="311" y="0" type="line" smooth="yes"/>
      <point x="127.663" y="0"/>
      <point x="61" y="47.4643"/>
    </contour>
  </outline>
</glyph>
<glyph name="r" format="1">
  <advance width="406"/>
  <unicode hex="0072"/>
  <outline>
    <contour>
      <point x="110" y="-7" type="curve" smooth="yes"/>
      <point x="86.7275" y="-7"/>
      <point x="74" y="7.84869"/>
      <point x="74" y="35" type="curve" smooth="yes"/>
      <point x="74" y="425" type="line" smooth="yes"/>
      <point x="74" y="453.031"/>
      <point x="86.4528" y="468"/>
      <point x="109.771" y="468" type="curve" smooth="yes"/>
      <point x="135.471" y="468"/>
      <point x="146.608" y="450.478"/>
      <point x="146" y="411" type="curve"/>
      <point x="184.734" y="443.255"/>
      <point x="238.325" y="461"/>
      <point x="297" y="461" type="curve" smooth="yes"/>
      <point x="343" y="461" type="line" smooth="yes"/>
      <point x="372.076" y="461"/>
      <point x="388" y="448.26"/>
      <point x="388" y="425" type="curve" smooth="yes"/>
      <point x="388" y="401.74"/>
      <point x="372.076" y="389"/>
      <point x="343" y="389" type="curve" smooth="yes"/>
      <point x="297" y="389" type="line" smooth="yes"/>
      <point x="199.653" y="389"/>
      <point x="146" y="332.149"/>
      <point x="146" y="229" type="curve" smooth="yes"/>
      <point x="146" y="35" type="line" smooth="yes"/>
      <point x="146" y="7.84869"/>
      <point x="133.273" y="-7"/>
    </contour>
  </outline>
</glyph>
<glyph name="s" format="1">
  <advance width="625"/>
  <unicode hex="0073"/>
  <outline>
    <contour>
      <point x="170" y="0" type="line" smooth="yes"/>
      <point x="97.9231" y="0"/>
      <point x="60" y="36.4084"/>
      <point x="60" y="105.606" type="curve" smooth="yes"/>
      <point x="60" y="145.973"/>
      <point x="72.8951" y="167.606"/>
      <point x="96" y="166" type="curve"/>
      <point x="97" y="167" type="line"/>
      <point x="162.381" y="171.88"/>
      <point x="95.8131" y="72"/>
      <point x="177" y="72" type="curve" smooth="yes"/>
      <point x="445" y="72" type="line" smooth="yes"/>
      <point x="475.712" y="72"/>
      <point x="494" y="93.5596"/>
      <point x="494" y="129.765" type="curve" smooth="yes"/>
      <point x="494" y="170.354"/>
      <point x="473.317" y="200"/>
      <point x="445" y="200" type="curve" smooth="yes"/>
      <point x="199" y="200" type="line" smooth="yes"/>
      <point x="110.848" y="200"/>
      <point x="60" y="248.847"/>
      <point x="60" y="333.529" type="curve" smooth="yes"/>
      <point x="60" y="420.335"/>
      <point x="113.913" y="461"/>
      <point x="229" y="461" type="curve" smooth="yes"/>
      <point x="454" y="461" type="line" smooth="yes"/>
      <point x="526.403" y="461"/>
      <point x="564" y="423.637"/>
      <point x="564" y="351.686" type="curve" smooth="yes"/>
      <point x="564" y="312.333"/>
      <point x="551.391" y="294"/>
      <point x="524.324" y="294" type="curve" smooth="yes"/>
      <point x="462.484" y="294"/>
      <point x="526.596" y="389"/>
      <point x="447" y="389" type="curve" smooth="yes"/>
      <point x="181" y="389" type="line" smooth="yes"/>
      <point x="150.03" y="389"/>
      <point x="132" y="369.005"/>
      <point x="132" y="334.66" type="curve" smooth="yes"/>
      <point x="132" y="297.393"/>
      <point x="151.857" y="272"/>
      <point x="181" y="272" type="curve" smooth="yes"/>
      <point x="428" y="272" type="line" smooth="yes"/>
      <point x="515.467" y="272"/>
      <point x="566" y="221.323"/>
      <point x="566" y="133.608" type="curve" smooth="yes"/>
      <point x="566" y="43.536"/>
      <point x="511.257" y="-0"/>
      <point x="398" y="0" type="curve" smooth="yes"/>
    </contour>
  </outline>
</glyph>
<glyph name="u" format="1">
  <advance width="678"/>
  <unicode hex="0075"/>
  <outline>
    <contour>
      <point x="568" y="468" type="curve" smooth="yes"/>
      <point x="590.291" y="468"/>
      <point x="604" y="452.006"/>
      <point x="604" y="426" type="curve" smooth="yes"/>
      <point x="604" y="36" type="line" smooth="yes"/>
      <point x="604" y="9.04036"/>
      <point x="590.889" y="-7"/>
      <point x="568.854" y="-7" type="curve" smooth="yes"/>
      <point x="543.534" y="-7"/>
      <point x="529.362" y="14.9195"/>
      <point x="532" y="50" type="curve"/>
      <point x="488.024" y="14.8869"/>
      <point x="427.584" y="-0"/>
      <point x="329.003" y="-0" type="curve" smooth="yes"/>
      <point x="139.299" y="-0"/>
      <point x="70" y="47.6255"/>
      <point x="70" y="178" type="curve" smooth="yes"/>
      <point x="70" y="426" type="line" smooth="yes"/>
      <point x="70" y="452.006"/>
      <point x="83.709" y="468"/>
      <point x="106" y="468" type="curve" smooth="yes"/>
      <point x="128.291" y="468"/>
      <point x="142" y="452.006"/>
      <point x="142" y="426" type="curve" smooth="yes"/>
      <point x="142" y="181" type="line" smooth="yes"/>
      <point x="142" y="90.713"/>
      <point x="178.649" y="71.6936"/>
      <point x="352.627" y="71.6936" type="curve" smooth="yes"/>
      <point x="471.309" y="71.6936"/>
      <point x="532" y="125.933"/>
      <point x="532" y="232" type="curve" smooth="yes"/>
      <point x="532" y="426" type="line" smooth="yes"/>
      <point x="532" y="452.006"/>
      <point x="545.709" y="468"/>
    </contour>
  </outline>
</glyph>
<glyph name="x" format="1">
  <advance width="558"/>
  <unicode hex="0078"/>
  <outline>
    <contour>
      <point x="515.15" y="23.6381" type="curve" smooth="yes"/>
      <point x="515.15" y="5.11448"/>
      <point x="496.895" y="-11.3165"/>
      <point x="476.316" y="-11.3165" type="curve" smooth="yes"/>
      <point x="465.656" y="-11.3165"/>
      <point x="454.959" y="-6.66364"/>
      <point x="448" y="1" type="curve" smooth="yes"/>
      <point x="280" y="186" type="line"/>
      <point x="111" y="1" type="line" smooth="yes"/>
      <point x="103.877" y="-6.79781"/>
      <point x="93.0239" y="-11.5175"/>
      <point x="82.2167" y="-11.5175" type="curve" smooth="yes"/>
      <point x="61.3784" y="-11.5175"/>
      <point x="42.8858" y="5.02975"/>
      <point x="42.8858" y="23.6759" type="curve" smooth="yes"/>
      <point x="42.8858" y="32.6326"/>
      <point x="47.0056" y="41.5848"/>
      <point x="55" y="50" type="curve" smooth="yes"/>
      <point x="226" y="230" type="line"/>
      <point x="55" y="411" type="line" smooth="yes"/>
      <point x="47.5462" y="418.89"/>
      <point x="43.3741" y="428.471"/>
      <point x="43.3741" y="437.7" type="curve" smooth="yes"/>
      <point x="43.3741" y="456.562"/>
      <point x="61.1681" y="473.002"/>
      <point x="81.5845" y="473.002" type="curve" smooth="yes"/>
      <point x="92.4955" y="473.002"/>
      <point x="103.611" y="468.088"/>
      <point x="111" y="460" type="curve" smooth="yes"/>
      <point x="280" y="275" type="line"/>
      <point x="448" y="460" type="line" smooth="yes"/>
      <point x="455.217" y="467.947"/>
      <point x="466.178" y="472.791"/>
      <point x="476.946" y="472.791" type="curve" smooth="yes"/>
      <point x="497.114" y="472.791"/>
      <point x="514.676" y="456.485"/>
      <point x="514.676" y="437.758" type="curve" smooth="yes"/>
      <point x="514.676" y="428.528"/>
      <point x="510.484" y="418.922"/>
      <point x="503" y="411" type="curve" smooth="yes"/>
      <point x="332" y="230" type="line"/>
      <point x="503" y="50" type="line" smooth="yes"/>
      <point x="511.017" y="41.5613"/>
      <point x="515.15" y="32.5935"/>
    </contour>
  </outline>
</glyph>
<glyph name="y" format="1">
  <advance width="679"/>
  <unicode hex="0079"/>
  <outline>
    <contour>
      <point x="604" y="-77" type="line" smooth="yes"/>
      <point x="604" y="-170.038"/>
      <point x="576.413" y="-205"/>
      <point x="503" y="-205" type="curve" smooth="yes"/>
      <point x="180" y="-205" type="line" smooth="yes"/>
      <point x="108.398" y="-205"/>
      <point x="70" y="-166.798"/>
      <point x="70" y="-95.5613" type="curve" smooth="yes"/>
      <point x="70" y="-56.3817"/>
      <point x="83.0743" y="-38"/>
      <point x="110.942" y="-38" type="curve" smooth="yes"/>
      <point x="174.615" y="-38"/>
      <point x="105.236" y="-133"/>
      <point x="187" y="-133" type="curve" smooth="yes"/>
      <point x="496" y="-133" type="line" smooth="yes"/>
      <point x="524.672" y="-133"/>
      <point x="532" y="-124.857"/>
      <point x="532" y="-93" type="curve" smooth="yes"/>
      <point x="532" y="50" type="line"/>
      <point x="487.986" y="14.8172"/>
      <point x="427.702" y="-0"/>
      <point x="328.577" y="-0" type="curve" smooth="yes"/>
      <point x="138.76" y="-0"/>
      <point x="70" y="47.3333"/>
      <point x="70" y="178" type="curve" smooth="yes"/>
      <point x="70" y="426" type="line" smooth="yes"/>
      <point x="70" y="452.404"/>
      <point x="83.3684" y="468"/>
      <point x="106" y="468" type="curve" smooth="yes"/>
      <point x="128.632" y="468"/>
      <point x="142" y="452.404"/>
      <point x="142" y="426" type="curve" smooth="yes"/>
      <point x="142" y="181" type="line" smooth="yes"/>
      <point x="142" y="101.67"/>
      <point x="175.933" y="71.7202"/>
      <point x="265.814" y="71.7202" type="curve" smooth="yes"/>
      <point x="469.173" y="71.7202"/>
      <point x="532" y="109.551"/>
      <point x="532" y="232" type="curve" smooth="yes"/>
      <point x="532" y="426" type="line" smooth="yes"/>
      <point x="532" y="452.404"/>
      <point x="545.368" y="468"/>
      <point x="568" y="468" type="curve" smooth="yes"/>
      <point x="590.632" y="468"/>
      <point x="604" y="452.404"/>
      <point x="604" y="426" type="curve" smooth="yes"/>
    </contour>
  </outline>
</glyph>
<glyph name="z" format="1">
  <advance width="594"/>
  <unicode hex="007A"/>
  <outline>
    <contour>
      <point x="162" y="72" type="line"/>
      <point x="424" y="72" type="line" smooth="yes"/>
      <point x="510.037" y="72"/>
      <point x="432.419" y="186"/>
      <point x="502.601" y="186" type="curve" smooth="yes"/>
      <point x="531.356" y="186"/>
      <point x="542" y="167.751"/>
      <point x="542" y="118.451" type="curve" smooth="yes"/>
      <point x="542" y="36.5423"/>
      <point x="508.065" y="-0"/>
      <point x="432" y="0" type="curve" smooth="yes"/>
      <point x="60" y="0" type="line"/>
      <point x="60" y="74" type="line"/>
      <point x="422" y="389" type="line"/>
      <point x="177" y="389" type="line" smooth="yes"/>
      <point x="91.9537" y="389"/>
      <point x="169.08" y="276"/>
      <point x="99.1256" y="276" type="curve" smooth="yes"/>
      <point x="70.3758" y="276"/>
      <point x="60" y="294.263"/>
      <point x="60" y="344.868" type="curve" smooth="yes"/>
      <point x="60" y="425.879"/>
      <point x="93.2668" y="461"/>
      <point x="170" y="461" type="curve" smooth="yes"/>
      <point x="521" y="461" type="line"/>
      <point x="521" y="384" type="line"/>
    </contour>
  </outline>
</glyph>
<glyph name="braceright" format="1">
  <advance width="287"/>
  <unicode hex="007D"/>
  <outline>
    <contour>
      <point x="247" y="327" type="curve"/>
      <point x="247" y="307" type="line"/>
      <point x="204.234" y="283.967"/>
      <point x="174" y="249.443"/>
      <point x="174" y="223.643" type="curve" smooth="yes"/>
      <point x="174" y="194.932"/>
      <point x="202" y="145.127"/>
      <point x="202" y="68.109" type="curve" smooth="yes"/>
      <point x="202" y="-23.0757"/>
      <point x="161.284" y="-57.0349"/>
      <point x="52" y="-57" type="curve"/>
      <point x="52" y="15" type="line"/>
      <point x="133.494" y="14.8042"/>
      <point x="130" y="29.5697"/>
      <point x="130" y="59.2334" type="curve" smooth="yes"/>
      <point x="130" y="143.207"/>
      <point x="102" y="191.338"/>
      <point x="102" y="229.774" type="curve" smooth="yes"/>
      <point x="102" y="261.842"/>
      <point x="122.831" y="291.149"/>
      <point x="164" y="317" type="curve"/>
      <point x="123.039" y="345.366"/>
      <point x="102" y="375.907"/>
      <point x="102" y="407.003" type="curve" smooth="yes"/>
      <point x="102" y="444.406"/>
      <point x="130" y="496.297"/>
      <point x="130" y="577.681" type="curve" smooth="yes"/>
      <point x="130" y="606.43"/>
      <point x="133.494" y="621.196"/>
      <point x="52" y="621" type="curve"/>
      <point x="52" y="693" type="line"/>
      <point x="94.947" y="693.064"/>
      <point x="146.247" y="694.022"/>
      <point x="174.248" y="654.651" type="curve" smooth="yes"/>
      <point x="190.259" y="632.139"/>
      <point x="202" y="584.805"/>
      <point x="202" y="542.769" type="curve" smooth="yes"/>
      <point x="202" y="485.244"/>
      <point x="174" y="441.227"/>
      <point x="174" y="412.425" type="curve" smooth="yes"/>
      <point x="174" y="386.05"/>
      <point x="206.364" y="348.178"/>
    </contour>
  </outline>
</glyph>
<glyph name="asciitilde" format="1">
  <advance width="438"/>
  <unicode hex="007E"/>
  <outline>
    <contour>
      <point x="175.602" y="207.006" type="curve" smooth="yes"/>
      <point x="150.221" y="207.006"/>
      <point x="133.651" y="166.513"/>
      <point x="105.397" y="166.513" type="curve" smooth="yes"/>
      <point x="87.0045" y="166.513"/>
      <point x="68.0553" y="182.739"/>
      <point x="68.0553" y="198.488" type="curve" smooth="yes"/>
      <point x="68.0553" y="228.819"/>
      <point x="133.242" y="284.072"/>
      <point x="169.027" y="284.072" type="curve" smooth="yes"/>
      <point x="199.84" y="284.072"/>
      <point x="236.453" y="243.994"/>
      <point x="260.444" y="243.994" type="curve" smooth="yes"/>
      <point x="284.413" y="243.994"/>
      <point x="305.964" y="284.001"/>
      <point x="333.793" y="284.001" type="curve" smooth="yes"/>
      <point x="351.673" y="284.001"/>
      <point x="369.585" y="268.603"/>
      <point x="369.585" y="253.233" type="curve" smooth="yes"/>
      <point x="369.585" y="222.454"/>
      <point x="304.548" y="166.928"/>
      <point x="268.497" y="166.928" type="curve" smooth="yes"/>
      <point x="237.36" y="166.928"/>
      <point x="200.852" y="207.006"/>
    </contour>
  </outline>
</glyph>
<glyph name="brokenbar" format="1">
  <advance width="231"/>
  <unicode hex="00A6"/>
  <outline>
    <contour>
      <point x="80" y="235" type="line" smooth="yes"/>
      <point x="80" y="260.429"/>
      <point x="93.7967" y="277.865"/>
      <point x="113.917" y="277.865" type="curve" smooth="yes"/>
      <point x="134.933" y="277.865"/>
      <point x="151" y="259.293"/>
      <point x="151" y="235" type="curve" smooth="yes"/>
      <point x="151" y="22" type="line" smooth="yes"/>
      <point x="151" y="-6.61311"/>
      <point x="138.904" y="-22"/>
      <point x="116.411" y="-22" type="curve" smooth="yes"/>
      <point x="93.7112" y="-22"/>
      <point x="80" y="-5.43104"/>
      <point x="80" y="22" type="curve" smooth="yes"/>
    </contour>
    <contour>
      <point x="151" y="401" type="line" smooth="yes"/>
      <point x="151" y="375.571"/>
      <point x="137.203" y="358.135"/>
      <point x="117.083" y="358.135" type="curve" smooth="yes"/>
      <point x="96.067" y="358.135"/>
      <point x="80" y="376.707"/>
      <point x="80" y="401" type="curve" smooth="yes"/>
      <point x="80" y="616" type="line" smooth="yes"/>
      <point x="80" y="643.49"/>
      <point x="91.9758" y="658"/>
      <point x="114.665" y="658" type="curve" smooth="yes"/>
      <point x="137.706" y="658"/>
      <point x="151" y="642.633"/>
      <point x="151" y="616" type="curve" smooth="yes"/>
    </contour>
  </outline>
</glyph>
<glyph name="ordfeminine" format="1">
  <advance width="392"/>
  <unicode hex="00AA"/>
  <outline>
    <contour>
      <point x="245" y="404" type="line" smooth="yes"/>
      <point x="245" y="413.633"/>
      <point x="243.757" y="415"/>
      <point x="235" y="415" type="curve" smooth="yes"/>
      <point x="156" y="415" type="line" smooth="yes"/>
      <point x="152.85" y="415"/>
      <point x="149.73" y="414.653"/>
      <point x="147" y="414" type="curve"/>
      <point x="147.022" y="399.909"/>
      <point x="134.14" y="389.529"/>
      <point x="116.633" y="389.529" type="curve" smooth="yes"/>
      <point x="97.6904" y="389.529"/>
      <point x="86" y="402.341"/>
      <point x="86" y="423.101" type="curve" smooth="yes"/>
      <point x="86" y="455.085"/>
      <point x="112.49" y="476"/>
      <point x="153" y="476" type="curve" smooth="yes"/>
      <point x="238" y="476" type="line" smooth="yes"/>
      <point x="280.963" y="476"/>
      <point x="306" y="446.913"/>
      <point x="306" y="397" type="curve" smooth="yes"/>
      <point x="306" y="258" type="line" smooth="yes"/>
      <point x="306" y="243.916"/>
      <point x="289.798" y="230.053"/>
      <point x="273.337" y="230.053" type="curve" smooth="yes"/>
      <point x="262.737" y="230.053"/>
      <point x="252.936" y="236.732"/>
      <point x="247" y="248" type="curve"/>
      <point x="233.694" y="238.694"/>
      <point x="215.59" y="234"/>
      <point x="193" y="234" type="curve" smooth="yes"/>
      <point x="156" y="234" type="line" smooth="yes"/>
      <point x="115.658" y="234"/>
      <point x="86" y="271.382"/>
      <point x="86" y="322.231" type="curve" smooth="yes"/>
      <point x="86" y="408.88"/>
      <point x="172.909" y="400"/>
      <point x="245" y="400" type="curve"/>
    </contour>
    <contour>
      <point x="293" y="214" type="line" smooth="yes"/>
      <point x="314.718" y="214"/>
      <point x="330.294" y="200.426"/>
      <point x="330.294" y="181.5" type="curve" smooth="yes"/>
      <point x="330.294" y="162.574"/>
      <point x="314.718" y="149"/>
      <point x="293" y="149" type="curve" smooth="yes"/>
      <point x="97" y="149" type="line" smooth="yes"/>
      <point x="75.7173" y="149"/>
      <point x="61.1486" y="161.619"/>
      <point x="61.1486" y="180.054" type="curve" smooth="yes"/>
      <point x="61.1486" y="199.327"/>
      <point x="76.6457" y="214"/>
      <point x="97" y="214" type="curve" smooth="yes"/>
    </contour>
    <contour>
      <point x="156" y="295" type="curve"/>
      <point x="193" y="295" type="line" smooth="yes"/>
      <point x="222.098" y="295"/>
      <point x="239.388" y="309.917"/>
      <point x="244" y="339" type="curve"/>
      <point x="223.347" y="339"/>
      <point x="202.713" y="340.258"/>
      <point x="191.038" y="340.258" type="curve" smooth="yes"/>
      <point x="161.524" y="340.258"/>
      <point x="146.833" y="331.953"/>
      <point x="146.833" y="315.268" type="curve" smooth="yes"/>
      <point x="146.833" y="306.539"/>
      <point x="150.506" y="298.417"/>
    </contour>
  </outline>
</glyph>
<glyph name="registered" format="1">
  <advance width="630"/>
  <unicode hex="00AE"/>
  <outline>
    <contour>
      <point x="345.594" y="144" type="curve" smooth="yes"/>
      <point x="451.664" y="144"/>
      <point x="480" y="168.878"/>
      <point x="480" y="262" type="curve" smooth="yes"/>
      <point x="480" y="373" type="line" smooth="yes"/>
      <point x="480" y="502.06"/>
      <point x="406.252" y="491"/>
      <point x="281.007" y="491" type="curve" smooth="yes"/>
      <point x="177.638" y="491"/>
      <point x="150" y="466.106"/>
      <point x="150" y="373" type="curve" smooth="yes"/>
      <point x="150" y="262" type="line" smooth="yes"/>
      <point x="150" y="132.099"/>
      <point x="223.716" y="144"/>
    </contour>
    <contour>
      <point x="78" y="373" type="line" smooth="yes"/>
      <point x="78" y="510.597"/>
      <point x="136.937" y="563"/>
      <point x="291.69" y="563" type="curve" smooth="yes"/>
      <point x="487.896" y="563"/>
      <point x="552" y="516.21"/>
      <point x="552" y="373" type="curve" smooth="yes"/>
      <point x="552" y="262" type="line" smooth="yes"/>
      <point x="552" y="124.076"/>
      <point x="493.04" y="72"/>
      <point x="336.884" y="72" type="curve" smooth="yes"/>
      <point x="141.808" y="72"/>
      <point x="78" y="118.83"/>
      <point x="78" y="262" type="curve" smooth="yes"/>
    </contour>
    <contour>
      <point x="402.93" y="193" type="curve" smooth="yes"/>
      <point x="388.278" y="193"/>
      <point x="379.252" y="200.35"/>
      <point x="374.273" y="216.335" type="curve" smooth="yes"/>
      <point x="366.567" y="241.071"/>
      <point x="340.857" y="275.021"/>
      <point x="320" y="288" type="curve"/>
      <point x="262" y="288" type="line"/>
      <point x="262" y="217" type="line" smooth="yes"/>
      <point x="262" y="203.543"/>
      <point x="249.12" y="193.706"/>
      <point x="231.5" y="193.706" type="curve" smooth="yes"/>
      <point x="213.88" y="193.706"/>
      <point x="201" y="203.543"/>
      <point x="201" y="217" type="curve" smooth="yes"/>
      <point x="201" y="411" type="line" smooth="yes"/>
      <point x="201" y="424.278"/>
      <point x="214.598" y="436"/>
      <point x="230" y="436" type="curve" smooth="yes"/>
      <point x="314" y="436" type="line" smooth="yes"/>
      <point x="390.977" y="436"/>
      <point x="433" y="409.75"/>
      <point x="433" y="361.665" type="curve" smooth="yes"/>
      <point x="433" y="332.711"/>
      <point x="419.163" y="310.887"/>
      <point x="392" y="297" type="curve"/>
      <point x="420.643" y="263.815"/>
      <point x="436" y="237.084"/>
      <point x="436" y="220.412" type="curve" smooth="yes"/>
      <point x="436" y="204.274"/>
      <point x="422.399" y="193"/>
    </contour>
    <contour>
      <point x="314" y="349" type="line" smooth="yes"/>
      <point x="320.958" y="349"/>
      <point x="372.133" y="346.264"/>
      <point x="372.133" y="364.368" type="curve" smooth="yes"/>
      <point x="372.133" y="381.062"/>
      <point x="328.619" y="375"/>
      <point x="314" y="375" type="curve" smooth="yes"/>
      <point x="262" y="375" type="line"/>
      <point x="262" y="349" type="line"/>
    </contour>
  </outline>
</glyph>
<glyph name="degree" format="1">
  <advance width="424"/>
  <unicode hex="00B0"/>
  <outline>
    <contour>
      <point x="212.5" y="622" type="curve" smooth="yes"/>
      <point x="165.289" y="622"/>
      <point x="125" y="581.711"/>
      <point x="125" y="534.5" type="curve" smooth="yes"/>
      <point x="125" y="487.289"/>
      <point x="165.289" y="447"/>
      <point x="212.5" y="447" type="curve" smooth="yes"/>
      <point x="259.711" y="447"/>
      <point x="300" y="487.289"/>
      <point x="300" y="534.5" type="curve" smooth="yes"/>
      <point x="300" y="581.711"/>
      <point x="259.711" y="622"/>
    </contour>
    <contour>
      <point x="371" y="534.5" type="curve" smooth="yes"/>
      <point x="371" y="447.293"/>
      <point x="299.707" y="376"/>
      <point x="212.5" y="376" type="curve" smooth="yes"/>
      <point x="125.293" y="376"/>
      <point x="54" y="447.293"/>
      <point x="54" y="534.5" type="curve" smooth="yes"/>
      <point x="54" y="621.707"/>
      <point x="125.293" y="693"/>
      <point x="212.5" y="693" type="curve" smooth="yes"/>
      <point x="299.707" y="693"/>
      <point x="371" y="621.707"/>
    </contour>
  </outline>
</glyph>
<glyph name="plusminus" format="1">
  <advance width="587"/>
  <unicode hex="00B1"/>
  <outline>
    <contour>
      <point x="103" y="-10" type="line" smooth="yes"/>
      <point x="77.8312" y="-10"/>
      <point x="62" y="4.95194"/>
      <point x="62" y="28.7229" type="curve" smooth="yes"/>
      <point x="62" y="51.234"/>
      <point x="76.0737" y="63"/>
      <point x="103" y="63" type="curve" smooth="yes"/>
      <point x="481" y="63" type="line" smooth="yes"/>
      <point x="509.458" y="63"/>
      <point x="525" y="50.7693"/>
      <point x="525" y="28.3748" type="curve" smooth="yes"/>
      <point x="525" y="5.42362"/>
      <point x="507.315" y="-10"/>
      <point x="481" y="-10" type="curve" smooth="yes"/>
    </contour>
    <contour>
      <point x="257" y="255" type="line"/>
      <point x="103" y="255" type="line" smooth="yes"/>
      <point x="78.0765" y="255"/>
      <point x="62" y="270.282"/>
      <point x="62" y="293.975" type="curve" smooth="yes"/>
      <point x="62" y="316.287"/>
      <point x="76.1143" y="328"/>
      <point x="103" y="328" type="curve" smooth="yes"/>
      <point x="257" y="328" type="line"/>
      <point x="257" y="440" type="line" smooth="yes"/>
      <point x="257" y="468.338"/>
      <point x="269.275" y="483"/>
      <point x="293" y="483" type="curve" smooth="yes"/>
      <point x="316.725" y="483"/>
      <point x="329" y="468.338"/>
      <point x="329" y="440" type="curve" smooth="yes"/>
      <point x="329" y="328" type="line"/>
      <point x="481" y="328" type="line" smooth="yes"/>
      <point x="506.223" y="328"/>
      <point x="524.12" y="313.021"/>
      <point x="524.12" y="291.909" type="curve" smooth="yes"/>
      <point x="524.12" y="270.563"/>
      <point x="505.938" y="255"/>
      <point x="481" y="255" type="curve" smooth="yes"/>
      <point x="329" y="255" type="line"/>
      <point x="329" y="143" type="line" smooth="yes"/>
      <point x="329" y="115.298"/>
      <point x="316.745" y="101"/>
      <point x="293" y="101" type="curve" smooth="yes"/>
      <point x="269.255" y="101"/>
      <point x="257" y="115.298"/>
      <point x="257" y="143" type="curve" smooth="yes"/>
    </contour>
  </outline>
</glyph>
<glyph name="twosuperior" format="1">
  <advance width="355"/>
  <unicode hex="00B2"/>
  <outline>
    <contour>
      <point x="268" y="446" type="curve" smooth="yes"/>
      <point x="50" y="446" type="line"/>
      <point x="50" y="483" type="line" smooth="yes"/>
      <point x="50" y="614.932"/>
      <point x="242" y="637.291"/>
      <point x="242" y="694.278" type="curve" smooth="yes"/>
      <point x="242" y="711.509"/>
      <point x="223.617" y="720.676"/>
      <point x="189.067" y="720.676" type="curve" smooth="yes"/>
      <point x="174.096" y="720.676"/>
      <point x="159.076" y="719"/>
      <point x="149.334" y="719" type="curve" smooth="yes"/>
      <point x="97.0272" y="719"/>
      <point x="128.85" y="670.663"/>
      <point x="87.0294" y="670.663" type="curve" smooth="yes"/>
      <point x="64.0752" y="670.663"/>
      <point x="50" y="685.009"/>
      <point x="50" y="708.403" type="curve" smooth="yes"/>
      <point x="50" y="747.809"/>
      <point x="91.8115" y="782"/>
      <point x="140" y="782" type="curve" smooth="yes"/>
      <point x="170" y="782" type="line" smooth="yes"/>
      <point x="267.47" y="782"/>
      <point x="305" y="760.297"/>
      <point x="305" y="703.933" type="curve" smooth="yes"/>
      <point x="305" y="591.104"/>
      <point x="146.277" y="576.419"/>
      <point x="120" y="509" type="curve"/>
      <point x="268" y="509" type="line" smooth="yes"/>
      <point x="286.742" y="509"/>
      <point x="302.996" y="493.359"/>
      <point x="302.996" y="475.323" type="curve" smooth="yes"/>
      <point x="302.996" y="458.406"/>
      <point x="288.19" y="446"/>
    </contour>
  </outline>
</glyph>
<glyph name="acute" format="1">
  <advance width="212"/>
  <unicode hex="00B4"/>
  <outline>
    <contour>
      <point x="53.1033" y="494.984" type="curve" smooth="yes"/>
      <point x="35.4366" y="494.984"/>
      <point x="20.6297" y="512.08"/>
      <point x="20.6297" y="532.477" type="curve" smooth="yes"/>
      <point x="20.6297" y="542.086"/>
      <point x="24.1145" y="551.95"/>
      <point x="30" y="559" type="curve" smooth="yes"/>
      <point x="126" y="674" type="line" smooth="yes"/>
      <point x="136.088" y="686.085"/>
      <point x="148.547" y="693.039"/>
      <point x="160.109" y="693.039" type="curve" smooth="yes"/>
      <point x="178.015" y="693.039"/>
      <point x="193.657" y="675.79"/>
      <point x="193.657" y="656.044" type="curve" smooth="yes"/>
      <point x="193.657" y="646.836"/>
      <point x="189.873" y="637.233"/>
      <point x="183" y="629" type="curve" smooth="yes"/>
      <point x="87" y="514" type="line" smooth="yes"/>
      <point x="76.9323" y="501.94"/>
      <point x="64.5337" y="494.984"/>
    </contour>
  </outline>
</glyph>
<glyph name="uni00B5" format="1">
  <advance width="594"/>
  <unicode hex="00B5"/>
  <outline>
    <contour>
      <point x="485" y="483" type="curve" smooth="yes"/>
      <point x="508.526" y="483"/>
      <point x="521" y="467.407"/>
      <point x="521" y="438" type="curve" smooth="yes"/>
      <point x="521" y="24" type="line" smooth="yes"/>
      <point x="521" y="-6.12519"/>
      <point x="508.355" y="-22"/>
      <point x="484.358" y="-22" type="curve" smooth="yes"/>
      <point x="459.047" y="-22"/>
      <point x="448.676" y="-5.28078"/>
      <point x="449" y="35" type="curve"/>
      <point x="410.031" y="2.52938"/>
      <point x="357.092" y="-15"/>
      <point x="298" y="-15" type="curve" smooth="yes"/>
      <point x="238.908" y="-15"/>
      <point x="185.969" y="2.52938"/>
      <point x="147" y="35" type="curve"/>
      <point x="147" y="-159" type="line" smooth="yes"/>
      <point x="147" y="-188.864"/>
      <point x="134.189" y="-205"/>
      <point x="110.48" y="-205" type="curve" smooth="yes"/>
      <point x="87.2249" y="-205"/>
      <point x="75" y="-189.15"/>
      <point x="75" y="-159" type="curve" smooth="yes"/>
      <point x="75" y="438" type="line" smooth="yes"/>
      <point x="75" y="467.407"/>
      <point x="87.4741" y="483"/>
      <point x="111" y="483" type="curve" smooth="yes"/>
      <point x="134.526" y="483"/>
      <point x="147" y="467.407"/>
      <point x="147" y="438" type="curve" smooth="yes"/>
      <point x="147" y="228" type="line" smooth="yes"/>
      <point x="147" y="117.595"/>
      <point x="200.508" y="57"/>
      <point x="298" y="57" type="curve" smooth="yes"/>
      <point x="395.492" y="57"/>
      <point x="449" y="117.595"/>
      <point x="449" y="228" type="curve" smooth="yes"/>
      <point x="449" y="438" type="line" smooth="yes"/>
      <point x="449" y="467.407"/>
      <point x="461.474" y="483"/>
    </contour>
  </outline>
</glyph>
<glyph name="paragraph" format="1">
  <advance width="506"/>
  <unicode hex="00B6"/>
  <outline>
    <contour>
      <point x="345" y="579" type="line"/>
      <point x="314" y="579" type="line"/>
      <point x="314" y="20" type="line" smooth="yes"/>
      <point x="314" y="-6.6896"/>
      <point x="300.625" y="-22"/>
      <point x="277.31" y="-22" type="curve" smooth="yes"/>
      <point x="254.232" y="-22"/>
      <point x="242" y="-7.45047"/>
      <point x="242" y="20" type="curve" smooth="yes"/>
      <point x="242" y="322" type="line"/>
      <point x="99.8546" y="322"/>
      <point x="35" y="372.663"/>
      <point x="35" y="483.704" type="curve" smooth="yes"/>
      <point x="35" y="598.063"/>
      <point x="105.246" y="651"/>
      <point x="257" y="651" type="curve" smooth="yes"/>
      <point x="417" y="651" type="line"/>
      <point x="417" y="20" type="line" smooth="yes"/>
      <point x="417" y="-6.6896"/>
      <point x="403.625" y="-22"/>
      <point x="380.31" y="-22" type="curve" smooth="yes"/>
      <point x="357.232" y="-22"/>
      <point x="345" y="-7.45047"/>
      <point x="345" y="20" type="curve" smooth="yes"/>
    </contour>
  </outline>
</glyph>
<glyph name="cedilla" format="1">
  <advance width="242"/>
  <unicode hex="00B8"/>
  <outline>
    <contour>
      <point x="222" y="-99.5251" type="curve" smooth="yes"/>
      <point x="222" y="-151.916"/>
      <point x="176.8" y="-190"/>
      <point x="114.62" y="-190" type="curve" smooth="yes"/>
      <point x="63.362" y="-190"/>
      <point x="28.3878" y="-165.689"/>
      <point x="28.3878" y="-130.059" type="curve" smooth="yes"/>
      <point x="28.3878" y="-120.369"/>
      <point x="30.7176" y="-112.949"/>
      <point x="35" y="-109" type="curve"/>
      <point x="36.6824" y="-104.177"/>
      <point x="41.4631" y="-101.833"/>
      <point x="49.6169" y="-101.833" type="curve" smooth="yes"/>
      <point x="75.7866" y="-101.833"/>
      <point x="102.989" y="-124.843"/>
      <point x="128.027" y="-124.843" type="curve" smooth="yes"/>
      <point x="133.31" y="-124.843"/>
      <point x="136.026" y="-123.68"/>
      <point x="137" y="-121" type="curve"/>
      <point x="144.246" y="-120.168"/>
      <point x="150" y="-109.988"/>
      <point x="150" y="-98" type="curve"/>
      <point x="150" y="-96.851"/>
      <point x="147.548" y="-95.3435"/>
      <point x="146.85" y="-94.7915" type="curve"/>
      <point x="98.0321" y="-56.1736"/>
      <point x="81" y="-30.3625"/>
      <point x="81" y="5" type="curve" smooth="yes"/>
      <point x="81" y="10" type="line"/>
      <point x="153" y="10" type="line"/>
      <point x="151.276" y="-34.2903"/>
      <point x="222" y="-31.7283"/>
    </contour>
  </outline>
</glyph>
<glyph name="ordmasculine" format="1">
  <advance width="392"/>
  <unicode hex="00BA"/>
  <outline>
    <contour>
      <point x="213.958" y="295" type="curve" smooth="yes"/>
      <point x="237.117" y="295"/>
      <point x="245" y="293.843"/>
      <point x="245" y="333" type="curve" smooth="yes"/>
      <point x="245" y="377" type="line" smooth="yes"/>
      <point x="245" y="421.464"/>
      <point x="230.414" y="415"/>
      <point x="171.608" y="415" type="curve" smooth="yes"/>
      <point x="154.276" y="415"/>
      <point x="147" y="415.561"/>
      <point x="147" y="377" type="curve" smooth="yes"/>
      <point x="147" y="333" type="line" smooth="yes"/>
      <point x="147" y="288.95"/>
      <point x="160.997" y="295"/>
    </contour>
    <contour>
      <point x="86" y="377" type="line" smooth="yes"/>
      <point x="86" y="451.184"/>
      <point x="112.419" y="476"/>
      <point x="191.395" y="476" type="curve" smooth="yes"/>
      <point x="277.551" y="476"/>
      <point x="306" y="451.425"/>
      <point x="306" y="377" type="curve" smooth="yes"/>
      <point x="306" y="333" type="line" smooth="yes"/>
      <point x="306" y="258.926"/>
      <point x="279.702" y="234"/>
      <point x="201.55" y="234" type="curve" smooth="yes"/>
      <point x="114.728" y="234"/>
      <point x="86" y="258.614"/>
      <point x="86" y="333" type="curve" smooth="yes"/>
    </contour>
    <contour>
      <point x="293" y="214" type="line" smooth="yes"/>
      <point x="314.341" y="214"/>
      <point x="329.885" y="200.12"/>
      <point x="329.885" y="181.064" type="curve" smooth="yes"/>
      <point x="329.885" y="162.264"/>
      <point x="314.627" y="149"/>
      <point x="293" y="149" type="curve" smooth="yes"/>
      <point x="97" y="149" type="line" smooth="yes"/>
      <point x="75.7173" y="149"/>
      <point x="61.1486" y="161.619"/>
      <point x="61.1486" y="180.054" type="curve" smooth="yes"/>
      <point x="61.1486" y="199.327"/>
      <point x="76.6457" y="214"/>
      <point x="97" y="214" type="curve" smooth="yes"/>
    </contour>
  </outline>
</glyph>
<glyph name="questiondown" format="1">
  <advance width="545"/>
  <unicode hex="00BF"/>
  <outline>
    <contour>
      <point x="228" y="451.247" type="curve" smooth="yes"/>
      <point x="228" y="479.111"/>
      <point x="254.154" y="499.809"/>
      <point x="289.364" y="499.809" type="curve" smooth="yes"/>
      <point x="324.724" y="499.809"/>
      <point x="351" y="479.09"/>
      <point x="351" y="451.21" type="curve" smooth="yes"/>
      <point x="351" y="423.061"/>
      <point x="323.431" y="400.101"/>
      <point x="289.633" y="400.101" type="curve" smooth="yes"/>
      <point x="255.727" y="400.101"/>
      <point x="228" y="423.11"/>
    </contour>
    <contour>
      <point x="325" y="285" type="curve" smooth="yes"/>
      <point x="325" y="133" type="line"/>
      <point x="160" y="88" type="line" smooth="yes"/>
      <point x="129.826" y="79.7708"/>
      <point x="108" y="39.6807"/>
      <point x="108" y="-7.51242" type="curve" smooth="yes"/>
      <point x="108" y="-66.0666"/>
      <point x="144.305" y="-108"/>
      <point x="195" y="-108" type="curve" smooth="yes"/>
      <point x="289" y="-108" type="line" smooth="yes"/>
      <point x="412.819" y="-108"/>
      <point x="439" y="-92.2757"/>
      <point x="439" y="-17.9119" type="curve" smooth="yes"/>
      <point x="439" y="27.3712"/>
      <point x="452.033" y="50.865"/>
      <point x="477.154" y="50.865" type="curve" smooth="yes"/>
      <point x="501.111" y="50.865"/>
      <point x="512" y="29.4926"/>
      <point x="512" y="-17.5278" type="curve" smooth="yes"/>
      <point x="512" y="-133.46"/>
      <point x="448.122" y="-180"/>
      <point x="289" y="-180" type="curve" smooth="yes"/>
      <point x="213" y="-180" type="line" smooth="yes"/>
      <point x="101.12" y="-180"/>
      <point x="36" y="-113.183"/>
      <point x="36" y="1.61186" type="curve" smooth="yes"/>
      <point x="36" y="141.674"/>
      <point x="132.304" y="153.947"/>
      <point x="253" y="188" type="curve"/>
      <point x="253" y="285" type="line" smooth="yes"/>
      <point x="253" y="313.34"/>
      <point x="265.274" y="328"/>
      <point x="289" y="328" type="curve" smooth="yes"/>
      <point x="312.726" y="328"/>
      <point x="325" y="313.34"/>
    </contour>
  </outline>
</glyph>
<glyph name="Ccedilla" format="1">
  <advance width="631"/>
  <unicode hex="00C7"/>
  <outline>
    <contour>
      <point x="297" y="0" type="curve"/>
      <point x="132.055" y="2.67624"/>
      <point x="71" y="52.3846"/>
      <point x="71" y="184" type="curve" smooth="yes"/>
      <point x="71" y="452" type="line" smooth="yes"/>
      <point x="71" y="586.722"/>
      <point x="133.936" y="636"/>
      <point x="306" y="636" type="curve" smooth="yes"/>
      <point x="465" y="636" type="line" smooth="yes"/>
      <point x="539.01" y="636"/>
      <point x="575" y="600.098"/>
      <point x="575" y="526.268" type="curve" smooth="yes"/>
      <point x="575" y="486.488"/>
      <point x="562.874" y="469"/>
      <point x="535.291" y="469" type="curve" smooth="yes"/>
      <point x="471.339" y="469"/>
      <point x="540.264" y="564"/>
      <point x="458" y="564" type="curve" smooth="yes"/>
      <point x="306" y="564" type="line" smooth="yes"/>
      <point x="207.012" y="564"/>
      <point x="143" y="566.29"/>
      <point x="143" y="450" type="curve" smooth="yes"/>
      <point x="143" y="186" type="line" smooth="yes"/>
      <point x="143" y="62.4058"/>
      <point x="222.001" y="72"/>
      <point x="324" y="72" type="curve" smooth="yes"/>
      <point x="458" y="72" type="line" smooth="yes"/>
      <point x="540.264" y="72"/>
      <point x="471.338" y="167"/>
      <point x="535.173" y="167" type="curve" smooth="yes"/>
      <point x="562.989" y="167"/>
      <point x="575" y="149.251"/>
      <point x="575" y="108.145" type="curve" smooth="yes"/>
      <point x="575" y="-20.713"/>
      <point x="475.602" y="0"/>
      <point x="369" y="0" type="curve"/>
      <point x="373.628" y="-27.5654"/>
      <point x="438" y="-42.9073"/>
      <point x="438" y="-103.343" type="curve" smooth="yes"/>
      <point x="438" y="-152.841"/>
      <point x="391.955" y="-190"/>
      <point x="330.621" y="-190" type="curve" smooth="yes"/>
      <point x="279.386" y="-190"/>
      <point x="244.388" y="-165.729"/>
      <point x="244.388" y="-130.199" type="curve" smooth="yes"/>
      <point x="244.388" y="-120.593"/>
      <point x="246.679" y="-113.246"/>
      <point x="251" y="-109" type="curve"/>
      <point x="252.692" y="-104.167"/>
      <point x="257.433" y="-101.833"/>
      <point x="265.562" y="-101.833" type="curve" smooth="yes"/>
      <point x="291.796" y="-101.833"/>
      <point x="318.98" y="-124.843"/>
      <point x="344.026" y="-124.843" type="curve" smooth="yes"/>
      <point x="349.31" y="-124.843"/>
      <point x="352.026" y="-123.68"/>
      <point x="353" y="-121" type="curve"/>
      <point x="360.286" y="-120.163"/>
      <point x="366" y="-110.054"/>
      <point x="366" y="-98" type="curve"/>
      <point x="366" y="-97.0568"/>
      <point x="364.008" y="-95.4003"/>
      <point x="363.702" y="-95.1313" type="curve"/>
      <point x="332.286" y="-67.4793"/>
      <point x="298.742" y="-47.6651"/>
    </contour>
  </outline>
</glyph>
<glyph name="multiply" format="1">
  <advance width="510"/>
  <unicode hex="00D7"/>
  <outline>
    <contour>
      <point x="68.8143" y="380.054" type="curve" smooth="yes"/>
      <point x="68.8143" y="399.6"/>
      <point x="85.1905" y="416.05"/>
      <point x="104.65" y="416.05" type="curve" smooth="yes"/>
      <point x="115.156" y="416.05"/>
      <point x="125.945" y="411.055"/>
      <point x="135" y="402" type="curve" smooth="yes"/>
      <point x="255" y="282" type="line"/>
      <point x="376" y="403" type="line" smooth="yes"/>
      <point x="384.391" y="411.391"/>
      <point x="395.647" y="416.419"/>
      <point x="406.04" y="416.419" type="curve" smooth="yes"/>
      <point x="424.768" y="416.419"/>
      <point x="440.473" y="400.189"/>
      <point x="440.473" y="380.834" type="curve" smooth="yes"/>
      <point x="440.473" y="370.323"/>
      <point x="435.655" y="359.655"/>
      <point x="427" y="351" type="curve" smooth="yes"/>
      <point x="306" y="230" type="line"/>
      <point x="427" y="109" type="line" smooth="yes"/>
      <point x="437.206" y="98.7938"/>
      <point x="440.529" y="92.2515"/>
      <point x="440.529" y="82.3646" type="curve" smooth="yes"/>
      <point x="440.529" y="60.6193"/>
      <point x="423.793" y="41.8197"/>
      <point x="404.435" y="41.8197" type="curve" smooth="yes"/>
      <point x="391.815" y="41.8197"/>
      <point x="384.668" y="49.3318"/>
      <point x="376" y="58" type="curve" smooth="yes"/>
      <point x="255" y="179" type="line"/>
      <point x="134" y="58" type="line" smooth="yes"/>
      <point x="125.746" y="49.7458"/>
      <point x="115.61" y="45.1792"/>
      <point x="105.545" y="45.1792" type="curve" smooth="yes"/>
      <point x="86.0754" y="45.1792"/>
      <point x="69.1321" y="61.6166"/>
      <point x="69.1321" y="80.5047" type="curve" smooth="yes"/>
      <point x="69.1321" y="90.3241"/>
      <point x="73.6904" y="99.6904"/>
      <point x="83" y="109" type="curve" smooth="yes"/>
      <point x="204" y="230" type="line"/>
      <point x="84" y="351" type="line" smooth="yes"/>
      <point x="72.8016" y="362.292"/>
      <point x="68.8143" y="369.92"/>
    </contour>
  </outline>
</glyph>
<glyph name="Oslash" format="1">
  <advance width="632"/>
  <unicode hex="00D8"/>
  <outline>
    <contour>
      <point x="438" y="539" type="line"/>
      <point x="408.759" y="561.069"/>
      <point x="365.939" y="573"/>
      <point x="315.971" y="573" type="curve" smooth="yes"/>
      <point x="200.718" y="573"/>
      <point x="136" y="511.867"/>
      <point x="136" y="403" type="curve" smooth="yes"/>
      <point x="136" y="233" type="line" smooth="yes"/>
      <point x="136" y="202.944"/>
      <point x="140.298" y="177.484"/>
      <point x="149" y="156" type="curve"/>
    </contour>
    <contour>
      <point x="537.885" y="645.746" type="curve" smooth="yes"/>
      <point x="555.449" y="645.746"/>
      <point x="573.452" y="628.95"/>
      <point x="573.452" y="612.564" type="curve" smooth="yes"/>
      <point x="573.452" y="591.617"/>
      <point x="541.579" y="556.991"/>
      <point x="531" y="543" type="curve"/>
      <point x="555.306" y="505.556"/>
      <point x="568" y="458.555"/>
      <point x="568" y="406" type="curve" smooth="yes"/>
      <point x="568" y="230" type="line" smooth="yes"/>
      <point x="568" y="85.6587"/>
      <point x="469.017" y="-9"/>
      <point x="318.081" y="-9" type="curve" smooth="yes"/>
      <point x="254.075" y="-9"/>
      <point x="195.287" y="7.99051"/>
      <point x="152" y="39" type="curve"/>
      <point x="139.292" y="21.6884"/>
      <point x="119.884" y="-12.3912"/>
      <point x="94.5031" y="-12.3912" type="curve" smooth="yes"/>
      <point x="77.0525" y="-12.3912"/>
      <point x="60.1175" y="5.2372"/>
      <point x="60.1175" y="23.4023" type="curve" smooth="yes"/>
      <point x="60.1175" y="46.0606"/>
      <point x="89.208" y="77.1545"/>
      <point x="101" y="93" type="curve"/>
      <point x="76.6937" y="130.445"/>
      <point x="64" y="177.446"/>
      <point x="64" y="230" type="curve" smooth="yes"/>
      <point x="64" y="406" type="line" smooth="yes"/>
      <point x="64" y="551.669"/>
      <point x="161.592" y="645"/>
      <point x="313.911" y="645" type="curve" smooth="yes"/>
      <point x="379.356" y="645"/>
      <point x="438.267" y="627.724"/>
      <point x="481" y="596" type="curve"/>
      <point x="494.074" y="613.343"/>
      <point x="512.569" y="645.746"/>
    </contour>
    <contour>
      <point x="483" y="479" type="curve"/>
      <point x="195" y="96" type="line"/>
      <point x="222.869" y="74.6422"/>
      <point x="265.166" y="63"/>
      <point x="314.894" y="63" type="curve" smooth="yes"/>
      <point x="431.266" y="63"/>
      <point x="496" y="123.764"/>
      <point x="496" y="233" type="curve" smooth="yes"/>
      <point x="496" y="403" type="line" smooth="yes"/>
      <point x="496" y="432.329"/>
      <point x="491.682" y="457.574"/>
    </contour>
  </outline>
</glyph>
<glyph name="Thorn" format="1">
  <advance width="560"/>
  <unicode hex="00DE"/>
  <outline>
    <contour>
      <point x="156" y="476" type="line"/>
      <point x="335" y="476" type="line" smooth="yes"/>
      <point x="456.772" y="476"/>
      <point x="525" y="418.618"/>
      <point x="525" y="316.205" type="curve" smooth="yes"/>
      <point x="525" y="213.151"/>
      <point x="455.74" y="155"/>
      <point x="333" y="155" type="curve" smooth="yes"/>
      <point x="156" y="155" type="line"/>
      <point x="156" y="35" type="line" smooth="yes"/>
      <point x="156" y="7.29691"/>
      <point x="143.746" y="-7"/>
      <point x="120" y="-7" type="curve" smooth="yes"/>
      <point x="96.2545" y="-7"/>
      <point x="84" y="7.29691"/>
      <point x="84" y="35" type="curve" smooth="yes"/>
      <point x="84" y="573" type="line" smooth="yes"/>
      <point x="84" y="598.297"/>
      <point x="99.0782" y="616.529"/>
      <point x="120" y="616.529" type="curve" smooth="yes"/>
      <point x="140.922" y="616.529"/>
      <point x="156" y="598.297"/>
      <point x="156" y="573" type="curve" smooth="yes"/>
    </contour>
    <contour>
      <point x="284" y="404" type="curve" smooth="yes"/>
      <point x="156" y="404" type="line"/>
      <point x="156" y="218" type="line"/>
      <point x="283" y="218" type="line" smooth="yes"/>
      <point x="360.826" y="218"/>
      <point x="452" y="209.992"/>
      <point x="452" y="310.322" type="curve" smooth="yes"/>
      <point x="452" y="410.788"/>
      <point x="360.58" y="404"/>
    </contour>
  </outline>
</glyph>
<glyph name="germandbls" format="1">
  <advance width="506"/>
  <unicode hex="00DF"/>
  <outline>
    <contour>
      <point x="165" y="341" type="curve"/>
      <point x="165" y="408" type="line"/>
      <point x="270.905" y="407.911"/>
      <point x="325" y="437.932"/>
      <point x="325" y="496.794" type="curve" smooth="yes"/>
      <point x="325" y="540.589"/>
      <point x="293.28" y="564"/>
      <point x="233.942" y="564" type="curve" smooth="yes"/>
      <point x="157.7" y="564"/>
      <point x="135" y="540.369"/>
      <point x="135" y="461" type="curve" smooth="yes"/>
      <point x="135" y="39" type="line" smooth="yes"/>
      <point x="135" y="8.88682"/>
      <point x="122.295" y="-7"/>
      <point x="98.2123" y="-7" type="curve" smooth="yes"/>
      <point x="74.9634" y="-7"/>
      <point x="63" y="7.94907"/>
      <point x="63" y="37" type="curve" smooth="yes"/>
      <point x="63" y="394" type="line"/>
      <point x="44.6536" y="396.89"/>
      <point x="32" y="410.36"/>
      <point x="32" y="427" type="curve" smooth="yes"/>
      <point x="32" y="443.64"/>
      <point x="44.6536" y="457.11"/>
      <point x="63" y="460" type="curve"/>
      <point x="68.813" y="580.158"/>
      <point x="122.033" y="636"/>
      <point x="230.738" y="636" type="curve" smooth="yes"/>
      <point x="334.807" y="636"/>
      <point x="398" y="586.764"/>
      <point x="398" y="505.679" type="curve" smooth="yes"/>
      <point x="398" y="456.435"/>
      <point x="375.962" y="412.822"/>
      <point x="335" y="381" type="curve"/>
      <point x="424.301" y="350.376"/>
      <point x="466" y="286.908"/>
      <point x="466" y="181.613" type="curve" smooth="yes"/>
      <point x="466" y="55.017"/>
      <point x="406.614" y="-18.2148"/>
      <point x="303.953" y="-18.2148" type="curve" smooth="yes"/>
      <point x="214.756" y="-18.2148"/>
      <point x="152" y="29.801"/>
      <point x="152" y="98.0471" type="curve" smooth="yes"/>
      <point x="152" y="131.501"/>
      <point x="166.379" y="147"/>
      <point x="197.414" y="147" type="curve" smooth="yes"/>
      <point x="274.045" y="147"/>
      <point x="187.996" y="52"/>
      <point x="287.506" y="52" type="curve" smooth="yes"/>
      <point x="351.466" y="52"/>
      <point x="394" y="103.233"/>
      <point x="394" y="180.274" type="curve" smooth="yes"/>
      <point x="394" y="285.489"/>
      <point x="314.838" y="341.05"/>
    </contour>
  </outline>
</glyph>
<glyph name="ae" format="1">
  <advance width="986"/>
  <unicode hex="00E6"/>
  <outline>
    <contour>
      <point x="295" y="233" type="line" smooth="yes"/>
      <point x="199.315" y="233"/>
      <point x="134" y="237.494"/>
      <point x="134" y="150.17" type="curve" smooth="yes"/>
      <point x="134" y="104.418"/>
      <point x="152.662" y="72"/>
      <point x="179" y="72" type="curve" smooth="yes"/>
      <point x="272" y="72" type="line" smooth="yes"/>
      <point x="383.767" y="72"/>
      <point x="440.12" y="124.328"/>
      <point x="440" y="228" type="curve"/>
      <point x="436" y="233" type="line"/>
    </contour>
    <contour>
      <point x="685.301" y="389" type="curve" smooth="yes"/>
      <point x="615.542" y="389"/>
      <point x="519.568" y="397.172"/>
      <point x="513" y="305" type="curve"/>
      <point x="854" y="305" type="line"/>
      <point x="847.419" y="397.763"/>
      <point x="757.539" y="389"/>
    </contour>
    <contour>
      <point x="926" y="283" type="curve" smooth="yes"/>
      <point x="926" y="233" type="line"/>
      <point x="513" y="233" type="line"/>
      <point x="517" y="181" type="line" smooth="yes"/>
      <point x="518.368" y="160.069"/>
      <point x="517.507" y="139.993"/>
      <point x="524.846" y="122.383" type="curve" smooth="yes"/>
      <point x="548.146" y="66.4707"/>
      <point x="638.858" y="72"/>
      <point x="686" y="72" type="curve" smooth="yes"/>
      <point x="809" y="72" type="line" smooth="yes"/>
      <point x="890.892" y="72"/>
      <point x="823.056" y="167"/>
      <point x="885.673" y="167" type="curve" smooth="yes"/>
      <point x="913.266" y="167"/>
      <point x="926" y="148.431"/>
      <point x="926" y="108.194" type="curve" smooth="yes"/>
      <point x="926" y="35.6892"/>
      <point x="889.715" y="-0"/>
      <point x="816" y="0" type="curve" smooth="yes"/>
      <point x="686" y="0" type="line" smooth="yes"/>
      <point x="569.432" y="0"/>
      <point x="502.504" y="21.898"/>
      <point x="469" y="71" type="curve"/>
      <point x="428.972" y="29.9176"/>
      <point x="345.961" y="-0"/>
      <point x="272" y="0" type="curve" smooth="yes"/>
      <point x="179" y="0" type="line" smooth="yes"/>
      <point x="106.415" y="0"/>
      <point x="62" y="55.3361"/>
      <point x="62" y="145.77" type="curve" smooth="yes"/>
      <point x="62" y="258.688"/>
      <point x="129.767" y="305"/>
      <point x="295" y="305" type="curve" smooth="yes"/>
      <point x="435" y="305" type="line"/>
      <point x="435" y="347" type="line" smooth="yes"/>
      <point x="435" y="379.774"/>
      <point x="424.456" y="389"/>
      <point x="387" y="389" type="curve" smooth="yes"/>
      <point x="246" y="389" type="line" smooth="yes"/>
      <point x="175.503" y="389"/>
      <point x="134" y="367.954"/>
      <point x="134" y="332.206" type="curve" smooth="yes"/>
      <point x="134" y="308.621"/>
      <point x="120.223" y="294"/>
      <point x="98" y="294" type="curve" smooth="yes"/>
      <point x="73.7634" y="294"/>
      <point x="62" y="309.78"/>
      <point x="62" y="342.292" type="curve" smooth="yes"/>
      <point x="62" y="416.813"/>
      <point x="127.885" y="461"/>
      <point x="239" y="461" type="curve" smooth="yes"/>
      <point x="394" y="461" type="line" smooth="yes"/>
      <point x="442.524" y="461"/>
      <point x="476.973" y="447.22"/>
      <point x="494" y="421" type="curve"/>
      <point x="528.443" y="446.931"/>
      <point x="595.34" y="461"/>
      <point x="684.203" y="461" type="curve" smooth="yes"/>
      <point x="862.331" y="461"/>
      <point x="926" y="414.13"/>
    </contour>
  </outline>
</glyph>
<glyph name="ccedilla" format="1">
  <advance width="624"/>
  <unicode hex="00E7"/>
  <outline>
    <contour>
      <point x="277" y="1" type="curve"/>
      <point x="119.138" y="6.44875"/>
      <point x="61" y="54.0895"/>
      <point x="61" y="178" type="curve" smooth="yes"/>
      <point x="61" y="283" type="line" smooth="yes"/>
      <point x="61" y="414.043"/>
      <point x="127.742" y="461"/>
      <point x="314" y="461" type="curve" smooth="yes"/>
      <point x="455" y="461" type="line" smooth="yes"/>
      <point x="529.067" y="461"/>
      <point x="565" y="425.166"/>
      <point x="565" y="351.304" type="curve" smooth="yes"/>
      <point x="565" y="311.491"/>
      <point x="552.88" y="294"/>
      <point x="525.294" y="294" type="curve" smooth="yes"/>
      <point x="461.347" y="294"/>
      <point x="530.255" y="389"/>
      <point x="448" y="389" type="curve" smooth="yes"/>
      <point x="314" y="389" type="line" smooth="yes"/>
      <point x="242.146" y="389"/>
      <point x="188.551" y="382.231"/>
      <point x="167.492" y="370.496" type="curve" smooth="yes"/>
      <point x="144.708" y="357.799"/>
      <point x="133" y="327.082"/>
      <point x="133" y="280" type="curve" smooth="yes"/>
      <point x="133" y="181" type="line" smooth="yes"/>
      <point x="133" y="133.918"/>
      <point x="144.708" y="103.201"/>
      <point x="167.492" y="90.5045" type="curve" smooth="yes"/>
      <point x="188.551" y="78.769"/>
      <point x="242.145" y="72"/>
      <point x="314" y="72" type="curve" smooth="yes"/>
      <point x="448" y="72" type="line" smooth="yes"/>
      <point x="530.255" y="72"/>
      <point x="461.346" y="167"/>
      <point x="525.176" y="167" type="curve" smooth="yes"/>
      <point x="552.953" y="167"/>
      <point x="565" y="149.271"/>
      <point x="565" y="108.393" type="curve" smooth="yes"/>
      <point x="565" y="-24.4404"/>
      <point x="457.746" y="0"/>
      <point x="349" y="0" type="curve"/>
      <point x="353.494" y="-27.4205"/>
      <point x="418" y="-42.9183"/>
      <point x="418" y="-103.378" type="curve" smooth="yes"/>
      <point x="418" y="-152.85"/>
      <point x="371.947" y="-190"/>
      <point x="310.621" y="-190" type="curve" smooth="yes"/>
      <point x="259.386" y="-190"/>
      <point x="224.388" y="-165.729"/>
      <point x="224.388" y="-130.199" type="curve" smooth="yes"/>
      <point x="224.388" y="-120.593"/>
      <point x="226.679" y="-113.246"/>
      <point x="231" y="-109" type="curve"/>
      <point x="232.692" y="-104.167"/>
      <point x="237.433" y="-101.833"/>
      <point x="245.561" y="-101.833" type="curve" smooth="yes"/>
      <point x="271.794" y="-101.833"/>
      <point x="298.982" y="-124.843"/>
      <point x="324.026" y="-124.843" type="curve" smooth="yes"/>
      <point x="329.31" y="-124.843"/>
      <point x="332.026" y="-123.68"/>
      <point x="333" y="-121" type="curve"/>
      <point x="338.691" y="-120.346"/>
      <point x="346.25" y="-110.917"/>
      <point x="346.25" y="-104.473" type="curve" smooth="yes"/>
      <point x="346.25" y="-89.1662"/>
      <point x="279.133" y="-58.4046"/>
    </contour>
  </outline>
</glyph>
<glyph name="eth" format="1">
  <advance width="605"/>
  <unicode hex="00F0"/>
  <outline>
    <contour>
      <point x="240" y="554" type="curve"/>
      <point x="215.862" y="559.571"/>
      <point x="188.984" y="563"/>
      <point x="169.451" y="563" type="curve" smooth="yes"/>
      <point x="135.912" y="563"/>
      <point x="121" y="573.506"/>
      <point x="121" y="597.135" type="curve" smooth="yes"/>
      <point x="121" y="623.466"/>
      <point x="139.749" y="636"/>
      <point x="179.135" y="636" type="curve" smooth="yes"/>
      <point x="213.805" y="636"/>
      <point x="262.94" y="626.631"/>
      <point x="305" y="612" type="curve"/>
      <point x="323.345" y="629.618"/>
      <point x="343.83" y="652.783"/>
      <point x="370.845" y="652.783" type="curve" smooth="yes"/>
      <point x="392.906" y="652.783"/>
      <point x="409.857" y="638.747"/>
      <point x="409.857" y="620.48" type="curve" smooth="yes"/>
      <point x="409.857" y="605.489"/>
      <point x="398.438" y="588.86"/>
      <point x="380" y="577" type="curve"/>
      <point x="488.186" y="509.57"/>
      <point x="550" y="391.305"/>
      <point x="550" y="251.753" type="curve" smooth="yes"/>
      <point x="550" y="83.7798"/>
      <point x="457.906" y="-16"/>
      <point x="302.871" y="-16" type="curve" smooth="yes"/>
      <point x="148.661" y="-16"/>
      <point x="46" y="78.9261"/>
      <point x="46" y="221.518" type="curve" smooth="yes"/>
      <point x="46" y="364.55"/>
      <point x="149.423" y="456"/>
      <point x="311.182" y="456" type="curve" smooth="yes"/>
      <point x="354.268" y="456"/>
      <point x="390.584" y="449.18"/>
      <point x="423" y="435" type="curve"/>
      <point x="399.227" y="469.996"/>
      <point x="364.883" y="500.259"/>
      <point x="322" y="524" type="curve"/>
      <point x="301.984" y="506.786"/>
      <point x="267.63" y="467.559"/>
      <point x="237.483" y="467.559" type="curve" smooth="yes"/>
      <point x="217.002" y="467.559"/>
      <point x="199.346" y="483.063"/>
      <point x="199.346" y="501.048" type="curve" smooth="yes"/>
      <point x="199.346" y="523.656"/>
      <point x="223.704" y="541.588"/>
    </contour>
    <contour>
      <point x="303.203" y="56" type="curve" smooth="yes"/>
      <point x="408.047" y="56"/>
      <point x="479.237" y="123.712"/>
      <point x="479.237" y="223.435" type="curve" smooth="yes"/>
      <point x="479.237" y="321.035"/>
      <point x="412.037" y="384.311"/>
      <point x="308.385" y="384.311" type="curve" smooth="yes"/>
      <point x="195.353" y="384.311"/>
      <point x="118" y="318.15"/>
      <point x="118" y="221.474" type="curve" smooth="yes"/>
      <point x="118" y="123.82"/>
      <point x="193.906" y="56"/>
    </contour>
  </outline>
</glyph>
<glyph name="oslash" format="1">
  <advance width="656"/>
  <unicode hex="00F8"/>
  <outline>
    <contour>
      <point x="340.072" y="72" type="curve" smooth="yes"/>
      <point x="442.728" y="72"/>
      <point x="523" y="61.0733"/>
      <point x="523" y="181" type="curve" smooth="yes"/>
      <point x="523" y="280" type="line" smooth="yes"/>
      <point x="523" y="303.379"/>
      <point x="520.845" y="320.002"/>
      <point x="516" y="334" type="curve"/>
      <point x="210" y="77" type="line"/>
      <point x="253.471" y="70.2628"/>
      <point x="299.14" y="72"/>
    </contour>
    <contour>
      <point x="522" y="433" type="curve"/>
      <point x="531.583" y="441.433"/>
      <point x="542.434" y="446.061"/>
      <point x="552.625" y="446.061" type="curve" smooth="yes"/>
      <point x="571.512" y="446.061"/>
      <point x="587.124" y="430.594"/>
      <point x="587.124" y="411.884" type="curve" smooth="yes"/>
      <point x="587.124" y="401.728"/>
      <point x="582.425" y="391.386"/>
      <point x="574" y="383" type="curve"/>
      <point x="588.104" y="357.447"/>
      <point x="595" y="324.609"/>
      <point x="595" y="283" type="curve" smooth="yes"/>
      <point x="595" y="178" type="line" smooth="yes"/>
      <point x="595" y="-2.15026"/>
      <point x="456.708" y="-0"/>
      <point x="365.149" y="-0" type="curve" smooth="yes"/>
      <point x="240.625" y="-0"/>
      <point x="185.572" y="5.7517"/>
      <point x="145" y="23" type="curve"/>
      <point x="131.347" y="10.5166"/>
      <point x="117.539" y="3.88377"/>
      <point x="105.204" y="3.88377" type="curve" smooth="yes"/>
      <point x="86.974" y="3.88377"/>
      <point x="73.2522" y="18.1357"/>
      <point x="73.2522" y="37.0697" type="curve" smooth="yes"/>
      <point x="73.2522" y="48.6142"/>
      <point x="78.6001" y="60.1929"/>
      <point x="88" y="69" type="curve"/>
      <point x="69.9228" y="95.1394"/>
      <point x="61" y="131.161"/>
      <point x="61" y="178" type="curve" smooth="yes"/>
      <point x="61" y="283" type="line" smooth="yes"/>
      <point x="61" y="463.579"/>
      <point x="200.06" y="461"/>
      <point x="295.134" y="461" type="curve" smooth="yes"/>
      <point x="423.362" y="461"/>
      <point x="482.809" y="453.663"/>
    </contour>
    <contour>
      <point x="144" y="116" type="curve"/>
      <point x="460" y="381" type="line"/>
      <point x="414.431" y="392.67"/>
      <point x="360.644" y="389"/>
      <point x="305.43" y="389" type="curve" smooth="yes"/>
      <point x="241.98" y="389"/>
      <point x="187.442" y="381.657"/>
      <point x="167.332" y="370.406" type="curve" smooth="yes"/>
      <point x="144.639" y="357.71"/>
      <point x="133" y="327.062"/>
      <point x="133" y="280" type="curve" smooth="yes"/>
      <point x="133" y="181" type="line" smooth="yes"/>
      <point x="133" y="151.502"/>
      <point x="136.428" y="131.244"/>
    </contour>
  </outline>
</glyph>
<glyph name="aogonek" format="1">
  <advance width="594"/>
  <unicode hex="0105"/>
  <outline>
    <contour>
      <point x="438" y="-97.7182" type="curve" smooth="yes"/>
      <point x="438" y="-120.42"/>
      <point x="450.525" y="-135"/>
      <point x="470.028" y="-135" type="curve" smooth="yes"/>
      <point x="492.807" y="-135"/>
      <point x="514.625" y="-118"/>
      <point x="535.266" y="-118" type="curve" smooth="yes"/>
      <point x="551.526" y="-118"/>
      <point x="561.048" y="-128.696"/>
      <point x="561.048" y="-146.961" type="curve" smooth="yes"/>
      <point x="561.048" y="-180.403"/>
      <point x="522.092" y="-206"/>
      <point x="471.196" y="-206" type="curve" smooth="yes"/>
      <point x="412.555" y="-206"/>
      <point x="366" y="-160.379"/>
      <point x="366" y="-102.915" type="curve" smooth="yes"/>
      <point x="366" y="-61.9084"/>
      <point x="395.637" y="-9.98679"/>
      <point x="451" y="46" type="curve"/>
      <point x="451" y="50" type="line"/>
      <point x="411.108" y="16.7674"/>
      <point x="350.746" y="-0"/>
      <point x="271" y="0" type="curve" smooth="yes"/>
      <point x="178" y="0" type="line" smooth="yes"/>
      <point x="105.617" y="0"/>
      <point x="61" y="55.1097"/>
      <point x="61" y="144.514" type="curve" smooth="yes"/>
      <point x="61" y="259.569"/>
      <point x="132.62" y="305"/>
      <point x="314" y="305" type="curve" smooth="yes"/>
      <point x="451" y="305" type="line"/>
      <point x="451" y="347" type="line" smooth="yes"/>
      <point x="451" y="380.238"/>
      <point x="441.612" y="389"/>
      <point x="406" y="389" type="curve" smooth="yes"/>
      <point x="265" y="389" type="line" smooth="yes"/>
      <point x="237.024" y="389"/>
      <point x="133" y="396.122"/>
      <point x="133" y="341.003" type="curve" smooth="yes"/>
      <point x="133" y="319.367"/>
      <point x="118.634" y="305"/>
      <point x="97" y="305" type="curve" smooth="yes"/>
      <point x="72.8512" y="305"/>
      <point x="61" y="320.719"/>
      <point x="61" y="352.75" type="curve" smooth="yes"/>
      <point x="61" y="425.986"/>
      <point x="124.721" y="461"/>
      <point x="258" y="461" type="curve" smooth="yes"/>
      <point x="413" y="461" type="line" smooth="yes"/>
      <point x="494.801" y="461"/>
      <point x="523" y="427.674"/>
      <point x="523" y="331" type="curve" smooth="yes"/>
      <point x="523" y="35" type="line" smooth="yes"/>
      <point x="523" y="17.8123"/>
      <point x="515.179" y="4.17929"/>
      <point x="496.818" y="-10.6383" type="curve" smooth="yes"/>
      <point x="485.429" y="-19.8287"/>
      <point x="438" y="-55.2538"/>
    </contour>
    <contour>
      <point x="451" y="233" type="curve"/>
      <point x="314" y="233" type="line" smooth="yes"/>
      <point x="242.275" y="233"/>
      <point x="187.921" y="226.043"/>
      <point x="166.924" y="214.174" type="curve" smooth="yes"/>
      <point x="146.957" y="202.888"/>
      <point x="133" y="171.88"/>
      <point x="133" y="138.806" type="curve" smooth="yes"/>
      <point x="133" y="101.837"/>
      <point x="153.098" y="72"/>
      <point x="178" y="72" type="curve" smooth="yes"/>
      <point x="271" y="72" type="line" smooth="yes"/>
      <point x="396.471" y="72"/>
      <point x="451" y="120.774"/>
    </contour>
  </outline>
</glyph>
<glyph name="dcroat" format="1">
  <advance width="670"/>
  <unicode hex="0111"/>
  <outline>
    <contour>
      <point x="61" y="283" type="line" smooth="yes"/>
      <point x="61" y="413.407"/>
      <point x="126.24" y="461"/>
      <point x="305" y="461" type="curve" smooth="yes"/>
      <point x="523" y="461" type="line"/>
      <point x="523" y="502" type="line"/>
      <point x="357" y="502" type="line" smooth="yes"/>
      <point x="330.313" y="502"/>
      <point x="316" y="514.101"/>
      <point x="316" y="536.662" type="curve" smooth="yes"/>
      <point x="316" y="560.04"/>
      <point x="331.999" y="575"/>
      <point x="357" y="575" type="curve" smooth="yes"/>
      <point x="523" y="575" type="line"/>
      <point x="523" y="605.12"/>
      <point x="519.226" y="643"/>
      <point x="558.416" y="643" type="curve" smooth="yes"/>
      <point x="599.282" y="643"/>
      <point x="595" y="601.808"/>
      <point x="595" y="575" type="curve"/>
      <point x="630.824" y="575"/>
      <point x="646" y="564.773"/>
      <point x="646" y="540.632" type="curve" smooth="yes"/>
      <point x="646" y="515.686"/>
      <point x="627.932" y="502"/>
      <point x="595" y="502" type="curve"/>
      <point x="595" y="35" type="line" smooth="yes"/>
      <point x="595" y="7.26104"/>
      <point x="582.696" y="-7"/>
      <point x="558.764" y="-7" type="curve" smooth="yes"/>
      <point x="532.792" y="-7"/>
      <point x="523" y="8.60696"/>
      <point x="523" y="50" type="curve"/>
      <point x="479.539" y="14.9606"/>
      <point x="420.063" y="-0"/>
      <point x="324.228" y="-0" type="curve" smooth="yes"/>
      <point x="128.143" y="-0"/>
      <point x="61" y="45.4032"/>
      <point x="61" y="178" type="curve" smooth="yes"/>
    </contour>
    <contour>
      <point x="133" y="181" type="line" smooth="yes"/>
      <point x="133" y="61.0541"/>
      <point x="213.319" y="72"/>
      <point x="313" y="72" type="curve" smooth="yes"/>
      <point x="342" y="72" type="line" smooth="yes"/>
      <point x="465.191" y="72"/>
      <point x="523" y="122.144"/>
      <point x="523" y="229" type="curve" smooth="yes"/>
      <point x="523" y="389" type="line"/>
      <point x="305" y="389" type="line" smooth="yes"/>
      <point x="207.629" y="389"/>
      <point x="133" y="397.949"/>
      <point x="133" y="280" type="curve" smooth="yes"/>
    </contour>
  </outline>
</glyph>
<glyph name="kgreenlandic" format="1">
  <advance width="608"/>
  <unicode hex="0138"/>
  <outline>
    <contour>
      <point x="147" y="267" type="line"/>
      <point x="249" y="267" type="line" smooth="yes"/>
      <point x="303.442" y="267"/>
      <point x="347.645" y="469"/>
      <point x="506.517" y="469" type="curve" smooth="yes"/>
      <point x="545.37" y="469"/>
      <point x="566" y="456.962"/>
      <point x="566" y="434.292" type="curve" smooth="yes"/>
      <point x="566" y="390.671"/>
      <point x="490.602" y="396.104"/>
      <point x="448.378" y="361.132" type="curve" smooth="yes"/>
      <point x="417.348" y="335.431"/>
      <point x="393.403" y="278.937"/>
      <point x="351" y="240" type="curve"/>
      <point x="406.111" y="218.394"/>
      <point x="449.471" y="178.975"/>
      <point x="470.135" y="131.692" type="curve" smooth="yes"/>
      <point x="478.121" y="113.417"/>
      <point x="495.465" y="65"/>
      <point x="526.938" y="65" type="curve" smooth="yes"/>
      <point x="548.339" y="65"/>
      <point x="566" y="47.8013"/>
      <point x="566" y="26.9599" type="curve" smooth="yes"/>
      <point x="566" y="3.998"/>
      <point x="548.663" y="-7"/>
      <point x="512.467" y="-7" type="curve" smooth="yes"/>
      <point x="401.245" y="-7"/>
      <point x="409.785" y="93.1731"/>
      <point x="343.731" y="151.694" type="curve" smooth="yes"/>
      <point x="308.633" y="182.79"/>
      <point x="261.533" y="195.108"/>
      <point x="177.74" y="195.108" type="curve"/>
      <point x="147" y="195" type="line"/>
      <point x="147.249" y="27.2331" type="line" smooth="yes"/>
      <point x="147.278" y="8.11792"/>
      <point x="132.249" y="-5.89361"/>
      <point x="111.717" y="-5.89361" type="curve" smooth="yes"/>
      <point x="85.3271" y="-5.89361"/>
      <point x="74.3746" y="35.8281"/>
      <point x="74.3746" y="136.359" type="curve" smooth="yes"/>
      <point x="74.3746" y="160.145"/>
      <point x="75" y="294.072"/>
      <point x="75" y="323.77" type="curve" smooth="yes"/>
      <point x="75" y="436.786"/>
      <point x="82.7728" y="466.953"/>
      <point x="111.893" y="466.953" type="curve" smooth="yes"/>
      <point x="135.186" y="466.953"/>
      <point x="147" y="453.845"/>
      <point x="147" y="428" type="curve" smooth="yes"/>
    </contour>
  </outline>
</glyph>
<glyph name="lslash" format="1">
  <advance width="336"/>
  <unicode hex="0142"/>
  <outline>
    <contour>
      <point x="238.336" y="-0" type="curve" smooth="yes"/>
      <point x="156.544" y="-0"/>
      <point x="127" y="35.2925"/>
      <point x="127" y="133" type="curve" smooth="yes"/>
      <point x="127" y="291" type="line"/>
      <point x="108.649" y="281.824"/>
      <point x="89.3864" y="267.823"/>
      <point x="69.2807" y="267.823" type="curve" smooth="yes"/>
      <point x="48.1826" y="267.823"/>
      <point x="31.6842" y="283.852"/>
      <point x="31.6842" y="304.351" type="curve" smooth="yes"/>
      <point x="31.6842" y="318.491"/>
      <point x="39.3535" y="327.523"/>
      <point x="60" y="338" type="curve" smooth="yes"/>
      <point x="127" y="372" type="line"/>
      <point x="127" y="598" type="line" smooth="yes"/>
      <point x="127" y="627.598"/>
      <point x="139.321" y="643"/>
      <point x="163" y="643" type="curve" smooth="yes"/>
      <point x="186.679" y="643"/>
      <point x="199" y="627.598"/>
      <point x="199" y="598" type="curve" smooth="yes"/>
      <point x="199" y="408" type="line"/>
      <point x="217.621" y="417.611"/>
      <point x="230.781" y="428"/>
      <point x="247.343" y="428" type="curve" smooth="yes"/>
      <point x="268.467" y="428"/>
      <point x="289.33" y="410.859"/>
      <point x="289.33" y="393.503" type="curve" smooth="yes"/>
      <point x="289.33" y="361.512"/>
      <point x="217.424" y="336.15"/>
      <point x="199" y="327" type="curve"/>
      <point x="199" y="118" type="line" smooth="yes"/>
      <point x="199" y="32.0325"/>
      <point x="289" y="105.597"/>
      <point x="289" y="39.0767" type="curve" smooth="yes"/>
      <point x="289" y="11.6777"/>
      <point x="273.86" y="-0"/>
    </contour>
  </outline>
</glyph>
<glyph name="OE" format="1">
  <advance width="762"/>
  <unicode hex="0152"/>
  <outline>
    <contour>
      <point x="397" y="625" type="curve"/>
      <point x="402.888" y="632.193"/>
      <point x="412.925" y="636"/>
      <point x="426" y="636" type="curve" smooth="yes"/>
      <point x="675" y="636" type="line" smooth="yes"/>
      <point x="704.584" y="636"/>
      <point x="720" y="624.503"/>
      <point x="720" y="602.44" type="curve" smooth="yes"/>
      <point x="720" y="579.968"/>
      <point x="704.363" y="568"/>
      <point x="675" y="568" type="curve" smooth="yes"/>
      <point x="465" y="568" type="line"/>
      <point x="465" y="394" type="line"/>
      <point x="554" y="394" type="line" smooth="yes"/>
      <point x="585.321" y="394"/>
      <point x="602" y="381.341"/>
      <point x="602" y="357.567" type="curve" smooth="yes"/>
      <point x="602" y="334.199"/>
      <point x="585.537" y="322"/>
      <point x="554" y="322" type="curve" smooth="yes"/>
      <point x="465" y="322" type="line"/>
      <point x="465" y="72" type="line"/>
      <point x="669" y="72" type="line" smooth="yes"/>
      <point x="698.428" y="72"/>
      <point x="714" y="59.3716"/>
      <point x="714" y="35.5062" type="curve" smooth="yes"/>
      <point x="714" y="12.069"/>
      <point x="698.704" y="-0"/>
      <point x="669" y="0" type="curve" smooth="yes"/>
      <point x="433" y="0" type="line" smooth="yes"/>
      <point x="420.65" y="0"/>
      <point x="409.739" y="4.22364"/>
      <point x="402" y="12" type="curve"/>
      <point x="369.614" y="-1.60232"/>
      <point x="332.871" y="-9"/>
      <point x="297.697" y="-9" type="curve" smooth="yes"/>
      <point x="167.098" y="-9"/>
      <point x="64" y="96.4372"/>
      <point x="64" y="230" type="curve" smooth="yes"/>
      <point x="64" y="406" type="line" smooth="yes"/>
      <point x="64" y="538.865"/>
      <point x="167.633" y="645"/>
      <point x="297.365" y="645" type="curve" smooth="yes"/>
      <point x="332.612" y="645"/>
      <point x="369.094" y="637.677"/>
    </contour>
    <contour>
      <point x="393" y="90" type="curve"/>
      <point x="393" y="546" type="line"/>
      <point x="374.212" y="563.905"/>
      <point x="344.666" y="573.573"/>
      <point x="308.735" y="573.573" type="curve" smooth="yes"/>
      <point x="210.409" y="573.573"/>
      <point x="135.618" y="505.039"/>
      <point x="135.618" y="414.94" type="curve"/>
      <point x="135.801" y="224.143" type="line"/>
      <point x="135.801" y="131.717"/>
      <point x="209.448" y="62.4841"/>
      <point x="307.767" y="62.4841" type="curve" smooth="yes"/>
      <point x="343.742" y="62.4841"/>
      <point x="373.591" y="72.1201"/>
    </contour>
  </outline>
</glyph>
<glyph name="oe" format="1">
  <advance width="787"/>
  <unicode hex="0153"/>
  <outline>
    <contour>
      <point x="441" y="307" type="curve"/>
      <point x="655" y="307" type="line"/>
      <point x="652.798" y="370.973"/>
      <point x="629.811" y="389"/>
      <point x="550.438" y="389" type="curve" smooth="yes"/>
      <point x="469.876" y="389"/>
      <point x="444.409" y="369.918"/>
    </contour>
    <contour>
      <point x="134" y="280" type="curve" smooth="yes"/>
      <point x="134" y="181" type="line" smooth="yes"/>
      <point x="134" y="94.2509"/>
      <point x="157.283" y="72"/>
      <point x="248.058" y="72" type="curve" smooth="yes"/>
      <point x="341.561" y="72"/>
      <point x="369" y="96.7298"/>
      <point x="369" y="181" type="curve" smooth="yes"/>
      <point x="369" y="280" type="line" smooth="yes"/>
      <point x="369" y="364.27"/>
      <point x="341.561" y="389"/>
      <point x="248.058" y="389" type="curve" smooth="yes"/>
      <point x="157.283" y="389"/>
      <point x="134" y="366.749"/>
    </contour>
    <contour>
      <point x="406" y="60" type="curve"/>
      <point x="374.965" y="19.5038"/>
      <point x="322.434" y="-0"/>
      <point x="244.399" y="-0" type="curve" smooth="yes"/>
      <point x="115.471" y="-0"/>
      <point x="62" y="52.1812"/>
      <point x="62" y="178" type="curve" smooth="yes"/>
      <point x="62" y="283" type="line" smooth="yes"/>
      <point x="62" y="407.821"/>
      <point x="115.921" y="461"/>
      <point x="242.483" y="461" type="curve" smooth="yes"/>
      <point x="317.57" y="461"/>
      <point x="370.348" y="442.048"/>
      <point x="404" y="403" type="curve"/>
      <point x="433.847" y="441.484"/>
      <point x="484.721" y="461"/>
      <point x="555.194" y="461" type="curve" smooth="yes"/>
      <point x="674.891" y="461"/>
      <point x="727" y="407.012"/>
      <point x="727" y="283" type="curve" smooth="yes"/>
      <point x="727" y="235" type="line"/>
      <point x="441" y="235" type="line"/>
      <point x="441" y="181" type="line" smooth="yes"/>
      <point x="441" y="106.718"/>
      <point x="479.745" y="72"/>
      <point x="562.643" y="72" type="curve" smooth="yes"/>
      <point x="706.007" y="72"/>
      <point x="619.298" y="167"/>
      <point x="688.785" y="167" type="curve" smooth="yes"/>
      <point x="715.7" y="167"/>
      <point x="727" y="153.053"/>
      <point x="727" y="119.833" type="curve" smooth="yes"/>
      <point x="727" y="38.7055"/>
      <point x="676.499" y="-0"/>
      <point x="570.649" y="-0" type="curve" smooth="yes"/>
      <point x="492.69" y="-0"/>
      <point x="436.225" y="20.5764"/>
    </contour>
  </outline>
</glyph>
<glyph name="Tcommaaccent" format="1">
  <advance width="521"/>
  <unicode hex="0162"/>
  <outline>
    <contour>
      <point x="171" y="-130.438" type="curve" smooth="yes"/>
      <point x="171" y="-112.659"/>
      <point x="180.571" y="-102"/>
      <point x="196.536" y="-102" type="curve" smooth="yes"/>
      <point x="219.669" y="-102"/>
      <point x="242.331" y="-123"/>
      <point x="270.652" y="-123" type="curve" smooth="yes"/>
      <point x="286.576" y="-123"/>
      <point x="294" y="-115.05"/>
      <point x="294" y="-98" type="curve"/>
      <point x="294" y="-97.0751"/>
      <point x="290.988" y="-95.0597"/>
      <point x="290.404" y="-94.632" type="curve"/>
      <point x="274.601" y="-83.0515"/>
      <point x="259.115" y="-72.37"/>
      <point x="245.933" y="-57.3455" type="curve" smooth="yes"/>
      <point x="229.032" y="-38.0815"/>
      <point x="220" y="-16.3681"/>
      <point x="220" y="5" type="curve" smooth="yes"/>
      <point x="220" y="564" type="line"/>
      <point x="70" y="564" type="line" smooth="yes"/>
      <point x="44.7026" y="564"/>
      <point x="26.4706" y="579.078"/>
      <point x="26.4706" y="600" type="curve" smooth="yes"/>
      <point x="26.4706" y="620.922"/>
      <point x="44.7026" y="636"/>
      <point x="70" y="636" type="curve" smooth="yes"/>
      <point x="451" y="636" type="line" smooth="yes"/>
      <point x="479.338" y="636"/>
      <point x="494" y="623.725"/>
      <point x="494" y="600" type="curve" smooth="yes"/>
      <point x="494" y="576.275"/>
      <point x="479.338" y="564"/>
      <point x="451" y="564" type="curve" smooth="yes"/>
      <point x="303" y="564" type="line"/>
      <point x="303" y="4" type="line" smooth="yes"/>
      <point x="303" y="-32.6039"/>
      <point x="366" y="-33.4655"/>
      <point x="366" y="-98.6333" type="curve" smooth="yes"/>
      <point x="366" y="-150.479"/>
      <point x="322.053" y="-190"/>
      <point x="264.401" y="-190" type="curve" smooth="yes"/>
      <point x="213.002" y="-190"/>
      <point x="171" y="-163.215"/>
    </contour>
  </outline>
</glyph>
<glyph name="tcommaaccent" format="1">
  <advance width="370"/>
  <unicode hex="0163"/>
  <outline>
    <contour>
      <point x="150" y="181" type="line" smooth="yes"/>
      <point x="150" y="71.5225"/>
      <point x="206.674" y="72"/>
      <point x="231.046" y="72" type="curve" smooth="yes"/>
      <point x="324.182" y="72"/>
      <point x="346" y="65.0408"/>
      <point x="346" y="35.3343" type="curve" smooth="yes"/>
      <point x="346" y="-8.58718"/>
      <point x="298.4" y="0.726561"/>
      <point x="267" y="1" type="curve"/>
      <point x="272.926" y="-33.7917"/>
      <point x="336" y="-35.3396"/>
      <point x="336" y="-99.4487" type="curve" smooth="yes"/>
      <point x="336" y="-151.897"/>
      <point x="290.817" y="-190"/>
      <point x="228.621" y="-190" type="curve" smooth="yes"/>
      <point x="177.369" y="-190"/>
      <point x="142.388" y="-165.701"/>
      <point x="142.388" y="-130.101" type="curve" smooth="yes"/>
      <point x="142.388" y="-120.443"/>
      <point x="144.703" y="-113.054"/>
      <point x="149" y="-109" type="curve"/>
      <point x="150.692" y="-104.167"/>
      <point x="155.433" y="-101.833"/>
      <point x="163.56" y="-101.833" type="curve" smooth="yes"/>
      <point x="189.788" y="-101.833"/>
      <point x="216.988" y="-124.843"/>
      <point x="242.027" y="-124.843" type="curve" smooth="yes"/>
      <point x="247.31" y="-124.843"/>
      <point x="250.026" y="-123.68"/>
      <point x="251" y="-121" type="curve"/>
      <point x="258.286" y="-120.163"/>
      <point x="264" y="-110.054"/>
      <point x="264" y="-98" type="curve"/>
      <point x="264" y="-97.1296"/>
      <point x="262.28" y="-95.9544"/>
      <point x="261.793" y="-95.5509" type="curve"/>
      <point x="228.672" y="-68.0919"/>
      <point x="195" y="-43.1834"/>
      <point x="195" y="5" type="curve" smooth="yes"/>
      <point x="195" y="10" type="line"/>
      <point x="114.81" y="29.3089"/>
      <point x="78" y="82.165"/>
      <point x="78" y="178" type="curve" smooth="yes"/>
      <point x="78" y="394" type="line"/>
      <point x="59.6066" y="396.945"/>
      <point x="47" y="410.365"/>
      <point x="47" y="427" type="curve" smooth="yes"/>
      <point x="47" y="443.635"/>
      <point x="59.6066" y="457.055"/>
      <point x="78" y="460" type="curve"/>
      <point x="78" y="555" type="line" smooth="yes"/>
      <point x="78" y="585.32"/>
      <point x="90.1103" y="601"/>
      <point x="113.527" y="601" type="curve" smooth="yes"/>
      <point x="137.363" y="601"/>
      <point x="150" y="585.063"/>
      <point x="150" y="555" type="curve" smooth="yes"/>
      <point x="150" y="461" type="line"/>
      <point x="278" y="461" type="line" smooth="yes"/>
      <point x="308.063" y="461"/>
      <point x="324" y="448.363"/>
      <point x="324" y="424.526" type="curve" smooth="yes"/>
      <point x="324" y="401.11"/>
      <point x="308.32" y="389"/>
      <point x="278" y="389" type="curve" smooth="yes"/>
      <point x="150" y="389" type="line"/>
    </contour>
  </outline>
</glyph>
<glyph name="Tbar" format="1">
  <advance width="520"/>
  <unicode hex="0166"/>
  <outline>
    <contour>
      <point x="450" y="636" type="line" smooth="yes"/>
      <point x="478.338" y="636"/>
      <point x="493" y="623.725"/>
      <point x="493" y="600" type="curve" smooth="yes"/>
      <point x="493" y="576.275"/>
      <point x="478.338" y="564"/>
      <point x="450" y="564" type="curve" smooth="yes"/>
      <point x="302" y="564" type="line"/>
      <point x="302" y="376" type="line"/>
      <point x="376" y="376" type="line" smooth="yes"/>
      <point x="404.458" y="376"/>
      <point x="420" y="363.769"/>
      <point x="420" y="341.375" type="curve" smooth="yes"/>
      <point x="420" y="318.424"/>
      <point x="402.315" y="303"/>
      <point x="376" y="303" type="curve" smooth="yes"/>
      <point x="302" y="303" type="line"/>
      <point x="302" y="33" type="line" smooth="yes"/>
      <point x="302" y="9.59865"/>
      <point x="284.177" y="-7.53214"/>
      <point x="259.829" y="-7.53214" type="curve" smooth="yes"/>
      <point x="235.876" y="-7.53214"/>
      <point x="219" y="9.22136"/>
      <point x="219" y="33" type="curve" smooth="yes"/>
      <point x="219" y="303" type="line"/>
      <point x="142" y="303" type="line" smooth="yes"/>
      <point x="115.315" y="303"/>
      <point x="101" y="315.103"/>
      <point x="101" y="337.664" type="curve" smooth="yes"/>
      <point x="101" y="361.04"/>
      <point x="117" y="376"/>
      <point x="142" y="376" type="curve" smooth="yes"/>
      <point x="219" y="376" type="line"/>
      <point x="219" y="564" type="line"/>
      <point x="69" y="564" type="line" smooth="yes"/>
      <point x="43.7025" y="564"/>
      <point x="25.4706" y="579.078"/>
      <point x="25.4706" y="600" type="curve" smooth="yes"/>
      <point x="25.4706" y="620.922"/>
      <point x="43.7025" y="636"/>
      <point x="69" y="636" type="curve" smooth="yes"/>
    </contour>
  </outline>
</glyph>
<glyph name="uogonek" format="1">
  <advance width="677"/>
  <unicode hex="0173"/>
  <outline>
    <contour>
      <point x="519" y="-98.5465" type="curve" smooth="yes"/>
      <point x="519" y="-119.585"/>
      <point x="531.98" y="-134"/>
      <point x="550.925" y="-134" type="curve" smooth="yes"/>
      <point x="573.614" y="-134"/>
      <point x="596.569" y="-117"/>
      <point x="617.941" y="-117" type="curve" smooth="yes"/>
      <point x="633.521" y="-117"/>
      <point x="642" y="-126.151"/>
      <point x="642" y="-142.964" type="curve" smooth="yes"/>
      <point x="642" y="-176.77"/>
      <point x="600.918" y="-204.032"/>
      <point x="549.975" y="-204.032" type="curve" smooth="yes"/>
      <point x="492.601" y="-204.032"/>
      <point x="447" y="-159.05"/>
      <point x="447" y="-102.455" type="curve" smooth="yes"/>
      <point x="447" y="-61.0801"/>
      <point x="476.603" y="-9.02863"/>
      <point x="532" y="47" type="curve"/>
      <point x="532" y="50" type="line"/>
      <point x="488.544" y="14.9618"/>
      <point x="429.06" y="-0"/>
      <point x="333.213" y="-0" type="curve" smooth="yes"/>
      <point x="137.142" y="-0"/>
      <point x="70" y="45.4054"/>
      <point x="70" y="178" type="curve" smooth="yes"/>
      <point x="70" y="426" type="line" smooth="yes"/>
      <point x="70" y="453.702"/>
      <point x="82.2552" y="468"/>
      <point x="106" y="468" type="curve" smooth="yes"/>
      <point x="129.745" y="468"/>
      <point x="142" y="453.702"/>
      <point x="142" y="426" type="curve" smooth="yes"/>
      <point x="142" y="181" type="line" smooth="yes"/>
      <point x="142" y="60.9277"/>
      <point x="222.648" y="72"/>
      <point x="322" y="72" type="curve" smooth="yes"/>
      <point x="351" y="72" type="line" smooth="yes"/>
      <point x="423.14" y="72"/>
      <point x="473.113" y="90.1474"/>
      <point x="498.995" y="125.744" type="curve" smooth="yes"/>
      <point x="518.086" y="152"/>
      <point x="532" y="196.794"/>
      <point x="532" y="232" type="curve" smooth="yes"/>
      <point x="532" y="426" type="line" smooth="yes"/>
      <point x="532" y="453.702"/>
      <point x="544.255" y="468"/>
      <point x="568" y="468" type="curve" smooth="yes"/>
      <point x="591.745" y="468"/>
      <point x="604" y="453.702"/>
      <point x="604" y="426" type="curve" smooth="yes"/>
      <point x="604" y="36" type="line" smooth="yes"/>
      <point x="604" y="12.6145"/>
      <point x="595.864" y="-2.24198"/>
      <point x="581" y="-6" type="curve"/>
      <point x="548.273" y="-29.3706"/>
      <point x="519" y="-73.0667"/>
    </contour>
  </outline>
</glyph>
<glyph name="Ohorn" format="1">
  <advance width="670"/>
  <unicode hex="01A0"/>
  <outline>
    <contour>
      <point x="136" y="403" type="curve" smooth="yes"/>
      <point x="136" y="233" type="line" smooth="yes"/>
      <point x="136" y="124.427"/>
      <point x="201.04" y="63"/>
      <point x="316" y="63" type="curve" smooth="yes"/>
      <point x="430.96" y="63"/>
      <point x="496" y="124.427"/>
      <point x="496" y="233" type="curve" smooth="yes"/>
      <point x="496" y="403" type="line" smooth="yes"/>
      <point x="496" y="511.546"/>
      <point x="430.932" y="573"/>
      <point x="316" y="573" type="curve" smooth="yes"/>
      <point x="201.068" y="573"/>
      <point x="136" y="511.546"/>
    </contour>
    <contour>
      <point x="64" y="230" type="curve" smooth="yes"/>
      <point x="64" y="406" type="line" smooth="yes"/>
      <point x="64" y="551.532"/>
      <point x="162.942" y="645"/>
      <point x="316.997" y="645" type="curve" smooth="yes"/>
      <point x="412.375" y="645"/>
      <point x="487.651" y="608.77"/>
      <point x="531" y="542" type="curve"/>
      <point x="575.214" y="542.109"/>
      <point x="608.605" y="557.758"/>
      <point x="608.605" y="578.371" type="curve" smooth="yes"/>
      <point x="608.605" y="605.09"/>
      <point x="567.737" y="609.898"/>
      <point x="567.737" y="638.251" type="curve" smooth="yes"/>
      <point x="567.737" y="657.05"/>
      <point x="587.339" y="676"/>
      <point x="606.785" y="676" type="curve" smooth="yes"/>
      <point x="639.292" y="676"/>
      <point x="681" y="612.115"/>
      <point x="681" y="562.325" type="curve" smooth="yes"/>
      <point x="681" y="514.208"/>
      <point x="634.934" y="480.201"/>
      <point x="560" y="473" type="curve"/>
      <point x="565.311" y="450.642"/>
      <point x="568" y="428.117"/>
      <point x="568" y="406" type="curve" smooth="yes"/>
      <point x="568" y="230" type="line" smooth="yes"/>
      <point x="568" y="85.5872"/>
      <point x="467.837" y="-9"/>
      <point x="314.912" y="-9" type="curve" smooth="yes"/>
      <point x="162.62" y="-9"/>
      <point x="64" y="84.9375"/>
    </contour>
  </outline>
</glyph>
<glyph name="uhorn" format="1">
  <advance width="731"/>
  <unicode hex="01B0"/>
  <outline>
    <contour>
      <point x="567.479" y="468" type="curve" smooth="yes"/>
      <point x="592.923" y="468"/>
      <point x="606.065" y="447.846"/>
      <point x="606.065" y="408.825" type="curve" smooth="yes"/>
      <point x="606.065" y="394.215"/>
      <point x="604.584" y="379.621"/>
      <point x="604" y="365" type="curve"/>
      <point x="652.093" y="364.549"/>
      <point x="679" y="376.229"/>
      <point x="679" y="397.559" type="curve" smooth="yes"/>
      <point x="679" y="425.176"/>
      <point x="641" y="435.408"/>
      <point x="641" y="464.454" type="curve" smooth="yes"/>
      <point x="641" y="483.143"/>
      <point x="657.6" y="499"/>
      <point x="677.166" y="499" type="curve" smooth="yes"/>
      <point x="712.365" y="499"/>
      <point x="753" y="437.619"/>
      <point x="753" y="384.449" type="curve" smooth="yes"/>
      <point x="753" y="329.523"/>
      <point x="698.047" y="296.165"/>
      <point x="604" y="294" type="curve"/>
      <point x="604" y="36" type="line" smooth="yes"/>
      <point x="604" y="8.24583"/>
      <point x="591.331" y="-7"/>
      <point x="568.268" y="-7" type="curve" smooth="yes"/>
      <point x="542.815" y="-7"/>
      <point x="531.317" y="11.0705"/>
      <point x="532" y="50" type="curve"/>
      <point x="488.181" y="14.7972"/>
      <point x="428.094" y="-0"/>
      <point x="328.963" y="-0" type="curve" smooth="yes"/>
      <point x="138.242" y="-0"/>
      <point x="70" y="46.9069"/>
      <point x="70" y="178" type="curve" smooth="yes"/>
      <point x="70" y="426" type="line" smooth="yes"/>
      <point x="70" y="452.832"/>
      <point x="83.0015" y="468"/>
      <point x="106" y="468" type="curve" smooth="yes"/>
      <point x="128.999" y="468"/>
      <point x="142" y="452.832"/>
      <point x="142" y="426" type="curve" smooth="yes"/>
      <point x="142" y="181" type="line" smooth="yes"/>
      <point x="142" y="91.5061"/>
      <point x="176.021" y="71.6346"/>
      <point x="329.238" y="71.6346" type="curve" smooth="yes"/>
      <point x="473.748" y="71.6346"/>
      <point x="532" y="117.706"/>
      <point x="532" y="232" type="curve" smooth="yes"/>
      <point x="532" y="426" type="line" smooth="yes"/>
      <point x="532" y="452.744"/>
      <point x="544.887" y="468"/>
    </contour>
  </outline>
</glyph>
<glyph name="ogonek" format="1">
  <advance width="234"/>
  <unicode hex="02DB"/>
  <outline>
    <contour>
      <point x="102" y="-98.5395" type="curve" smooth="yes"/>
      <point x="102" y="-120.388"/>
      <point x="114.967" y="-135"/>
      <point x="134.356" y="-135" type="curve" smooth="yes"/>
      <point x="157.267" y="-135"/>
      <point x="177.094" y="-118"/>
      <point x="199.389" y="-118" type="curve" smooth="yes"/>
      <point x="216.012" y="-118"/>
      <point x="225" y="-127.754"/>
      <point x="225" y="-145.794" type="curve" smooth="yes"/>
      <point x="225" y="-179.884"/>
      <point x="185.773" y="-206"/>
      <point x="134.57" y="-206" type="curve" smooth="yes"/>
      <point x="76.5075" y="-206"/>
      <point x="30" y="-160.091"/>
      <point x="30" y="-102.776" type="curve" smooth="yes"/>
      <point x="30" y="-60.8872"/>
      <point x="60.9899" y="-7.93739"/>
      <point x="120" y="51" type="curve"/>
      <point x="174" y="0" type="line"/>
      <point x="135.332" y="-23.9298"/>
      <point x="102" y="-69.5488"/>
    </contour>
  </outline>
</glyph>
<glyph name="tilde" format="1">
  <advance width="401"/>
  <unicode hex="02DC"/>
  <outline>
    <contour>
      <point x="157.991" y="207.006" type="curve" smooth="yes"/>
      <point x="131.83" y="207.006"/>
      <point x="115.777" y="166.513"/>
      <point x="87.4443" y="166.513" type="curve" smooth="yes"/>
      <point x="69.0073" y="166.513"/>
      <point x="50.0553" y="182.734"/>
      <point x="50.0553" y="198.515" type="curve" smooth="yes"/>
      <point x="50.0553" y="228.936"/>
      <point x="115.247" y="284.072"/>
      <point x="151.217" y="284.072" type="curve" smooth="yes"/>
      <point x="182.258" y="284.072"/>
      <point x="217.43" y="243.994"/>
      <point x="242.1" y="243.994" type="curve" smooth="yes"/>
      <point x="266.748" y="243.994"/>
      <point x="287.89" y="284.001"/>
      <point x="315.763" y="284.001" type="curve" smooth="yes"/>
      <point x="333.672" y="284.001"/>
      <point x="351.585" y="268.6"/>
      <point x="351.585" y="253.203" type="curve" smooth="yes"/>
      <point x="351.585" y="222.326"/>
      <point x="286.535" y="166.928"/>
      <point x="250.278" y="166.928" type="curve" smooth="yes"/>
      <point x="218.885" y="166.928"/>
      <point x="184.017" y="207.006"/>
    </contour>
  </outline>
</glyph>
<glyph name="hungarumlaut" format="1">
  <advance width="373"/>
  <unicode hex="02DD"/>
  <outline>
    <contour>
      <point x="52.6905" y="494.984" type="curve" smooth="yes"/>
      <point x="34.8608" y="494.984"/>
      <point x="20.6297" y="511.461"/>
      <point x="20.6297" y="532.104" type="curve" smooth="yes"/>
      <point x="20.6297" y="541.992"/>
      <point x="24.0876" y="551.917"/>
      <point x="30" y="559" type="curve" smooth="yes"/>
      <point x="126" y="674" type="line" smooth="yes"/>
      <point x="136.081" y="686.076"/>
      <point x="148.633" y="693.039"/>
      <point x="160.321" y="693.039" type="curve" smooth="yes"/>
      <point x="178.305" y="693.039"/>
      <point x="193.657" y="676.058"/>
      <point x="193.657" y="656.166" type="curve" smooth="yes"/>
      <point x="193.657" y="646.827"/>
      <point x="189.911" y="637.279"/>
      <point x="183" y="629" type="curve" smooth="yes"/>
      <point x="87" y="514" type="line" smooth="yes"/>
      <point x="76.9177" y="501.922"/>
      <point x="64.3996" y="494.984"/>
    </contour>
    <contour>
      <point x="212.69" y="494.984" type="curve" smooth="yes"/>
      <point x="194.861" y="494.984"/>
      <point x="180.629" y="511.461"/>
      <point x="180.629" y="532.104" type="curve" smooth="yes"/>
      <point x="180.629" y="541.992"/>
      <point x="184.088" y="551.917"/>
      <point x="190" y="559" type="curve" smooth="yes"/>
      <point x="286" y="674" type="line" smooth="yes"/>
      <point x="296.081" y="686.076"/>
      <point x="308.633" y="693.039"/>
      <point x="320.321" y="693.039" type="curve" smooth="yes"/>
      <point x="338.305" y="693.039"/>
      <point x="353.657" y="676.058"/>
      <point x="353.657" y="656.166" type="curve" smooth="yes"/>
      <point x="353.657" y="646.827"/>
      <point x="349.911" y="637.279"/>
      <point x="343" y="629" type="curve" smooth="yes"/>
      <point x="247" y="514" type="line" smooth="yes"/>
      <point x="236.918" y="501.922"/>
      <point x="224.4" y="494.984"/>
    </contour>
  </outline>
</glyph>
<glyph name="gravecomb" format="1">
  <advance width="0"/>
  <unicode hex="0300"/>
  <outline>
    <contour>
      <point x="-232.979" y="525.114" type="curve" smooth="yes"/>
      <point x="-232.979" y="506.591"/>
      <point x="-249.647" y="489.959"/>
      <point x="-268.21" y="489.959" type="curve" smooth="yes"/>
      <point x="-278.691" y="489.959"/>
      <point x="-289.307" y="495.477"/>
      <point x="-301" y="507" type="curve" smooth="yes"/>
      <point x="-370" y="575" type="line" smooth="yes"/>
      <point x="-378.528" y="583.404"/>
      <point x="-383.743" y="595.158"/>
      <point x="-383.743" y="605.973" type="curve" smooth="yes"/>
      <point x="-383.743" y="624.587"/>
      <point x="-368.241" y="640.105"/>
      <point x="-349.645" y="640.105" type="curve" smooth="yes"/>
      <point x="-338.62" y="640.105"/>
      <point x="-326.494" y="634.494"/>
      <point x="-317" y="625" type="curve" smooth="yes"/>
      <point x="-247" y="555" type="line" smooth="yes"/>
      <point x="-238.05" y="546.05"/>
      <point x="-232.979" y="535.241"/>
    </contour>
  </outline>
</glyph>
<glyph name="uni0302" format="1">
  <advance width="0"/>
  <unicode hex="0302"/>
  <outline>
    <contour>
      <point x="-336" y="678" type="line"/>
      <point x="-269" y="678" type="line"/>
      <point x="-158" y="562" type="line" smooth="yes"/>
      <point x="-152.932" y="556.704"/>
      <point x="-150" y="548.343"/>
      <point x="-150" y="539.186" type="curve" smooth="yes"/>
      <point x="-150" y="521.474"/>
      <point x="-162.142" y="510"/>
      <point x="-180.886" y="510" type="curve" smooth="yes"/>
      <point x="-197.33" y="510"/>
      <point x="-207.584" y="519.444"/>
      <point x="-218" y="528" type="curve" smooth="yes"/>
      <point x="-302" y="597" type="line"/>
      <point x="-385" y="528" type="line" smooth="yes"/>
      <point x="-395.283" y="519.451"/>
      <point x="-405.805" y="510"/>
      <point x="-422.184" y="510" type="curve" smooth="yes"/>
      <point x="-440.854" y="510"/>
      <point x="-453" y="521.467"/>
      <point x="-453" y="539.092" type="curve" smooth="yes"/>
      <point x="-453" y="548.212"/>
      <point x="-450.069" y="556.606"/>
      <point x="-445" y="562" type="curve" smooth="yes"/>
    </contour>
  </outline>
</glyph>
<glyph name="uni0311" format="1">
  <advance width="0"/>
  <unicode hex="0311"/>
  <outline>
    <contour>
      <point x="-434" y="492" type="line"/>
      <point x="-434.027" y="565.602"/>
      <point x="-380.063" y="618"/>
      <point x="-304.235" y="618" type="curve" smooth="yes"/>
      <point x="-228.377" y="618"/>
      <point x="-173.987" y="565.378"/>
      <point x="-174" y="492" type="curve"/>
      <point x="-247" y="492" type="line"/>
      <point x="-246.833" y="526.19"/>
      <point x="-266.356" y="544"/>
      <point x="-304" y="544" type="curve" smooth="yes"/>
      <point x="-341.644" y="544"/>
      <point x="-361.167" y="526.19"/>
      <point x="-361" y="492" type="curve"/>
    </contour>
  </outline>
</glyph>
<glyph name="commaturnedabovecmb" format="1">
  <advance width="0"/>
  <unicode hex="0312"/>
  <outline>
    <contour>
      <point x="-164" y="648.082" type="curve" smooth="yes"/>
      <point x="-164" y="619.952"/>
      <point x="-182.399" y="570.406"/>
      <point x="-187.895" y="552.893" type="curve" smooth="yes"/>
      <point x="-197.212" y="523.209"/>
      <point x="-210.026" y="511"/>
      <point x="-231.865" y="511" type="curve" smooth="yes"/>
      <point x="-257.229" y="511"/>
      <point x="-275.783" y="524.862"/>
      <point x="-275.783" y="543.811" type="curve" smooth="yes"/>
      <point x="-275.783" y="571.883"/>
      <point x="-242.411" y="626.912"/>
      <point x="-228.732" y="654.563" type="curve" smooth="yes"/>
      <point x="-219.402" y="673.423"/>
      <point x="-208.252" y="682"/>
      <point x="-193.065" y="682" type="curve" smooth="yes"/>
      <point x="-174.623" y="682"/>
      <point x="-164" y="669.603"/>
    </contour>
  </outline>
</glyph>
<glyph name="tonos" format="1">
  <advance width="265"/>
  <unicode hex="0384"/>
  <outline>
    <contour>
      <point x="161.324" y="691" type="curve" smooth="yes"/>
      <point x="180.23" y="691"/>
      <point x="194.402" y="673.44"/>
      <point x="194.402" y="650.015" type="curve" smooth="yes"/>
      <point x="194.402" y="622.553"/>
      <point x="167.19" y="542.49"/>
      <point x="141.322" y="493.845" type="curve" smooth="yes"/>
      <point x="131.368" y="475.125"/>
      <point x="120.748" y="467"/>
      <point x="106.235" y="467" type="curve" smooth="yes"/>
      <point x="85.9534" y="467"/>
      <point x="70.7732" y="482.717"/>
      <point x="70.7732" y="503.715" type="curve" smooth="yes"/>
      <point x="70.7732" y="529.005"/>
      <point x="99.5671" y="613.051"/>
      <point x="124.839" y="661.528" type="curve" smooth="yes"/>
      <point x="135.112" y="681.233"/>
      <point x="147.203" y="691"/>
    </contour>
  </outline>
</glyph>
<glyph name="dieresistonos" format="1">
  <advance width="403"/>
  <unicode hex="0385"/>
  <outline>
    <contour>
      <point x="150" y="546" type="curve" smooth="yes"/>
      <point x="150" y="517.541"/>
      <point x="123.884" y="496.235"/>
      <point x="89.0003" y="496.235" type="curve" smooth="yes"/>
      <point x="54.1165" y="496.235"/>
      <point x="28" y="517.541"/>
      <point x="28" y="546" type="curve" smooth="yes"/>
      <point x="28" y="574.459"/>
      <point x="54.1163" y="595.765"/>
      <point x="89" y="595.765" type="curve" smooth="yes"/>
      <point x="123.884" y="595.765"/>
      <point x="150" y="574.459"/>
    </contour>
    <contour>
      <point x="320" y="546" type="curve" smooth="yes"/>
      <point x="320" y="517.541"/>
      <point x="293.884" y="496.235"/>
      <point x="259" y="496.235" type="curve" smooth="yes"/>
      <point x="224.116" y="496.235"/>
      <point x="198" y="517.541"/>
      <point x="198" y="546" type="curve" smooth="yes"/>
      <point x="198" y="574.459"/>
      <point x="224.116" y="595.765"/>
      <point x="259" y="595.765" type="curve" smooth="yes"/>
      <point x="293.884" y="595.765"/>
      <point x="320" y="574.459"/>
    </contour>
    <contour>
      <point x="240.127" y="821" type="curve" smooth="yes"/>
      <point x="259.13" y="821"/>
      <point x="272.402" y="806.167"/>
      <point x="272.402" y="784.929" type="curve" smooth="yes"/>
      <point x="272.402" y="765.664"/>
      <point x="252.661" y="702.561"/>
      <point x="228.877" y="645.798" type="curve" smooth="yes"/>
      <point x="212.584" y="606.914"/>
      <point x="203.469" y="597"/>
      <point x="184.01" y="597" type="curve" smooth="yes"/>
      <point x="163.163" y="597"/>
      <point x="148.668" y="610.041"/>
      <point x="148.668" y="628.796" type="curve" smooth="yes"/>
      <point x="148.668" y="646.439"/>
      <point x="170.544" y="714.736"/>
      <point x="195.168" y="773.97" type="curve" smooth="yes"/>
      <point x="209.653" y="808.815"/>
      <point x="221.302" y="821"/>
    </contour>
  </outline>
</glyph>
<glyph name="Gamma" format="1">
  <advance width="595"/>
  <unicode hex="0393"/>
  <outline>
    <contour>
      <point x="118" y="-7" type="curve" smooth="yes"/>
      <point x="94.5791" y="-7"/>
      <point x="82" y="7.67561"/>
      <point x="82" y="35" type="curve" smooth="yes"/>
      <point x="82" y="503" type="line" smooth="yes"/>
      <point x="82" y="600.205"/>
      <point x="111.605" y="636"/>
      <point x="192" y="636" type="curve" smooth="yes"/>
      <point x="527" y="636" type="line" smooth="yes"/>
      <point x="556.238" y="636"/>
      <point x="572" y="623.39"/>
      <point x="572" y="600" type="curve" smooth="yes"/>
      <point x="572" y="576.61"/>
      <point x="556.238" y="564"/>
      <point x="527" y="564" type="curve" smooth="yes"/>
      <point x="199" y="564" type="line" smooth="yes"/>
      <point x="164.38" y="564"/>
      <point x="154" y="553.159"/>
      <point x="154" y="517" type="curve" smooth="yes"/>
      <point x="154" y="35" type="line" smooth="yes"/>
      <point x="154" y="7.67561"/>
      <point x="141.421" y="-7"/>
    </contour>
  </outline>
</glyph>
<glyph name="Pi" format="1">
  <advance width="664"/>
  <unicode hex="03A0"/>
  <outline>
    <contour>
      <point x="85" y="636" type="line"/>
      <point x="579" y="636" type="line"/>
      <point x="579" y="35" type="line" smooth="yes"/>
      <point x="579" y="7.49389"/>
      <point x="566.577" y="-7"/>
      <point x="543" y="-7" type="curve" smooth="yes"/>
      <point x="519.423" y="-7"/>
      <point x="507" y="7.49389"/>
      <point x="507" y="35" type="curve" smooth="yes"/>
      <point x="507" y="564" type="line"/>
      <point x="157" y="564" type="line"/>
      <point x="157" y="35" type="line" smooth="yes"/>
      <point x="157" y="7.49389"/>
      <point x="144.577" y="-7"/>
      <point x="121" y="-7" type="curve" smooth="yes"/>
      <point x="97.4233" y="-7"/>
      <point x="85" y="7.49389"/>
      <point x="85" y="35" type="curve" smooth="yes"/>
    </contour>
  </outline>
</glyph>
<glyph name="Psi" format="1">
  <advance width="600"/>
  <unicode hex="03A8"/>
  <outline>
    <contour>
      <point x="517.785" y="643" type="curve" smooth="yes"/>
      <point x="540.249" y="643"/>
      <point x="552" y="628.918"/>
      <point x="552" y="602" type="curve" smooth="yes"/>
      <point x="552" y="453" type="line" smooth="yes"/>
      <point x="552" y="321.98"/>
      <point x="470.52" y="231.362"/>
      <point x="338" y="215" type="curve"/>
      <point x="338" y="33" type="line" smooth="yes"/>
      <point x="338" y="6.56161"/>
      <point x="325.456" y="-7"/>
      <point x="301" y="-7" type="curve" smooth="yes"/>
      <point x="276.544" y="-7"/>
      <point x="264" y="6.56161"/>
      <point x="264" y="33" type="curve" smooth="yes"/>
      <point x="264" y="215" type="line"/>
      <point x="130.225" y="229.982"/>
      <point x="48" y="320.583"/>
      <point x="48" y="453" type="curve" smooth="yes"/>
      <point x="48" y="602" type="line" smooth="yes"/>
      <point x="48" y="628.811"/>
      <point x="59.9172" y="643"/>
      <point x="82.4352" y="643" type="curve" smooth="yes"/>
      <point x="190.769" y="643"/>
      <point x="8.99495" y="319.715"/>
      <point x="264" y="288" type="curve"/>
      <point x="264" y="600" type="line" smooth="yes"/>
      <point x="264" y="628.367"/>
      <point x="276.591" y="643"/>
      <point x="301" y="643" type="curve" smooth="yes"/>
      <point x="325.409" y="643"/>
      <point x="338" y="628.367"/>
      <point x="338" y="600" type="curve" smooth="yes"/>
      <point x="338" y="289" type="line"/>
      <point x="589.634" y="320.738"/>
      <point x="409.258" y="643"/>
    </contour>
  </outline>
</glyph>
<glyph name="Omega" format="1">
  <advance width="632"/>
  <unicode hex="03A9"/>
  <outline>
    <contour>
      <point x="355" y="157" type="curve"/>
      <point x="451.065" y="175.585"/>
      <point x="496" y="228.806"/>
      <point x="496" y="324" type="curve" smooth="yes"/>
      <point x="496" y="403" type="line" smooth="yes"/>
      <point x="496" y="510.965"/>
      <point x="430.316" y="573"/>
      <point x="316" y="573" type="curve" smooth="yes"/>
      <point x="201.684" y="573"/>
      <point x="136" y="510.965"/>
      <point x="136" y="403" type="curve" smooth="yes"/>
      <point x="136" y="324" type="line" smooth="yes"/>
      <point x="136" y="230.121"/>
      <point x="177.55" y="180.615"/>
      <point x="277" y="156" type="curve"/>
      <point x="277" y="105" type="line" smooth="yes"/>
      <point x="277" y="13.5941"/>
      <point x="262.629" y="-0"/>
      <point x="166" y="0" type="curve" smooth="yes"/>
      <point x="109" y="0" type="line" smooth="yes"/>
      <point x="79.8811" y="0"/>
      <point x="64" y="12.4107"/>
      <point x="64" y="35.1664" type="curve" smooth="yes"/>
      <point x="64" y="86.102"/>
      <point x="140.148" y="71.9802"/>
      <point x="174.846" y="71.9802" type="curve" smooth="yes"/>
      <point x="190.792" y="71.9802"/>
      <point x="197.569" y="77.5842"/>
      <point x="197.569" y="90.7703" type="curve"/>
      <point x="197" y="112" type="line"/>
      <point x="112.575" y="148.721"/>
      <point x="64" y="227.61"/>
      <point x="64" y="328" type="curve" smooth="yes"/>
      <point x="64" y="406" type="line" smooth="yes"/>
      <point x="64" y="551.797"/>
      <point x="161.832" y="645"/>
      <point x="314.87" y="645" type="curve" smooth="yes"/>
      <point x="468.569" y="645"/>
      <point x="568" y="551.119"/>
      <point x="568" y="406" type="curve" smooth="yes"/>
      <point x="568" y="328" type="line" smooth="yes"/>
      <point x="568" y="227.61"/>
      <point x="519.425" y="148.721"/>
      <point x="435" y="112" type="curve"/>
      <point x="435" y="89" type="line" smooth="yes"/>
      <point x="435" y="60.7597"/>
      <point x="484.036" y="73.6249"/>
      <point x="515.773" y="73.6249" type="curve" smooth="yes"/>
      <point x="547.979" y="73.6249"/>
      <point x="568" y="58.907"/>
      <point x="568" y="35.232" type="curve" smooth="yes"/>
      <point x="568" y="12.426"/>
      <point x="552.129" y="-0"/>
      <point x="523" y="0" type="curve" smooth="yes"/>
      <point x="466" y="0" type="line" smooth="yes"/>
      <point x="375.395" y="0"/>
      <point x="354.056" y="18.6669"/>
      <point x="354.056" y="97.9246" type="curve" smooth="yes"/>
      <point x="354.056" y="112.279"/>
      <point x="354.941" y="134.634"/>
    </contour>
  </outline>
</glyph>
<glyph name="beta" format="1">
  <advance width="530"/>
  <unicode hex="03B2"/>
  <outline>
    <contour>
      <point x="148" y="35" type="curve"/>
      <point x="148" y="-101" type="line" smooth="yes"/>
      <point x="148" y="-131.064"/>
      <point x="135.366" y="-147"/>
      <point x="111.529" y="-147" type="curve" smooth="yes"/>
      <point x="88.1139" y="-147"/>
      <point x="76" y="-131.316"/>
      <point x="76" y="-101" type="curve" smooth="yes"/>
      <point x="76" y="461" type="line" smooth="yes"/>
      <point x="76" y="578.683"/>
      <point x="131.272" y="636"/>
      <point x="244.755" y="636" type="curve" smooth="yes"/>
      <point x="361.873" y="636"/>
      <point x="434" y="576.627"/>
      <point x="434" y="480.22" type="curve" smooth="yes"/>
      <point x="434" y="427.977"/>
      <point x="413.369" y="385.643"/>
      <point x="372" y="353" type="curve"/>
      <point x="441.361" y="325.978"/>
      <point x="479" y="262.378"/>
      <point x="479" y="172.198" type="curve" smooth="yes"/>
      <point x="479" y="54.7161"/>
      <point x="414.729" y="-7"/>
      <point x="292.384" y="-7" type="curve" smooth="yes"/>
      <point x="233.888" y="-7"/>
      <point x="185.063" y="7.20265"/>
    </contour>
    <contour>
      <point x="148" y="461" type="curve" smooth="yes"/>
      <point x="148" y="136" type="line"/>
      <point x="189.935" y="86.5575"/>
      <point x="239.114" y="63"/>
      <point x="300.396" y="63" type="curve" smooth="yes"/>
      <point x="373.194" y="63"/>
      <point x="407" y="95.935"/>
      <point x="407" y="166.856" type="curve" smooth="yes"/>
      <point x="407" y="265.591"/>
      <point x="338.135" y="314.074"/>
      <point x="198" y="314" type="curve"/>
      <point x="198" y="382" type="line"/>
      <point x="309.108" y="381.88"/>
      <point x="362" y="411.6"/>
      <point x="362" y="474.153" type="curve" smooth="yes"/>
      <point x="362" y="531.348"/>
      <point x="316.256" y="564"/>
      <point x="236.128" y="564" type="curve" smooth="yes"/>
      <point x="168.049" y="564"/>
      <point x="148" y="540.568"/>
    </contour>
  </outline>
</glyph>
<glyph name="epsilon" format="1">
  <advance width="635"/>
  <unicode hex="03B5"/>
  <outline>
    <contour>
      <point x="133" y="140.312" type="curve" smooth="yes"/>
      <point x="133" y="97.8775"/>
      <point x="183.003" y="72"/>
      <point x="265" y="72" type="curve" smooth="yes"/>
      <point x="371" y="72" type="line" smooth="yes"/>
      <point x="452.8" y="72"/>
      <point x="506" y="100.335"/>
      <point x="506" y="143.904" type="curve" smooth="yes"/>
      <point x="506" y="168.975"/>
      <point x="519.49" y="184"/>
      <point x="542" y="184" type="curve" smooth="yes"/>
      <point x="566.573" y="184"/>
      <point x="578" y="167.659"/>
      <point x="578" y="132.518" type="curve" smooth="yes"/>
      <point x="578" y="46.5531"/>
      <point x="507.741" y="-0"/>
      <point x="378" y="0" type="curve" smooth="yes"/>
      <point x="258" y="0" type="line" smooth="yes"/>
      <point x="129.787" y="0"/>
      <point x="61" y="45.7836"/>
      <point x="61" y="131.12" type="curve" smooth="yes"/>
      <point x="61" y="176.04"/>
      <point x="78.4329" y="212.259"/>
      <point x="111" y="235" type="curve"/>
      <point x="78.3979" y="252.528"/>
      <point x="61" y="285.688"/>
      <point x="61" y="330.298" type="curve" smooth="yes"/>
      <point x="61" y="415.332"/>
      <point x="129.833" y="461"/>
      <point x="258" y="461" type="curve" smooth="yes"/>
      <point x="378" y="461" type="line" smooth="yes"/>
      <point x="507.741" y="461"/>
      <point x="578" y="414.447"/>
      <point x="578" y="328.482" type="curve" smooth="yes"/>
      <point x="578" y="293.341"/>
      <point x="566.573" y="277"/>
      <point x="542" y="277" type="curve" smooth="yes"/>
      <point x="519.536" y="277"/>
      <point x="506" y="292.003"/>
      <point x="506" y="316.903" type="curve" smooth="yes"/>
      <point x="506" y="360.143"/>
      <point x="451.965" y="389"/>
      <point x="371" y="389" type="curve" smooth="yes"/>
      <point x="265" y="389" type="line" smooth="yes"/>
      <point x="182.461" y="389"/>
      <point x="132" y="364.268"/>
      <point x="132" y="323.814" type="curve" smooth="yes"/>
      <point x="132" y="254.369"/>
      <point x="246.858" y="275.924"/>
      <point x="315.908" y="275.924" type="curve" smooth="yes"/>
      <point x="352.969" y="275.924"/>
      <point x="376" y="261.971"/>
      <point x="376" y="239.518" type="curve" smooth="yes"/>
      <point x="376" y="188.975"/>
      <point x="285.243" y="201.327"/>
      <point x="234.195" y="201.327" type="curve" smooth="yes"/>
      <point x="170.128" y="201.327"/>
      <point x="133" y="178.941"/>
    </contour>
  </outline>
</glyph>
<glyph name="theta" format="1">
  <advance width="566"/>
  <unicode hex="03B8"/>
  <outline>
    <contour>
      <point x="138" y="406" type="curve" smooth="yes"/>
      <point x="138" y="354" type="line"/>
      <point x="428" y="354" type="line"/>
      <point x="428" y="406" type="line" smooth="yes"/>
      <point x="428" y="520.188"/>
      <point x="382.146" y="573"/>
      <point x="283" y="573" type="curve" smooth="yes"/>
      <point x="183.854" y="573"/>
      <point x="138" y="520.188"/>
    </contour>
    <contour>
      <point x="66" y="230" type="curve" smooth="yes"/>
      <point x="66" y="406" type="line" smooth="yes"/>
      <point x="66" y="564.938"/>
      <point x="138.692" y="645"/>
      <point x="283" y="645" type="curve" smooth="yes"/>
      <point x="427.308" y="645"/>
      <point x="500" y="564.938"/>
      <point x="500" y="406" type="curve" smooth="yes"/>
      <point x="500" y="230" type="line" smooth="yes"/>
      <point x="500" y="71.0615"/>
      <point x="427.308" y="-9"/>
      <point x="283" y="-9" type="curve" smooth="yes"/>
      <point x="138.692" y="-9"/>
      <point x="66" y="71.0615"/>
    </contour>
    <contour>
      <point x="428" y="230" type="curve" smooth="yes"/>
      <point x="428" y="281" type="line"/>
      <point x="138" y="281" type="line"/>
      <point x="138" y="230" type="line" smooth="yes"/>
      <point x="138" y="115.812"/>
      <point x="183.854" y="63"/>
      <point x="283" y="63" type="curve" smooth="yes"/>
      <point x="382.146" y="63"/>
      <point x="428" y="115.812"/>
    </contour>
  </outline>
</glyph>
<glyph name="lambda" format="1">
  <advance width="626"/>
  <unicode hex="03BB"/>
  <outline>
    <contour>
      <point x="282" y="404" type="line"/>
      <point x="100" y="20" type="line" smooth="yes"/>
      <point x="91.2669" y="1.57419"/>
      <point x="79.1222" y="-7"/>
      <point x="61.7565" y="-7" type="curve" smooth="yes"/>
      <point x="41.2293" y="-7"/>
      <point x="28.8724" y="4.99573"/>
      <point x="28.8724" y="24.923" type="curve" smooth="yes"/>
      <point x="28.8724" y="31.0087"/>
      <point x="29.7921" y="37.5258"/>
      <point x="31" y="40" type="curve" smooth="yes"/>
      <point x="238" y="464" type="line"/>
      <point x="217" y="511" type="line" smooth="yes"/>
      <point x="181.84" y="589.296"/>
      <point x="101" y="545.996"/>
      <point x="101" y="599.725" type="curve" smooth="yes"/>
      <point x="101" y="623.791"/>
      <point x="118.424" y="637"/>
      <point x="150.167" y="637" type="curve" smooth="yes"/>
      <point x="201.207" y="637"/>
      <point x="254.48" y="602.265"/>
      <point x="279" y="553" type="curve" smooth="yes"/>
      <point x="496" y="117" type="line" smooth="yes"/>
      <point x="531.357" y="45.9595"/>
      <point x="605.227" y="79.9083"/>
      <point x="605.227" y="29.3843" type="curve" smooth="yes"/>
      <point x="605.227" y="6.13439"/>
      <point x="589.211" y="-6"/>
      <point x="558.525" y="-6" type="curve" smooth="yes"/>
      <point x="507.817" y="-6"/>
      <point x="455.778" y="28.8245"/>
      <point x="433" y="78" type="curve" smooth="yes"/>
    </contour>
  </outline>
</glyph>
<glyph name="rho" format="1">
  <advance width="632"/>
  <unicode hex="03C1"/>
  <outline>
    <contour>
      <point x="136" y="232" type="curve" smooth="yes"/>
      <point x="136" y="72" type="line"/>
      <point x="322" y="72" type="line" smooth="yes"/>
      <point x="419.345" y="72"/>
      <point x="499" y="61.8126"/>
      <point x="499" y="181" type="curve" smooth="yes"/>
      <point x="499" y="280" type="line" smooth="yes"/>
      <point x="499" y="398.556"/>
      <point x="419.091" y="389"/>
      <point x="348.09" y="389" type="curve" smooth="yes"/>
      <point x="197.522" y="389"/>
      <point x="136" y="343.459"/>
    </contour>
    <contour>
      <point x="571" y="283" type="curve" smooth="yes"/>
      <point x="571" y="178" type="line" smooth="yes"/>
      <point x="571" y="47.638"/>
      <point x="504.36" y="-0"/>
      <point x="322" y="0" type="curve" smooth="yes"/>
      <point x="136" y="0" type="line"/>
      <point x="136" y="-137" type="line" smooth="yes"/>
      <point x="136" y="-166.446"/>
      <point x="123.39" y="-182"/>
      <point x="99.516" y="-182" type="curve" smooth="yes"/>
      <point x="76.0689" y="-182"/>
      <point x="64" y="-166.708"/>
      <point x="64" y="-137" type="curve" smooth="yes"/>
      <point x="64" y="213" type="line" smooth="yes"/>
      <point x="64" y="389.337"/>
      <point x="149.516" y="461"/>
      <point x="359.939" y="461" type="curve" smooth="yes"/>
      <point x="505.391" y="461"/>
      <point x="571" y="405.668"/>
    </contour>
  </outline>
</glyph>
<glyph name="sigma" format="1">
  <advance width="656"/>
  <unicode hex="03C3"/>
  <outline>
    <contour>
      <point x="575" y="461" type="line" smooth="yes"/>
      <point x="604.382" y="461"/>
      <point x="620" y="449.038"/>
      <point x="620" y="426.534" type="curve" smooth="yes"/>
      <point x="620" y="374.899"/>
      <point x="540.649" y="389"/>
      <point x="508" y="389" type="curve"/>
      <point x="562.728" y="327.461"/>
      <point x="559" y="254.378"/>
      <point x="559" y="213.265" type="curve" smooth="yes"/>
      <point x="559" y="61.8987"/>
      <point x="508.947" y="-0"/>
      <point x="386.548" y="-0" type="curve" smooth="yes"/>
      <point x="130.396" y="-0"/>
      <point x="61" y="37.9435"/>
      <point x="61" y="178" type="curve" smooth="yes"/>
      <point x="61" y="283" type="line" smooth="yes"/>
      <point x="61" y="414.042"/>
      <point x="127.743" y="461"/>
      <point x="314" y="461" type="curve" smooth="yes"/>
    </contour>
    <contour>
      <point x="133" y="280" type="curve" smooth="yes"/>
      <point x="133" y="181" type="line" smooth="yes"/>
      <point x="133" y="134.03"/>
      <point x="144.315" y="103.74"/>
      <point x="166.618" y="91.0036" type="curve" smooth="yes"/>
      <point x="201.702" y="70.9692"/>
      <point x="296.272" y="72"/>
      <point x="335.893" y="72" type="curve" smooth="yes"/>
      <point x="399.103" y="72"/>
      <point x="446.844" y="78.9814"/>
      <point x="462.332" y="90.4899" type="curve" smooth="yes"/>
      <point x="477.753" y="101.948"/>
      <point x="486" y="133.486"/>
      <point x="486" y="181" type="curve" smooth="yes"/>
      <point x="486" y="250" type="line" smooth="yes"/>
      <point x="486" y="347.98"/>
      <point x="421.463" y="389"/>
      <point x="267.311" y="389" type="curve" smooth="yes"/>
      <point x="205.163" y="389"/>
      <point x="133" y="394.868"/>
    </contour>
  </outline>
</glyph>
<glyph name="chi" format="1">
  <advance width="562"/>
  <unicode hex="03C7"/>
  <outline>
    <contour>
      <point x="463.88" y="467.845" type="curve" smooth="yes"/>
      <point x="482.25" y="467.845"/>
      <point x="498.651" y="450.222"/>
      <point x="498.651" y="430.484" type="curve" smooth="yes"/>
      <point x="498.651" y="420.404"/>
      <point x="494.256" y="417.029"/>
      <point x="489" y="409" type="curve" smooth="yes"/>
      <point x="326" y="160" type="line"/>
      <point x="431" y="-49" type="line" smooth="yes"/>
      <point x="448.68" y="-84.1913"/>
      <point x="470.668" y="-102"/>
      <point x="496.439" y="-102" type="curve" smooth="yes"/>
      <point x="522.11" y="-102"/>
      <point x="540.006" y="-117.231"/>
      <point x="540.006" y="-139.08" type="curve" smooth="yes"/>
      <point x="540.006" y="-161.676"/>
      <point x="522.04" y="-174.777"/>
      <point x="491.055" y="-174.777" type="curve" smooth="yes"/>
      <point x="442.264" y="-174.777"/>
      <point x="392.174" y="-140.677"/>
      <point x="368" y="-91" type="curve" smooth="yes"/>
      <point x="277" y="96" type="line"/>
      <point x="118" y="-154" type="line" smooth="yes"/>
      <point x="108.142" y="-169.5"/>
      <point x="95.4352" y="-178.178"/>
      <point x="82.5993" y="-178.178" type="curve" smooth="yes"/>
      <point x="63.923" y="-178.178"/>
      <point x="47.3854" y="-160.197"/>
      <point x="47.3854" y="-139.89" type="curve" smooth="yes"/>
      <point x="47.3854" y="-129.761"/>
      <point x="51.6776" y="-125.309"/>
      <point x="57" y="-117" type="curve" smooth="yes"/>
      <point x="237" y="164" type="line"/>
      <point x="145" y="345" type="line" smooth="yes"/>
      <point x="110.415" y="412.985"/>
      <point x="36" y="381.581"/>
      <point x="36" y="431.539" type="curve" smooth="yes"/>
      <point x="36" y="454.945"/>
      <point x="53.4927" y="468"/>
      <point x="84.8552" y="468" type="curve" smooth="yes"/>
      <point x="133.868" y="468"/>
      <point x="183.118" y="434.393"/>
      <point x="208" y="384" type="curve" smooth="yes"/>
      <point x="287" y="224" type="line"/>
      <point x="428" y="445" type="line" smooth="yes"/>
      <point x="436.803" y="458.798"/>
      <point x="451.012" y="467.845"/>
    </contour>
  </outline>
</glyph>
<glyph name="omega" format="1">
  <advance width="705"/>
  <unicode hex="03C9"/>
  <outline>
    <contour>
      <point x="353" y="47" type="curve"/>
      <point x="322.371" y="11.7728"/>
      <point x="279.251" y="-7"/>
      <point x="228.966" y="-7" type="curve" smooth="yes"/>
      <point x="132.95" y="-7"/>
      <point x="62" y="60.14"/>
      <point x="62" y="151" type="curve" smooth="yes"/>
      <point x="62" y="308" type="line" smooth="yes"/>
      <point x="62" y="405.518"/>
      <point x="114.977" y="468"/>
      <point x="197.66" y="468" type="curve" smooth="yes"/>
      <point x="233.672" y="468"/>
      <point x="251" y="455.112"/>
      <point x="251" y="428.328" type="curve" smooth="yes"/>
      <point x="251" y="371.382"/>
      <point x="174.528" y="425.659"/>
      <point x="144.233" y="351.685" type="curve" smooth="yes"/>
      <point x="137.884" y="336.183"/>
      <point x="134" y="316.564"/>
      <point x="134" y="300" type="curve" smooth="yes"/>
      <point x="134" y="159" type="line" smooth="yes"/>
      <point x="134" y="100.987"/>
      <point x="169.174" y="65"/>
      <point x="225.876" y="65" type="curve" smooth="yes"/>
      <point x="284.603" y="65"/>
      <point x="311.49" y="100.375"/>
      <point x="311.49" y="177.638" type="curve" smooth="yes"/>
      <point x="311.49" y="199.336"/>
      <point x="309.411" y="221.964"/>
      <point x="309.411" y="244.868" type="curve" smooth="yes"/>
      <point x="309.411" y="290.062"/>
      <point x="322.602" y="310"/>
      <point x="352.5" y="310" type="curve" smooth="yes"/>
      <point x="382.398" y="310"/>
      <point x="395.589" y="290.062"/>
      <point x="395.589" y="244.868" type="curve" smooth="yes"/>
      <point x="395.589" y="221.964"/>
      <point x="393.51" y="199.336"/>
      <point x="393.51" y="177.638" type="curve" smooth="yes"/>
      <point x="393.51" y="100.375"/>
      <point x="420.397" y="65"/>
      <point x="479.124" y="65" type="curve" smooth="yes"/>
      <point x="535.826" y="65"/>
      <point x="571" y="100.987"/>
      <point x="571" y="159" type="curve" smooth="yes"/>
      <point x="571" y="300" type="line" smooth="yes"/>
      <point x="571" y="438.345"/>
      <point x="454" y="364.586"/>
      <point x="454" y="430.465" type="curve" smooth="yes"/>
      <point x="454" y="455.627"/>
      <point x="471.582" y="468"/>
      <point x="507.34" y="468" type="curve" smooth="yes"/>
      <point x="590.023" y="468"/>
      <point x="643" y="405.518"/>
      <point x="643" y="308" type="curve" smooth="yes"/>
      <point x="643" y="151" type="line" smooth="yes"/>
      <point x="643" y="59.8151"/>
      <point x="572.765" y="-7"/>
      <point x="476.912" y="-7" type="curve" smooth="yes"/>
      <point x="426.637" y="-7"/>
      <point x="383.67" y="11.7246"/>
    </contour>
  </outline>
</glyph>
<glyph name="Ie.ukran" format="1">
  <advance width="628"/>
  <unicode hex="0404"/>
  <outline>
    <contour>
      <point x="465" y="636" type="line" smooth="yes"/>
      <point x="539.117" y="636"/>
      <point x="575" y="600.8"/>
      <point x="575" y="528.093" type="curve" smooth="yes"/>
      <point x="575" y="487.959"/>
      <point x="562.939" y="469"/>
      <point x="537.406" y="469" type="curve" smooth="yes"/>
      <point x="479.567" y="469"/>
      <point x="525.28" y="565.135"/>
      <point x="431.418" y="565.135" type="curve" smooth="yes"/>
      <point x="421.22" y="565.135"/>
      <point x="372.479" y="564"/>
      <point x="336.378" y="564" type="curve" smooth="yes"/>
      <point x="226.611" y="564"/>
      <point x="143" y="574.49"/>
      <point x="143" y="455" type="curve" smooth="yes"/>
      <point x="143" y="369" type="line"/>
      <point x="412" y="369" type="line" smooth="yes"/>
      <point x="441.703" y="369"/>
      <point x="457" y="356.93"/>
      <point x="457" y="333.493" type="curve" smooth="yes"/>
      <point x="457" y="309.627"/>
      <point x="441.429" y="297"/>
      <point x="412" y="297" type="curve" smooth="yes"/>
      <point x="143" y="297" type="line"/>
      <point x="143" y="184" type="line" smooth="yes"/>
      <point x="143" y="62.7608"/>
      <point x="224.927" y="72"/>
      <point x="324" y="72" type="curve" smooth="yes"/>
      <point x="458" y="72" type="line" smooth="yes"/>
      <point x="539.399" y="72"/>
      <point x="472.514" y="167"/>
      <point x="535.691" y="167" type="curve" smooth="yes"/>
      <point x="562.918" y="167"/>
      <point x="575" y="149.487"/>
      <point x="575" y="110.018" type="curve" smooth="yes"/>
      <point x="575" y="36.4016"/>
      <point x="538.604" y="-0"/>
      <point x="465" y="0" type="curve" smooth="yes"/>
      <point x="324" y="0" type="line" smooth="yes"/>
      <point x="137.909" y="0"/>
      <point x="71" y="47.8678"/>
      <point x="71" y="181" type="curve" smooth="yes"/>
      <point x="71" y="455" type="line" smooth="yes"/>
      <point x="71" y="588.132"/>
      <point x="137.909" y="636"/>
      <point x="324" y="636" type="curve" smooth="yes"/>
    </contour>
  </outline>
</glyph>
<glyph name="Tshecyrillic" format="1">
  <advance width="742"/>
  <unicode hex="040B"/>
  <outline>
    <contour>
      <point x="290" y="564" type="line"/>
      <point x="290" y="426" type="line"/>
      <point x="335.038" y="460.117"/>
      <point x="394.452" y="476"/>
      <point x="477.037" y="476" type="curve" smooth="yes"/>
      <point x="622.7" y="476"/>
      <point x="684" y="421.502"/>
      <point x="684" y="292" type="curve" smooth="yes"/>
      <point x="684" y="38" type="line" smooth="yes"/>
      <point x="684" y="8.38145"/>
      <point x="671.644" y="-7"/>
      <point x="647.852" y="-7" type="curve" smooth="yes"/>
      <point x="624.265" y="-7"/>
      <point x="612" y="8.05255"/>
      <point x="612" y="37" type="curve" smooth="yes"/>
      <point x="612" y="290" type="line" smooth="yes"/>
      <point x="612" y="369.755"/>
      <point x="582.113" y="404"/>
      <point x="512.507" y="404" type="curve" smooth="yes"/>
      <point x="355.259" y="404"/>
      <point x="290" y="355.314"/>
      <point x="290" y="238" type="curve" smooth="yes"/>
      <point x="290" y="37" type="line" smooth="yes"/>
      <point x="290" y="8.07151"/>
      <point x="276.903" y="-7"/>
      <point x="251.765" y="-7" type="curve" smooth="yes"/>
      <point x="227.415" y="-7"/>
      <point x="215" y="7.18283"/>
      <point x="215" y="35" type="curve" smooth="yes"/>
      <point x="215" y="564" type="line"/>
      <point x="69" y="564" type="line" smooth="yes"/>
      <point x="43.7026" y="564"/>
      <point x="25.4706" y="579.078"/>
      <point x="25.4706" y="600" type="curve" smooth="yes"/>
      <point x="25.4706" y="620.922"/>
      <point x="43.7026" y="636"/>
      <point x="69" y="636" type="curve" smooth="yes"/>
      <point x="440" y="636" type="line" smooth="yes"/>
      <point x="470.222" y="636"/>
      <point x="486" y="623.652"/>
      <point x="486" y="600" type="curve" smooth="yes"/>
      <point x="486" y="576.348"/>
      <point x="470.222" y="564"/>
      <point x="440" y="564" type="curve" smooth="yes"/>
    </contour>
  </outline>
</glyph>
<glyph name="Dzhecyrillic" format="1">
  <advance width="664"/>
  <unicode hex="040F"/>
  <outline>
    <contour>
      <point x="296" y="0" type="curve"/>
      <point x="85" y="0" type="line"/>
      <point x="85" y="586" type="line" smooth="yes"/>
      <point x="85" y="615.598"/>
      <point x="97.3216" y="631"/>
      <point x="121" y="631" type="curve" smooth="yes"/>
      <point x="144.678" y="631"/>
      <point x="157" y="615.598"/>
      <point x="157" y="586" type="curve" smooth="yes"/>
      <point x="157" y="72" type="line"/>
      <point x="507" y="72" type="line"/>
      <point x="507" y="586" type="line" smooth="yes"/>
      <point x="507" y="615.598"/>
      <point x="519.322" y="631"/>
      <point x="543" y="631" type="curve" smooth="yes"/>
      <point x="566.678" y="631"/>
      <point x="579" y="615.598"/>
      <point x="579" y="586" type="curve" smooth="yes"/>
      <point x="579" y="0" type="line"/>
      <point x="368" y="0" type="line"/>
      <point x="368" y="-33.0412"/>
      <point x="381.062" y="-92"/>
      <point x="333.45" y="-92" type="curve" smooth="yes"/>
      <point x="284.75" y="-92"/>
      <point x="296" y="-30.3165"/>
    </contour>
  </outline>
</glyph>
